<?xml version="1.0" encoding="UTF-8" standalone="no"?>
<!-- Created with Inkscape (http://www.inkscape.org/) -->

<svg
   xmlns:dc="http://purl.org/dc/elements/1.1/"
   xmlns:cc="http://creativecommons.org/ns#"
   xmlns:rdf="http://www.w3.org/1999/02/22-rdf-syntax-ns#"
   xmlns:svg="http://www.w3.org/2000/svg"
   xmlns="http://www.w3.org/2000/svg"
   xmlns:sodipodi="http://sodipodi.sourceforge.net/DTD/sodipodi-0.dtd"
   xmlns:inkscape="http://www.inkscape.org/namespaces/inkscape"
   width="210mm"
   height="297mm"
   viewBox="0 0 210 297"
   version="1.1"
   id="svg8"
   inkscape:version="0.92.4 (5da689c313, 2019-01-14)"
   sodipodi:docname="logo2.svg">
  <defs
     id="defs2">
    <inkscape:path-effect
       effect="bspline"
       id="path-effect4546"
       is_visible="true"
       weight="33.333333"
       steps="2"
       helper_size="0"
       apply_no_weight="true"
       apply_with_weight="true"
       only_selected="false" />
    <inkscape:path-effect
       effect="bspline"
       id="path-effect4540"
       is_visible="true"
       weight="33.333333"
       steps="2"
       helper_size="0"
       apply_no_weight="true"
       apply_with_weight="true"
       only_selected="false" />
  </defs>
  <sodipodi:namedview
     id="base"
     pagecolor="#ffffff"
     bordercolor="#666666"
     borderopacity="1.0"
     inkscape:pageopacity="0.0"
     inkscape:pageshadow="2"
     inkscape:zoom="1"
     inkscape:cx="412.81498"
     inkscape:cy="467.62561"
     inkscape:document-units="mm"
     inkscape:current-layer="layer1"
     showgrid="false"
     inkscape:snap-bbox="false"
     inkscape:bbox-nodes="true"
     inkscape:snap-nodes="false"
     inkscape:window-width="1366"
     inkscape:window-height="705"
     inkscape:window-x="-8"
     inkscape:window-y="-8"
     inkscape:window-maximized="1" />
  <metadata
     id="metadata5">
    <rdf:RDF>
      <cc:Work
         rdf:about="">
        <dc:format>image/svg+xml</dc:format>
        <dc:type
           rdf:resource="http://purl.org/dc/dcmitype/StillImage" />
        <dc:title></dc:title>
      </cc:Work>
    </rdf:RDF>
  </metadata>
  <g
     inkscape:label="Camada 1"
     inkscape:groupmode="layer"
     id="layer1">
    <g
       id="g4555"
       transform="matrix(4.8957822,0,0,4.8957822,-332.11609,-634.88679)">
      <path
         sodipodi:nodetypes="ccccccc"
         inkscape:connector-curvature="0"
         id="path21"
         transform="scale(0.26458333)"
         d="m 319.67578,577.89844 c 4.87132,4.87004 7.60832,11.46047 7.61328,18.33203 1.6e-4,14.36545 -11.70154,26.01118 -26.13672,26.01172 -4.40833,-0.002 -8.74462,-1.11301 -12.60546,-3.23047 4.39871,3.19548 9.06897,5.32694 14.50585,5.33594 14.25792,-2.2e-4 26.44119,-11.96474 26.44141,-26.22266 -0.0109,-7.8881 -3.62741,-15.33838 -9.81836,-20.22656 z"
         style="fill:#000000;fill-opacity:1;stroke-width:0.85383695" />
      <path
         sodipodi:nodetypes="cccccccccccccccccccccccccccccccccccccccccccccccccc"
         inkscape:original-d="m 79.245069,165.15245 c 0,0 -0.759408,-0.0569 -1.139835,-0.085 -0.391712,-0.12396 -0.783248,-0.24752 -1.175268,-0.37089 -0.267621,-0.16178 -0.535202,-0.32312 -0.803198,-0.48428 -0.09426,-0.25232 -0.196599,-0.50424 -0.295296,-0.75596 0.04749,-0.39377 0.09476,-0.78771 0.141742,-1.18117 0.566809,-0.15764 1.134192,-0.31525 1.700893,-0.47247 0.405577,-0.0239 0.811339,-0.0475 1.216609,-0.0709 0.433065,0.0745 0.86646,0.14935 1.299295,0.22442 0.531532,0.27521 1.063323,0.55095 1.594585,0.82683 0.260075,0.31465 0.519983,0.62969 0.779577,0.94494 0.197146,0.25174 0.393991,0.5037 0.590589,0.75595 0.122336,0.23206 0.244372,0.46433 0.366163,0.69689 0.197212,0.24395 0.393991,0.48796 0.590589,0.73233 0.126273,0.10212 0.252249,0.20447 0.377976,0.30711 0.141746,0.0626 0.28326,0.12541 0.424509,0.18851 0.169821,0.0582 0.339342,0.11667 0.508618,0.1754 0.314377,-0.008 0.628711,-0.0159 0.94233,-0.0235 0.336309,-0.10186 0.672593,-0.20354 1.008861,-0.30503 0.221507,-0.14036 0.442292,-0.28016 0.663243,-0.41997 0.202922,-0.17372 0.405318,-0.34695 0.607601,-0.52004 0.08756,-0.10868 0.174481,-0.21662 0.261874,-0.32521 0.07863,-0.1732 0.156678,-0.34545 0.234104,-0.51664 0.05173,-0.24211 0.103461,-0.48516 0.155095,-0.72876 0.07936,0.11811 0.236366,0.35376 0.236366,0.35376 v 0 c 0,0 0.08711,0.17158 0.130347,0.25792 0.02665,0.0975 0.07905,0.29289 0.07905,0.29289 0,0 -0.272849,0.51951 -0.412603,0.78525 -0.213255,0.22785 -0.417697,0.44628 -0.631579,0.67477 -0.251673,0.15886 -0.49581,0.31306 -0.744854,0.47045 -0.28679,0.13198 -0.572711,0.26371 -0.859453,0.39595 -0.436528,0.0786 -0.872998,0.15743 -1.310407,0.23664 -0.517799,-0.0949 -1.035056,-0.18949 -1.552977,-0.28384 -0.259725,-0.19722 -0.519453,-0.39399 -0.779576,-0.59059 -0.200567,-0.2326 -0.401336,-0.46486 -0.602401,-0.69689 -0.106031,-0.24829 -0.212346,-0.49636 -0.318918,-0.74414 -0.373581,-0.46462 -0.747813,-0.92946 -1.122116,-1.39379 -0.259575,-0.23648 -0.519451,-0.47273 -0.779576,-0.7087 -0.228108,-0.0711 -0.456457,-0.14201 -0.685081,-0.21261 -0.401629,-0.0397 -0.802936,-0.079 -1.204798,-0.11812 -0.354299,0.0549 -0.708441,0.10998 -1.063059,0.16536 -0.171792,0.14043 -0.342162,0.27975 -0.515681,0.42169 -0.04871,0.15173 -0.09692,0.30134 -0.145778,0.45241 0.0791,0.16529 0.157756,0.33047 0.236236,0.49609 0.2603,0.12582 0.519981,0.25172 0.779577,0.37798 0.31511,0.074 0.630224,0.14738 0.944938,0.22147 -7.94e-4,-7.9e-4 -0.0021,-0.001 -0.0035,-0.001 0.30749,0.21346 0.820891,0.57106 0.820891,0.57106 z"
         inkscape:path-effect="#path-effect4540"
         inkscape:connector-curvature="0"
         id="path4538"
         d="m 79.245069,165.15245 c -0.379945,-0.0283 -0.759428,-0.0566 -1.145537,-0.13264 -0.386109,-0.076 -0.777645,-0.19957 -1.107509,-0.34214 -0.329864,-0.14258 -0.597447,-0.30392 -0.780347,-0.51008 -0.182901,-0.20617 -0.281827,-0.45942 -0.307387,-0.78225 -0.02556,-0.32282 0.02171,-0.71676 0.328748,-0.9922 0.307036,-0.27545 0.87442,-0.43306 1.360541,-0.52358 0.486121,-0.0905 0.891881,-0.11416 1.311017,-0.0886 0.419136,0.0256 0.852529,0.10045 1.334656,0.2756 0.482128,0.17515 1.013916,0.45089 1.409523,0.74612 0.395606,0.29522 0.655515,0.61026 0.883883,0.89375 0.228368,0.28349 0.425213,0.53545 0.584668,0.77757 0.159455,0.24213 0.281494,0.4744 0.441008,0.71268 0.159514,0.23829 0.356295,0.4823 0.517758,0.65558 0.161462,0.17327 0.287434,0.27562 0.421226,0.35824 0.133791,0.0826 0.275293,0.14545 0.430842,0.20611 0.155549,0.0607 0.325073,0.11912 0.566956,0.1444 0.241883,0.0253 0.556219,0.0174 0.881204,-0.0373 0.324986,-0.0548 0.661271,-0.15643 0.940156,-0.27741 0.278885,-0.12097 0.499669,-0.26077 0.711594,-0.41756 0.211924,-0.15679 0.414321,-0.33002 0.559218,-0.47092 0.144897,-0.14091 0.231816,-0.24885 0.314781,-0.38976 0.08297,-0.14092 0.161016,-0.31316 0.225556,-0.51981 0.06454,-0.20664 0.116267,-0.44969 0.18171,-0.51231 0.06544,-0.0626 0.143968,0.0549 0.222757,0.17282 0,0 0,0 0,0 0.04345,0.086 0.08679,0.17174 0.121739,0.26362 0.03495,0.0919 0.06131,0.18956 0.08766,0.28719 -0.137534,0.26175 -0.272946,0.51946 -0.449405,0.76628 -0.176459,0.24681 -0.380904,0.46524 -0.613655,0.65896 -0.232751,0.19371 -0.47689,0.34791 -0.7448,0.49262 -0.267911,0.14471 -0.553835,0.27643 -0.915476,0.38191 -0.361641,0.10547 -0.798112,0.18429 -1.275759,0.17647 -0.477646,-0.008 -0.994912,-0.10237 -1.383818,-0.24816 -0.388905,-0.14579 -0.648636,-0.34256 -0.879011,-0.55718 -0.230376,-0.21462 -0.431144,-0.44689 -0.584711,-0.6871 -0.153566,-0.24021 -0.259882,-0.48828 -0.499943,-0.84443 -0.24006,-0.35616 -0.614294,-0.821 -0.931213,-1.17138 -0.316919,-0.35038 -0.576796,-0.58663 -0.82083,-0.74017 -0.244034,-0.15353 -0.472396,-0.2244 -0.787488,-0.27955 -0.315092,-0.0551 -0.716395,-0.0945 -1.094446,-0.0866 -0.378051,0.008 -0.732192,0.0629 -0.995401,0.16076 -0.263209,0.0978 -0.433581,0.23713 -0.544789,0.38392 -0.111208,0.1468 -0.159417,0.29641 -0.144373,0.45469 0.01504,0.15828 0.0937,0.32346 0.263173,0.46926 0.169472,0.1458 0.42915,0.27171 0.716597,0.37161 0.287446,0.0999 0.602455,0.17373 0.759377,0.21049 0.156922,0.0368 0.155659,0.0364 0.308652,0.14309 0.152993,0.10669 0.392974,0.27364 0.666604,0.46399 0,0 -0.545704,-0.0166 -0.545704,-0.0166 z"
         style="fill:#000000;fill-opacity:1;stroke:#000000;stroke-width:0;stroke-linecap:butt;stroke-linejoin:miter;stroke-miterlimit:4;stroke-dasharray:none;stroke-opacity:1" />
      <path
         inkscape:connector-curvature="0"
         style="fill:#000000;fill-opacity:1;stroke-width:0.22591102"
         d="m 92.366081,152.85552 a 6.9155989,6.8821902 0 0 0 -2.014347,4.85035 6.9155989,6.8821902 0 0 0 6.91534,6.88227 6.9155989,6.8821902 0 0 0 3.335196,-0.85473 6.8306954,6.8306954 0 0 1 -4.003372,1.30432 6.8306954,6.8306954 0 0 1 -6.830592,-6.8306 6.8306954,6.8306954 0 0 1 2.597775,-5.35161 z"
         id="path4542" />
      <path
         sodipodi:nodetypes="cccccccccccccccccccccccccccccccccccccccccccccccccccccccccccccccccccc"
         inkscape:original-d="m 98.02976,164.96861 c 0.227898,-0.0336 0.455529,-0.0669 0.682896,-0.1 0.319673,-0.10154 0.655077,-0.20295 0.982218,-0.30402 0.341926,-0.13564 0.667206,-0.26453 1.000416,-0.3964 0.29382,-0.31547 0.58682,-0.63009 0.88064,-0.94561 -0.0811,-0.47169 -0.16138,-0.93722 -0.24354,-1.41168 -0.38581,-0.11082 -0.76512,-0.21945 -1.14807,-0.32878 -0.506829,0.0289 -1.013917,0.058 -1.521273,0.0874 -0.556991,0.23131 -1.113879,0.46274 -1.671759,0.69473 -0.385025,0.37699 -0.769814,0.75376 -1.155118,1.13104 -0.272751,0.24935 -0.545412,0.49864 -0.818512,0.74836 -0.171408,0.32747 -0.342734,0.65454 -0.514496,0.98221 -0.179202,0.30405 -0.358322,0.60778 -0.537879,0.91206 -0.148,0.148 -0.295961,0.29596 -0.444336,0.44434 -0.200957,0.31849 -0.40146,0.63612 -0.602589,0.95458 -0.259059,0.34182 -0.517877,0.67221 -0.777213,1.00872 -0.236966,0.22593 -0.473782,0.45173 -0.711068,0.678 -0.292214,0.14873 -0.584023,0.29739 -0.876432,0.44648 -0.319789,0.0328 -0.639146,0.0659 -0.959115,0.0992 -0.220422,-0.18785 -0.440708,-0.37509 -0.661458,-0.56224 0.05539,-0.26488 0.110508,-0.52943 0.165364,-0.79375 0.21499,-0.23151 0.430213,-0.46328 0.644922,-0.69453 0.341614,-0.17094 0.683771,-0.34202 1.025261,-0.51263 0.391263,-0.0553 0.782989,-0.11051 1.174088,-0.16537 0.319728,0.0603 0.639675,0.12101 0.959115,0.18191 0.358322,0.10439 0.716843,0.20919 1.07487,0.31419 0.3694,0.14298 0.738893,0.29739 1.107942,0.44648 0.380463,0.0769 0.760942,0.15408 1.141016,0.23151 0.523644,0.0108 1.047573,0.0218 1.570963,0.0331 0.512895,-0.1546 1.025526,-0.30894 1.537891,-0.46302 0.336322,-0.3804 0.672746,-0.76095 1.008726,-1.14102 -0.0562,-0.235 -0.11257,-0.46945 -0.16936,-0.70421 -0.10326,0.1575 -0.20652,0.31487 -0.310179,0.4727 -0.165394,0.17644 -0.330465,0.36354 -0.496094,0.5457 -0.325447,0.22056 -0.649864,0.4405 -0.975652,0.66146 -0.347327,0.0494 -0.69355,0.0988 -1.041796,0.14883 -0.419522,-0.0555 -0.837582,-0.11051 -1.256771,-0.16537 -0.358256,-0.11609 -0.716314,-0.23177 -1.07487,-0.34726 -0.292012,-0.13262 -0.584022,-0.26485 -0.876432,-0.39688 -0.176197,-0.0389 -0.352512,-0.0774 -0.529167,-0.11575 -0.529494,-0.13271 -1.058068,-0.26485 -1.5875,-0.39688 -0.457406,0.088 -0.914751,0.17613 -1.372526,0.26459 -0.496159,0.25346 -0.991922,0.50685 -1.488281,0.76067 -0.220363,0.27552 -0.440708,0.55095 -0.661458,0.82683 -0.14872,0.43013 -0.297392,0.85963 -0.446484,1.28984 0.154717,0.20384 0.308946,0.40763 0.46302,0.61185 0.446839,0.13205 0.893234,0.25329 1.339453,0.38034 0.336373,-0.11598 0.672749,-0.23178 1.008724,-0.34727 0.264597,-0.17649 0.529432,-0.35304 0.79375,-0.52916 0.347128,-0.28657 0.694796,-0.57353 1.041797,-0.8599 0.297675,-0.34174 0.595577,-0.68377 0.892969,-1.02526 0.137954,-0.18202 0.275873,-0.36407 0.413411,-0.5457 0.220393,-0.26993 0.441238,-0.54046 0.661459,-0.81029 0.181972,-0.30311 0.364066,-0.6066 0.545703,-0.90951 0.143433,-0.23704 0.286896,-0.47431 0.429948,-0.71106 0.31955,-0.34708 0.639675,-0.6948 0.959114,-1.0418 0.352764,-0.31972 0.705821,-0.63968 1.058334,-0.95911 0.314212,-0.12144 0.628652,-0.2428 0.942578,-0.36381 0.209725,-0.0719 0.4192,-0.14358 0.628385,-0.21497 0.40814,0.0659 0.812805,0.13149 1.223695,0.19842 0.11139,0.34977 0.22052,0.69351 0.33073,1.04179 -0.41956,0.26489 -0.83701,0.52854 -1.256768,0.79375 -0.468572,0.15853 -0.935213,0.31657 -1.404596,0.47572 -0.228232,0.004 -0.454134,0.007 -0.684143,0.0116 -0.0036,0.0401 -0.0074,0.0803 -0.01144,0.12033 -0.147513,0.10913 -0.446004,0.33015 -0.446004,0.33015 0,0 0.504568,-0.0246 0.756453,-0.0364 0.09577,-0.01 0.191282,-0.0198 0.286528,-0.0293 z"
         inkscape:path-effect="#path-effect4546"
         inkscape:connector-curvature="0"
         id="path4544"
         d="m 98.143725,164.95192 c 0.113966,-0.0167 0.341592,-0.05 0.615464,-0.11625 0.273873,-0.0662 0.608597,-0.16984 0.943131,-0.28821 0.33453,-0.11837 0.65981,-0.24726 0.9733,-0.47101 0.31348,-0.22374 0.60648,-0.53836 0.71271,-0.93194 0.10623,-0.39357 0.0259,-0.8591 -0.20796,-1.15161 -0.23388,-0.29251 -0.61319,-0.40114 -1.05803,-0.4414 -0.444837,-0.0403 -0.951923,-0.0111 -1.484075,0.11917 -0.532153,0.13029 -1.089043,0.36172 -1.56052,0.66615 -0.471477,0.30442 -0.856267,0.68119 -1.185291,0.99451 -0.329023,0.31332 -0.601683,0.56261 -0.823993,0.85118 -0.22231,0.28856 -0.393634,0.61563 -0.569108,0.93149 -0.175474,0.31586 -0.354595,0.61959 -0.518332,0.84576 -0.163737,0.22616 -0.311697,0.37412 -0.486397,0.60753 -0.174701,0.23342 -0.375207,0.55105 -0.606619,0.88017 -0.231411,0.32912 -0.48756,0.66156 -0.735689,0.9428 -0.248129,0.28124 -0.484944,0.50704 -0.749672,0.69459 -0.264727,0.18755 -0.556538,0.3362 -0.862649,0.42723 -0.306111,0.091 -0.625475,0.12406 -0.895802,0.0468 -0.270327,-0.0772 -0.490612,-0.26448 -0.57327,-0.49065 -0.08266,-0.22618 -0.02754,-0.49073 0.107475,-0.73863 0.135019,-0.2479 0.350238,-0.47967 0.628433,-0.68071 0.278194,-0.20103 0.620352,-0.37211 0.986715,-0.48503 0.366362,-0.11291 0.758093,-0.16809 1.11346,-0.16531 0.355367,0.003 0.675319,0.0634 1.014181,0.14611 0.338863,0.0827 0.697385,0.18745 1.060125,0.31381 0.362741,0.12636 0.734145,0.27603 1.108936,0.38901 0.374791,0.11297 0.755267,0.19017 1.207154,0.23425 0.451887,0.0441 0.975815,0.0551 1.493986,-0.0166 0.51817,-0.0717 1.030801,-0.22604 1.455112,-0.49337 0.424311,-0.26733 0.76074,-0.64788 0.90048,-0.95537 0.13975,-0.3075 0.0834,-0.54194 0.003,-0.58063 -0.0799,-0.0387 -0.183165,0.11868 -0.316292,0.28708 -0.133127,0.1684 -0.300947,0.353 -0.546459,0.55439 -0.245511,0.2014 -0.569926,0.42134 -0.906488,0.5566 -0.336562,0.13525 -0.682777,0.18471 -1.0667,0.18199 -0.383923,-0.003 -0.801983,-0.0577 -1.190737,-0.1432 -0.388754,-0.0855 -0.746812,-0.20114 -1.072118,-0.3252 -0.325305,-0.12405 -0.617314,-0.25628 -0.851583,-0.34173 -0.234269,-0.0855 -0.41057,-0.12402 -0.763653,-0.20953 -0.353084,-0.0855 -0.881657,-0.21766 -1.37502,-0.23974 -0.493364,-0.0221 -0.950703,0.0661 -1.427663,0.23698 -0.47696,0.17091 -0.972724,0.4243 -1.331127,0.68891 -0.358402,0.26461 -0.578745,0.54004 -0.763542,0.89303 -0.184797,0.35299 -0.33347,0.78249 -0.330727,1.09965 0.0027,0.31716 0.156966,0.52096 0.458251,0.68659 0.301285,0.16563 0.746231,0.29197 1.1376,0.29742 0.391369,0.005 0.727744,-0.11034 1.028025,-0.25638 0.30028,-0.14603 0.565113,-0.32259 0.870828,-0.55395 0.305715,-0.23136 0.65338,-0.51832 0.975698,-0.8324 0.322319,-0.31407 0.620218,-0.65611 0.837882,-0.91787 0.217664,-0.26176 0.355582,-0.44381 0.534554,-0.66959 0.178972,-0.22577 0.399814,-0.4963 0.600886,-0.78279 0.201071,-0.28648 0.383165,-0.58997 0.545701,-0.85994 0.162536,-0.26998 0.306002,-0.50724 0.537335,-0.79914 0.231334,-0.2919 0.551457,-0.63962 0.887571,-0.97297 0.336115,-0.33334 0.689174,-0.6533 1.022555,-0.87368 0.333382,-0.22037 0.64782,-0.34173 0.909642,-0.43819 0.261823,-0.0965 0.471304,-0.16812 0.779918,-0.1708 0.308614,-0.003 0.713273,0.0629 0.974283,0.27118 0.261,0.20825 0.37013,0.55199 0.21563,0.85856 -0.15449,0.30657 -0.571935,0.57022 -1.016097,0.78213 -0.444161,0.21191 -0.910801,0.36996 -1.259636,0.45139 -0.348835,0.0814 -0.574723,0.0853 -0.691639,0.10725 -0.116915,0.022 -0.120737,0.0622 -0.196382,0.1368 -0.07564,0.0746 -0.225499,0.18554 -0.374167,0.29559 0.252151,-0.0121 0.504583,-0.0243 0.678414,-0.0352 0.17383,-0.011 0.269345,-0.0207 0.316956,-0.0256 0.04761,-0.005 0.04761,-0.005 0.161576,-0.0215 z"
         style="fill:#000000;fill-opacity:1;stroke:#000000;stroke-width:0;stroke-linecap:butt;stroke-linejoin:miter;stroke-miterlimit:4;stroke-dasharray:none;stroke-opacity:1" />
      <ellipse
         ry="0.61973119"
         rx="0.63142425"
         cy="158.82332"
         cx="88.492943"
         id="path4548"
         style="fill:#000000;fill-opacity:1;stroke-width:0;stroke-miterlimit:4;stroke-dasharray:none" />
    </g>
  </g>
</svg>
