<?xml version="1.0" encoding="UTF-8" standalone="no"?>
<!-- Created with Inkscape (http://www.inkscape.org/) -->

<svg
   xmlns:dc="http://purl.org/dc/elements/1.1/"
   xmlns:cc="http://creativecommons.org/ns#"
   xmlns:rdf="http://www.w3.org/1999/02/22-rdf-syntax-ns#"
   xmlns:svg="http://www.w3.org/2000/svg"
   xmlns="http://www.w3.org/2000/svg"
   xmlns:xlink="http://www.w3.org/1999/xlink"
   xmlns:sodipodi="http://sodipodi.sourceforge.net/DTD/sodipodi-0.dtd"
   xmlns:inkscape="http://www.inkscape.org/namespaces/inkscape"
   width="300mm"
   height="297mm"
   viewBox="0 0 300 297"
   version="1.1"
   id="svg8"
   inkscape:version="0.92.4 (unknown)"
   sodipodi:docname="freesystem.svg">
  <defs
     id="defs2">
    <inkscape:path-effect
       only_selected="false"
       apply_with_weight="true"
       apply_no_weight="true"
       helper_size="0"
       steps="2"
       weight="33.333333"
       is_visible="true"
       id="path-effect3416"
       effect="bspline" />
    <linearGradient
       inkscape:collect="always"
       id="linearGradient20590-3">
      <stop
         style="stop-color:#3c268e;stop-opacity:1;"
         offset="0"
         id="stop20586" />
      <stop
         style="stop-color:#3c268e;stop-opacity:0;"
         offset="1"
         id="stop20588" />
    </linearGradient>
    <inkscape:path-effect
       effect="bspline"
       id="path-effect892"
       is_visible="true"
       weight="33.333333"
       steps="2"
       helper_size="0"
       apply_no_weight="true"
       apply_with_weight="true"
       only_selected="false" />
    <inkscape:path-effect
       effect="bspline"
       id="path-effect888"
       is_visible="true"
       weight="33.333333"
       steps="2"
       helper_size="0"
       apply_no_weight="true"
       apply_with_weight="true"
       only_selected="false" />
    <radialGradient
       inkscape:collect="always"
       xlink:href="#linearGradient20590-3"
       id="radialGradient20592"
       cx="45.966675"
       cy="97.704704"
       fx="45.966675"
       fy="97.704704"
       r="37.68362"
       gradientTransform="matrix(1,0,0,0.99067605,0,0.9109941)"
       gradientUnits="userSpaceOnUse" />
    <inkscape:path-effect
       effect="bspline"
       id="path-effect4546"
       is_visible="true"
       weight="33.333333"
       steps="2"
       helper_size="0"
       apply_no_weight="true"
       apply_with_weight="true"
       only_selected="false" />
    <inkscape:path-effect
       effect="bspline"
       id="path-effect4540"
       is_visible="true"
       weight="33.333333"
       steps="2"
       helper_size="0"
       apply_no_weight="true"
       apply_with_weight="true"
       only_selected="false" />
  </defs>
  <sodipodi:namedview
     id="base"
     pagecolor="#ffffff"
     bordercolor="#666666"
     borderopacity="1.0"
     inkscape:pageopacity="0.0"
     inkscape:pageshadow="2"
     inkscape:zoom="0.12374369"
     inkscape:cx="73.565291"
     inkscape:cy="351.01706"
     inkscape:document-units="mm"
     inkscape:current-layer="layer1"
     showgrid="false"
     inkscape:window-width="1366"
     inkscape:window-height="712"
     inkscape:window-x="0"
     inkscape:window-y="27"
     inkscape:window-maximized="1" />
  <metadata
     id="metadata5">
    <rdf:RDF>
      <cc:Work
         rdf:about="">
        <dc:format>image/svg+xml</dc:format>
        <dc:type
           rdf:resource="http://purl.org/dc/dcmitype/StillImage" />
        <dc:title></dc:title>
      </cc:Work>
    </rdf:RDF>
  </metadata>
  <g
     inkscape:label="Camada 1"
     inkscape:groupmode="layer"
     id="layer1">
    <ellipse
       style="fill:#f9f9f9;fill-opacity:1;stroke:#000000;stroke-width:1;stroke-miterlimit:4;stroke-dasharray:none;stroke-opacity:1"
       id="path1103"
       cx="150.73999"
       cy="148.39813"
       rx="146.4637"
       ry="140.04922" />
    <g
       id="g1055"
       transform="matrix(0.96999049,0,0,0.96999049,388.83463,-16.04666)">
      <path
         inkscape:export-ydpi="96"
         inkscape:export-xdpi="96"
         inkscape:export-filename="/home/luiz/capa_clara.png"
         sodipodi:nodetypes="cccccccccccccccccccccccccccccccccccccccccccccc"
         transform="matrix(4.1658244,0,0,4.1658244,-465.29648,-326.3492)"
         inkscape:original-d="m 16.630952,145.05357 c 1.008201,-1.57517 2.016138,-3.15007 3.02381,-4.7247 1.637841,-2.51962 3.276058,-5.03995 4.91369,-7.55953 2.078881,-2.96071 4.158003,-5.92189 6.236607,-8.88244 2.204902,-3.4017 4.409987,-6.80383 6.614583,-10.20535 1.071102,-1.63802 2.14213,-3.40205 3.212798,-5.10268 0.88205,-1.19697 1.764155,-2.39412 2.645834,-3.59078 1.07093,-1.19689 2.14213,-2.39411 3.212798,-3.59077 1.763742,-0.50412 3.528041,-1.0082 5.291667,-1.511906 2.771595,-0.315187 5.543915,-0.630224 8.315475,-0.944938 2.70881,-0.315214 5.417923,-0.630227 8.126487,-0.944941 1.889942,-0.06325 3.780028,-0.126256 5.669642,-0.188989 -1.322459,1.070515 -2.645569,2.141601 -3.96875,3.212794 -1.764009,1.38596 -3.527512,2.77156 -5.291666,4.15774 -1.763917,1.70091 -3.527513,3.40152 -5.291667,5.10268 0.126278,-0.12627 0.252251,-0.25225 0.377978,-0.37798 -1.948513,-2.6e-4 -3.90549,-2.6e-4 -5.858631,0 -1.763863,-0.0633 -3.527512,-0.12625 -5.291667,-0.18898 -1.070821,0.62978 -2.141601,1.25965 -3.212798,1.88988 -0.692894,0.81892 -1.259655,1.76362 -1.889882,2.64583 -0.881978,1.63819 -1.763622,3.27553 -2.645833,4.91369 1.386446,-0.0633 2.77209,-0.12626 4.157739,-0.18899 1.584997,-0.47248 3.060407,-0.91226 4.590456,-1.36828 -0.04364,0.30488 -0.08736,0.60989 -0.131117,0.91484 -0.102922,0.30843 -0.205917,0.61694 -0.30901,0.92562 -0.128372,0.0323 -0.256762,0.0647 -0.38521,0.0971 -0.135529,-0.002 -0.271084,-0.004 -0.406837,-0.005 -0.158207,-0.0704 -0.316251,-0.14056 -0.47454,-0.21077 -0.197928,-0.0716 -0.395762,-0.14318 -0.593805,-0.21469 -0.126721,-0.0995 -0.253432,-0.19885 -0.380286,-0.29821 -0.340138,0.16549 -0.680197,0.33097 -1.020381,0.49655 0.161564,0.47891 0.322961,0.95758 0.484508,1.43694 0.442965,0.33763 0.884893,0.67458 1.327824,1.0124 0.03372,0.0228 0.06736,0.0457 0.100898,0.0687 -0.807402,0.74854 -1.616279,1.49845 -2.424524,2.24778 -0.440912,0.44091 -1.322917,1.32292 -1.322917,1.32292 -1.512546,-0.0633 -3.023544,-0.12626 -4.535715,-0.18899 -0.944832,-0.0633 -1.889614,-0.12626 -2.83482,-0.18899 -0.755885,-0.0633 -1.511641,-0.12626 -2.267857,-0.18899 -0.818944,1.63816 -1.637633,3.27553 -2.456844,4.91369 -1.259901,1.82698 -2.519577,3.65351 -3.779764,5.48066 -0.377774,1.32287 -0.755687,2.64557 -1.133927,3.96875 -0.566835,0.56683 -1.133665,1.13366 -1.700893,1.70089 -1.386295,0.81907 -2.771561,1.63763 -4.157739,2.45685 -1.51198,0.56682 -3.023544,1.13366 -4.535714,1.70089 z"
         inkscape:path-effect="#path-effect892"
         inkscape:connector-curvature="0"
         id="path890"
         d="m 17.13502,144.26596 c 0.504068,-0.7876 1.512005,-2.3625 2.834762,-4.40963 1.322758,-2.04712 2.960972,-4.56745 4.819233,-7.3076 1.858261,-2.74014 3.937386,-5.70132 6.079133,-8.88245 2.141746,-3.18112 4.346832,-6.58325 5.970479,-9.11196 1.623647,-2.52872 2.723074,-4.27486 3.699445,-5.72366 0.97637,-1.4488 1.858478,-2.64594 2.834798,-3.84271 0.976319,-1.19676 2.047518,-2.39398 3.464756,-3.24428 1.417239,-0.85029 3.181537,-1.35438 5.449135,-1.763794 2.267599,-0.409418 5.039919,-0.724454 7.780105,-1.039418 2.740185,-0.314963 5.449298,-0.629977 7.748542,-0.818949 2.299243,-0.188973 4.189329,-0.251976 4.472914,0.251802 0.283584,0.503778 -1.039525,1.574865 -2.58312,2.803439 -1.543595,1.22858 -3.307093,2.61419 -5.07114,4.15772 -1.764047,1.54353 -3.527642,3.24414 -4.346585,4.03158 -0.818943,0.78744 -0.692967,0.66146 -1.60436,0.59859 -0.911392,-0.0629 -2.868369,-0.0629 -4.726876,-0.0944 -1.858508,-0.0315 -3.622156,-0.0945 -5.039614,0.18895 -1.417458,0.28343 -2.488238,0.91331 -3.334568,1.66337 -0.846331,0.75006 -1.484622,1.64366 -2.240748,2.90386 -0.756125,1.26019 -1.63777,2.89753 -1.385598,3.68512 0.252173,0.7876 1.637816,0.72461 3.123138,0.4569 1.485323,-0.26771 2.960734,-0.70749 3.703905,-0.78308 0.743171,-0.0756 0.699456,0.22941 0.626122,0.5361 -0.07334,0.30669 -0.176329,0.6152 -0.292035,0.78572 -0.115706,0.17053 -0.244105,0.20289 -0.376098,0.21825 -0.131993,0.0153 -0.267552,0.0137 -0.414552,-0.0223 -0.147001,-0.036 -0.305031,-0.10617 -0.483128,-0.1771 -0.178098,-0.0709 -0.375949,-0.14246 -0.538347,-0.22796 -0.162399,-0.0855 -0.289103,-0.18487 -0.522565,-0.15183 -0.233461,0.033 -0.573519,0.19853 -0.662874,0.52077 -0.08935,0.32225 0.07204,0.80092 0.37431,1.20943 0.302268,0.40852 0.744196,0.74547 0.982511,0.9258 0.238314,0.18033 0.271951,0.20323 -0.114941,0.58895 -0.386893,0.38571 -1.19577,1.13562 -1.820349,1.73074 -0.624579,0.59512 -1.065613,1.03616 -1.506585,1.47713 -1.512558,-0.063 -3.023556,-0.12598 -4.252062,-0.18898 -1.228506,-0.063 -2.173286,-0.12599 -3.023835,-0.18899 -0.850549,-0.063 -1.606303,-0.12598 -2.393925,0.66156 -0.787623,0.78755 -1.606308,2.42492 -2.64584,4.15749 -1.039532,1.73258 -2.299208,3.55911 -3.118247,5.13412 -0.819039,1.575 -1.196953,2.8977 -1.669402,3.84273 -0.472449,0.94503 -1.039279,1.51186 -2.016019,2.20505 -0.976739,0.69319 -2.362001,1.51175 -3.811077,2.20481 -1.449076,0.69305 -2.960641,1.25989 -3.716754,1.54343 -0.756112,0.28354 -0.756112,0.28324 -0.252044,-0.50437 z"
         style="fill:#000000;stroke:#000000;stroke-width:0;stroke-linecap:butt;stroke-linejoin:miter;stroke-miterlimit:4;stroke-dasharray:none;stroke-opacity:1" />
      <path
         inkscape:export-ydpi="96"
         inkscape:export-xdpi="96"
         inkscape:export-filename="/home/luiz/capa_clara.png"
         sodipodi:nodetypes="cccccccccccccccccccccccccccccccccccccccccccccccccccccccccccccccccccc"
         transform="matrix(4.2148345,0,0,4.2529255,-479.11681,-334.60711)"
         inkscape:original-d="m 82.209822,102.90923 c 0.567226,-0.81922 1.134192,-1.63817 1.700892,-2.45685 0.944856,-1.133775 1.890144,-2.268123 2.83482,-3.401786 1.133909,-0.630065 2.268122,-1.260186 3.401787,-1.889881 0.189199,-0.126223 0.504233,-0.252249 0.755952,-0.377976 -1.383903,-2.65e-4 -2.771561,-2.65e-4 -4.157739,0 -1.196888,0.377782 -2.393585,0.755687 -3.590774,1.133927 -1.764091,0.566851 -3.527513,1.133666 -5.291667,1.700895 -2.015969,0.755822 -4.03148,1.637631 -6.047618,2.456841 -1.196848,0.6928 -2.267593,1.38565 -3.401785,2.07887 -0.885747,0.59995 -1.770973,1.19963 -2.657299,1.80014 -1.130218,0.84888 -2.259948,1.69746 -3.390319,2.54659 -0.911833,1.35292 -1.82322,2.70505 -2.73558,4.05849 -0.455454,0.92581 -0.910825,1.85117 -1.366805,2.7775 0.03487,0.57731 0.06715,1.11277 0.10442,1.73223 0.739531,0.81005 1.32034,1.44635 2.068004,2.26557 0.652091,-0.82163 1.202298,-1.5149 1.803328,-2.27222 0.687065,0.67754 1.374124,1.35521 2.061062,2.03287 -0.205749,0.32047 -0.411565,0.641 -0.617452,0.96161 0.380031,0.17967 0.759981,0.3594 1.139867,0.53919 0.441027,0.18892 0.882208,0.37771 1.322916,0.56696 0.12622,0.44058 0.252249,0.88168 0.377976,1.32292 -0.503901,0.5039 -1.133663,1.00767 -1.700892,1.5119 -0.742111,0.54477 -1.483883,1.0893 -2.226173,1.63423 -0.551473,0.6211 -1.10267,1.24188 -1.654229,1.86306 0.725168,-0.0264 1.450029,-0.0527 2.174973,-0.079 0.400044,0.57111 0.799988,1.14223 1.199918,1.71348 -0.03309,0.58687 -0.06624,1.17377 -0.09945,1.7607 -0.171601,0.30225 -0.343281,0.6046 -0.51502,0.907 -0.725095,0.42851 -1.450343,0.85713 -2.175436,1.28569 -0.780637,-0.47106 -1.561633,-0.94223 -2.342473,-1.4132 0.0055,-0.52888 0.01085,-1.05772 0.01618,-1.58653 -0.244788,-0.19633 -0.489595,-0.39255 -0.734507,-0.58875 -0.456518,-0.56551 -0.913035,-1.13088 -1.369671,-1.69626 -1.288579,1.51379 -2.576878,3.02724 -3.865788,4.5414 -1.070662,0.20483 -2.140748,0.4096 -3.21155,0.61456 -0.441417,-0.7126 -0.882477,-1.42445 -1.324165,-2.13715 -0.141105,0.21783 -0.282207,0.4356 -0.423277,0.65334 -0.467736,0.72195 -0.935273,1.44359 -1.40319,2.16577 l -2.078871,2.07887 c -0.945036,1.26014 -1.889615,2.51958 -2.83482,3.77977 -0.503822,0.56683 -1.007674,1.13366 -1.511906,1.70089 0.693563,0.25184 1.386179,0.5037 2.078871,0.75595 1.19693,-0.0632 2.394111,-0.12625 3.590772,-0.18899 1.511818,-0.12622 3.024076,-0.25225 4.535715,-0.37797 1.4489,-0.50414 2.898081,-1.00821 4.346725,-1.51191 1.322893,-0.69307 2.77209,-1.38617 4.157739,-2.07887 1.574806,-1.00797 3.150066,-2.01614 4.724702,-3.02381 1.637842,-1.13397 3.276058,-2.26812 4.913691,-3.40178 1.133983,-1.071 2.268122,-2.14213 3.401785,-3.2128 0.756036,-0.94498 1.51217,-1.89015 2.267857,-2.83482 -0.125687,-1.2598 -0.251719,-2.52011 -0.377976,-3.77976 -0.50361,-0.75608 -0.881679,-1.51217 -1.322916,-2.26786 -0.944573,-0.3782 -1.889617,-0.75622 -2.834823,-1.13393 -1.196832,-0.18928 -2.393582,-0.37824 -3.590771,-0.56696 -1.19688,0.12575 -2.393585,0.25172 -3.590774,0.37797 -0.566838,-0.1893 -1.133666,-0.37824 -1.700893,-0.56696 -0.188777,-0.56739 -0.377714,-1.13419 -0.566965,-1.70089 0.441113,-0.56708 0.882208,-1.1342 1.322917,-1.7009 0.441007,-0.69286 1.0082,-1.38618 1.511903,-2.07887 0.88183,-0.75589 1.764154,-1.51217 2.645833,-2.26785 0.881928,-0.693 1.764155,-1.38618 2.645834,-2.07887 1.007869,-0.63002 1.890146,-1.26019 2.834822,-1.88988 1.385729,-0.31515 2.77209,-0.63023 4.157739,-0.94494 0.667634,-0.10713 1.335299,-0.21404 2.002554,-0.32066 0.852296,-0.008 1.704323,-0.0156 2.556087,-0.0229 0.685579,0.17726 1.37089,0.35478 2.055943,0.53257 z"
         inkscape:path-effect="#path-effect888"
         inkscape:connector-curvature="0"
         id="path886"
         d="m 82.49341,102.4996 c 0.283587,-0.40963 0.850552,-1.22858 1.606343,-2.2048 0.755791,-0.976217 1.70108,-2.110564 2.74041,-2.992373 1.039329,-0.88181 2.173543,-1.511928 2.841275,-1.877283 0.667731,-0.365355 0.970169,-0.516574 0.40405,-0.579491 -0.566118,-0.06292 -1.953776,-0.06292 -3.245283,0.126058 -1.291507,0.188974 -2.488204,0.566877 -3.968844,1.039422 -1.48064,0.472544 -3.244062,1.039359 -5.123137,1.727912 -1.879075,0.688552 -3.916557,1.516278 -5.514488,2.286275 -1.597931,0.76999 -2.685809,1.4348 -3.695781,2.08138 -1.009973,0.64658 -1.895199,1.24626 -2.903474,1.97095 -1.008276,0.72468 -2.138005,1.57326 -3.159154,2.67425 -1.021148,1.10098 -1.932536,2.45311 -2.616467,3.59273 -0.683932,1.13962 -1.139301,2.06498 -1.349836,2.81683 -0.210536,0.75184 -0.178258,1.2873 0.210145,2.00209 0.388403,0.71478 0.969214,1.35108 1.66912,1.34984 0.699906,-0.001 1.250114,-0.69451 1.894133,-0.73436 0.644018,-0.0399 1.331082,0.63781 1.571697,1.13684 0.240615,0.49903 0.0348,0.81956 0.121863,1.06974 0.08706,0.25019 0.467012,0.42992 0.87747,0.61427 0.410458,0.18436 0.851536,0.37339 1.13491,0.68819 0.283375,0.3148 0.409404,0.7559 0.206574,1.21279 -0.202831,0.45688 -0.804777,0.99195 -1.459451,1.51644 -0.654674,0.5245 -1.396444,1.06903 -2.043332,1.65204 -0.646887,0.58301 -1.198084,1.20379 -1.111276,1.50121 0.08681,0.29742 0.811667,0.27109 1.374125,0.54351 0.562458,0.27241 0.962402,0.84353 1.145828,1.42256 0.183427,0.57904 0.150277,1.16594 0.04789,1.61052 -0.102386,0.44459 -0.274068,0.74694 -0.722469,1.11241 -0.448402,0.36547 -1.173648,0.79409 -1.926542,0.77287 -0.752895,-0.0212 -1.533891,-0.49239 -1.921591,-0.99236 -0.387699,-0.49996 -0.382306,-1.0288 -0.502032,-1.39133 -0.119727,-0.36254 -0.36453,-0.55876 -0.715252,-0.93962 -0.350722,-0.38087 -0.807238,-0.94624 -1.679815,-0.47206 -0.872576,0.47418 -2.160874,1.98763 -3.340653,2.84715 -1.17978,0.85952 -2.249865,1.06429 -3.006018,0.81047 -0.756152,-0.25382 -1.197211,-0.96567 -1.488577,-1.21314 -0.291366,-0.24746 -0.432457,-0.0297 -0.736862,0.44016 -0.304406,0.46984 -0.77195,1.19148 -1.005901,1.55258 -0.233951,0.36109 -2.312822,2.43996 -2.785361,3.07001 -0.47254,0.63006 -1.417118,1.8895 -2.141618,2.80302 -0.724501,0.91352 -1.228352,1.48035 -1.133737,1.89005 0.09461,0.4097 0.78723,0.66156 1.732105,0.75603 0.944875,0.0945 2.142058,0.0314 3.496301,-0.063 1.354243,-0.0945 2.866502,-0.2205 4.346788,-0.53548 1.480286,-0.31498 2.929468,-0.81904 4.321534,-1.40486 1.392065,-0.58581 2.828663,-1.30411 4.308887,-2.15446 1.480224,-0.85035 3.055485,-1.85852 4.661721,-2.92935 1.606236,-1.07082 3.244453,-2.20497 4.630245,-3.30733 1.385793,-1.10235 2.51993,-2.17348 3.464761,-3.18132 0.94483,-1.00785 1.700966,-1.95301 2.015836,-3.05522 0.31487,-1.10221 0.188839,-2.36252 -0.10261,-3.38402 -0.291449,-1.02149 -0.71651,-1.75017 -1.409323,-2.31704 -0.692813,-0.56688 -1.637858,-0.9449 -2.708836,-1.2284 -1.070978,-0.28351 -2.267729,-0.47247 -3.464727,-0.50399 -1.196999,-0.0315 -2.393704,0.0944 -3.275783,0.063 -0.882079,-0.0315 -1.448906,-0.22042 -1.827014,-0.59858 -0.378108,-0.37816 -0.567042,-0.94496 -0.44097,-1.51192 0.126072,-0.56696 0.567165,-1.13408 1.028607,-1.74889 0.461443,-0.6148 0.987456,-1.33807 1.680255,-2.06234 0.692799,-0.72426 1.575125,-1.48054 2.456932,-2.20487 0.881806,-0.72434 1.764034,-1.41751 2.699127,-2.09339 0.935092,-0.67587 1.836747,-1.27698 3.001951,-1.74933 1.165204,-0.47235 2.551564,-0.78743 3.578201,-0.99834 1.026636,-0.21091 1.694301,-0.31782 2.454061,-0.37506 0.759759,-0.0572 1.611786,-0.0649 2.380416,0.0201 0.768629,0.085 1.45394,0.26249 1.796507,0.35123 0.342567,0.0887 0.342557,0.0888 0.626145,-0.32086 z"
         style="fill:#000000;stroke:#000000;stroke-width:0;stroke-linecap:butt;stroke-linejoin:miter;stroke-miterlimit:4;stroke-dasharray:none;stroke-opacity:1" />
      <path
         inkscape:connector-curvature="0"
         inkscape:export-ydpi="96"
         inkscape:export-xdpi="96"
         inkscape:export-filename="/home/luiz/capa_clara.png"
         id="rect20575"
         d="m -216.8544,160.21508 v 0.002 c -0.2612,0.0208 -2.19051,1.23764 -4.28863,2.70526 l -3.81527,2.66702 0.0563,0.79582 c 0.0558,0.78213 -0.0891,0.93251 -8.9886,9.25525 l -4.14393,3.87521 c 0.51906,0.53412 1.10655,1.1364 1.66088,1.70532 l 4.78007,-4.47053 c 8.681,-8.11811 9.72271,-9.16228 9.77666,-9.80715 0.0542,-0.64641 0.30321,-0.89576 2.38849,-2.38538 l 2.32854,-1.66347 0.96531,1.03095 0.96377,1.03249 -1.81488,2.21072 c -1.62588,1.98084 -1.89024,2.21185 -2.53886,2.22364 -0.64703,0.008 -1.76069,0.98008 -10.44174,9.09815 l -4.74286,4.4359 c 0.55992,0.57345 1.07121,1.09877 1.66501,1.70584 l 4.0349,-3.77289 c 8.89991,-8.32423 9.05787,-8.45889 9.83454,-8.35092 l 0.79013,0.10956 2.91714,-3.62614 c 1.60471,-1.9951 2.94951,-3.83989 2.98741,-4.09897 0.0958,-0.65409 -3.71393,-4.72718 -4.37441,-4.67723 z m -36.61482,25.70489 c -0.52514,0.57688 -0.85572,1.0113 -0.83147,1.1529 0.0417,0.23787 0.33192,1.02003 0.64802,1.73839 0.52593,1.19534 0.51263,1.36337 -0.14986,1.98283 -0.66237,0.61758 -0.831,0.61979 -1.98851,0.0165 -0.69557,-0.36326 -1.45502,-0.7074 -1.6893,-0.76377 -0.67228,-0.16205 -12.67644,11.15139 -13.71906,12.92996 -1.64634,2.80838 -1.80229,5.82162 -0.46044,8.91987 1.82071,4.20381 6.98614,6.39565 11.56984,4.91029 l 1.74769,-0.56689 6.6735,-6.11539 c 4.63534,-4.2484 6.67824,-6.25863 6.69003,-6.58048 0.008,-0.25495 -0.25792,-1.0697 -0.5948,-1.81022 -0.56572,-1.24395 -0.55736,-1.3984 0.11111,-2.02365 0.6624,-0.61917 0.83154,-0.61988 1.98902,-0.0165 0.69557,0.36326 1.45507,0.70634 1.68931,0.76275 0.16329,0.0393 0.76387,-0.38472 1.53427,-1.02061 -5.03238,-5.12577 -10.09902,-10.30091 -13.21935,-13.51597 z"
         style="fill:#000000;fill-opacity:0.99212599;stroke:#b5b5b4;stroke-width:0;stroke-linecap:round;stroke-linejoin:round;stroke-miterlimit:4;stroke-dasharray:none;stroke-opacity:1" />
      <path
         inkscape:export-ydpi="96"
         inkscape:export-xdpi="96"
         inkscape:export-filename="/home/luiz/capa_clara.png"
         sodipodi:nodetypes="cccccccccccccsscccccccsccccccccscccccsccccccccccscccccccccc"
         inkscape:connector-curvature="0"
         id="path1038"
         d="m -222.37794,217.33907 c -1.71128,-0.79767 -3.23368,-2.22396 -4.1063,-3.84701 -0.89615,-1.66703 -0.94934,-5.93301 -0.0942,-7.54968 3.14904,-5.95267 11.29789,-6.11176 14.52333,-0.28369 0.79646,1.43904 0.92438,1.99022 0.92443,3.98136 8e-5,3.38245 -1.27379,5.64785 -4.1155,7.31923 -1.89557,1.1149 -5.17946,1.28966 -7.13186,0.37992 z m 6.99338,-2.59381 c 0.77985,-0.1712 1.02146,-0.41408 1.1908,-1.1963 0.11665,-0.53972 0.48677,-1.36935 0.822,-1.84357 0.48574,-0.6872 0.55968,-1.09378 0.36409,-2.00298 -0.13496,-0.62742 -0.20953,-1.57464 -0.1658,-2.10491 0.0671,-0.81163 -0.0942,-1.07132 -1.01891,-1.64283 -0.60409,-0.37367 -1.09836,-0.80617 -1.09836,-0.96188 0,-0.55206 -1.22234,-1.50016 -1.6985,-1.31749 -0.2641,0.1016 -1.10698,0.008 -1.87341,-0.20621 -1.2839,-0.35952 -1.46479,-0.33785 -2.29766,0.27786 -0.49727,0.36785 -1.32061,0.75177 -1.82972,0.85354 -0.74967,0.14997 -0.98475,0.40491 -1.23645,1.33927 -0.1708,0.63487 -0.59463,1.51502 -0.94156,1.95606 -0.49457,0.62879 -0.56089,0.93244 -0.30743,1.40668 0.17829,0.33242 0.32368,1.17154 0.32368,1.8642 0,1.10936 0.19829,1.46062 1.66141,2.94765 1.42563,1.44863 1.83022,1.69129 2.85039,1.70987 0.6539,0.008 1.46624,0.13413 1.80521,0.27203 0.44041,0.17912 0.88108,0.0524 1.54381,-0.44333 0.5102,-0.38159 1.36776,-0.79026 1.90586,-0.90844 z m -14.07587,-8.44007 c -0.64215,-1.08367 -3.63655,-4.3882 -7.8677,-8.68275 -3.75703,-3.8134 -8.73727,-8.90099 -11.06726,-11.30592 -2.32998,-2.40494 -4.76478,-4.63403 -5.41065,-4.95363 l -1.17438,-0.58105 1.41058,-1.05524 c 1.53857,-1.15098 3.43389,-3.70408 4.06689,-5.47827 1.03299,-2.89528 0.88028,-2.80572 1.71452,-1.00513 0.59968,1.29433 3.04239,3.96345 12.03903,13.15505 7.054,7.20687 11.96167,11.97229 13.08644,12.70718 l 1.79967,1.17593 -1.14247,0.40909 c -2.78656,0.9975 -4.91925,3.1089 -5.87153,5.8129 l -0.54638,1.55147 z m -32.82269,-26.67824 c -2.00031,-0.63267 -3.252,-1.39851 -5.02307,-3.07351 -1.61638,-1.52873 -3.6548,-4.77332 -2.78485,-4.43268 0.22704,0.0883 2.04608,0.80167 4.04289,1.58418 1.99676,0.78246 3.97236,1.42263 4.3902,1.42263 0.97888,0 3.07712,-1.88925 3.91229,-3.5227 1.44233,-2.82089 1.80792,-5.68973 0.95434,-7.48858 -0.55958,-1.17913 -0.82145,-1.32252 -6.10226,-3.3399 l -3.07562,-1.17502 1.38084,-0.60975 c 2.13469,-0.94272 5.82882,-1.0395 8.26138,-0.21662 3.7829,1.27995 5.33487,2.79481 6.34379,6.19229 1.55544,5.23769 -1.22701,12.55284 -5.52072,14.51402 -1.45849,0.6662 -4.89926,0.74006 -6.77921,0.1458 z"
         style="fill:#000000;stroke:#342865;stroke-width:0;stroke-miterlimit:4;stroke-dasharray:none;stroke-opacity:1" />
    </g>
  </g>
</svg>
