<?xml version="1.0" encoding="UTF-8" standalone="no"?>
<!-- Created with Inkscape (http://www.inkscape.org/) -->

<svg
   xmlns:dc="http://purl.org/dc/elements/1.1/"
   xmlns:cc="http://creativecommons.org/ns#"
   xmlns:rdf="http://www.w3.org/1999/02/22-rdf-syntax-ns#"
   xmlns:svg="http://www.w3.org/2000/svg"
   xmlns="http://www.w3.org/2000/svg"
   xmlns:xlink="http://www.w3.org/1999/xlink"
   xmlns:sodipodi="http://sodipodi.sourceforge.net/DTD/sodipodi-0.dtd"
   xmlns:inkscape="http://www.inkscape.org/namespaces/inkscape"
   width="150mm"
   height="150mm"
   viewBox="0 0 150 150"
   version="1.1"
   id="svg8"
   sodipodi:docname="oinc.svg"
   inkscape:version="0.92.4 (unknown)">
  <defs
     id="defs2">
    <linearGradient
       inkscape:collect="always"
       id="linearGradient6411">
      <stop
         style="stop-color:#164b92;stop-opacity:1;"
         offset="0"
         id="stop6420" />
      <stop
         style="stop-color:#0d2c54;stop-opacity:1"
         offset="1"
         id="stop6422" />
    </linearGradient>
    <linearGradient
       inkscape:collect="always"
       xlink:href="#linearGradient6411"
       id="linearGradient6413"
       x1="23.812496"
       y1="127.66666"
       x2="102.92291"
       y2="106.5"
       gradientUnits="userSpaceOnUse"
       gradientTransform="matrix(1.2421984,0,0,1.2421984,-8.0449896,74.560211)" />
  </defs>
  <sodipodi:namedview
     id="base"
     pagecolor="#ffffff"
     bordercolor="#666666"
     borderopacity="1.0"
     inkscape:pageopacity="0.0"
     inkscape:pageshadow="2"
     inkscape:zoom="0.50000001"
     inkscape:cx="-27.649232"
     inkscape:cy="167.48198"
     inkscape:document-units="mm"
     inkscape:current-layer="layer1"
     showgrid="false"
     inkscape:snap-global="true"
     inkscape:window-width="1366"
     inkscape:window-height="712"
     inkscape:window-x="0"
     inkscape:window-y="27"
     inkscape:window-maximized="1" />
  <metadata
     id="metadata5">
    <rdf:RDF>
      <cc:Work
         rdf:about="">
        <dc:format>image/svg+xml</dc:format>
        <dc:type
           rdf:resource="http://purl.org/dc/dcmitype/StillImage" />
        <dc:title></dc:title>
      </cc:Work>
    </rdf:RDF>
  </metadata>
  <g
     inkscape:label="Camada 1"
     inkscape:groupmode="layer"
     id="layer1"
     transform="translate(0,-147)">
    <rect
       id="rect10-3"
       width="127.03699"
       height="124.21985"
       x="3.3623638"
       y="158.9628"
       style="fill:url(#linearGradient6413);fill-opacity:1;stroke-width:0.32866502"
       ry="22.57613" />
    <path
       style="fill:#f9f9f9;fill-opacity:1;stroke-width:0.32866502"
       d="m 77.691651,158.96291 a 101.86027,101.86027 0 0 0 -8.854696,41.35082 101.86027,101.86027 0 0 0 42.766885,82.86916 h 11.66893 c 12.50721,0 22.57587,-10.06866 22.57587,-22.57584 v -79.06767 c 0,-12.50717 -10.06866,-22.57647 -22.57587,-22.57647 z"
       id="rect10"
       inkscape:connector-curvature="0" />
    <g
       aria-label="3"
       transform="matrix(1.1918072,0,0,1.2947204,-8.0449896,74.560213)"
       style="font-style:normal;font-variant:normal;font-weight:normal;font-stretch:normal;font-size:76.57011414px;line-height:1.25;font-family:'SF Pro Text';-inkscape-font-specification:'SF Pro Text, Normal';font-variant-ligatures:normal;font-variant-caps:normal;font-variant-numeric:normal;font-feature-settings:normal;text-align:start;letter-spacing:0px;word-spacing:0px;writing-mode:lr-tb;text-anchor:start;fill:#ffffff;fill-opacity:1;stroke:none;stroke-width:1.9142884"
       id="text5999">
      <path
         d="m 47.323959,108.40222 q 5.421224,1.15902 8.449632,4.82302 3.065795,3.664 3.065795,9.04784 0,8.26269 -5.682938,12.78661 -5.682938,4.52391 -16.151508,4.52391 -3.514449,0 -7.253224,-0.71036 -3.701387,-0.67298 -7.664489,-2.05633 v -7.29061 q 3.140571,1.832 6.879346,2.76669 3.738775,0.9347 7.81404,0.9347 7.103673,0 10.80506,-2.80409 3.738775,-2.80408 3.738775,-8.15052 0,-4.93519 -3.477061,-7.70188 -3.439673,-2.80408 -9.608652,-2.80408 h -6.505468 v -6.20637 h 6.80457 q 5.570775,0 8.524408,-2.20588 2.953632,-2.24326 2.953632,-6.43069 0,-4.299591 -3.065796,-6.580244 -3.028407,-2.318041 -8.711346,-2.318041 -3.103183,0 -6.655019,0.67298 -3.551837,0.672979 -7.81404,2.093714 v -6.729795 q 4.299591,-1.196408 8.038366,-1.794612 3.776163,-0.598204 7.103673,-0.598204 8.599183,0 13.609141,3.925713 5.009959,3.888327 5.009959,10.543346 0,4.636083 -2.65453,7.851423 -2.654531,3.17796 -7.552326,4.41176 z"
         style="font-style:normal;font-variant:normal;font-weight:normal;font-stretch:normal;font-size:76.57011414px;font-family:'SF Pro Text';-inkscape-font-specification:'SF Pro Text, Normal';font-variant-ligatures:normal;font-variant-caps:normal;font-variant-numeric:normal;font-feature-settings:normal;text-align:start;writing-mode:lr-tb;text-anchor:start;fill:#ffffff;stroke-width:1.9142884"
         id="path1431"
         inkscape:connector-curvature="0" />
    </g>
    <path
       style="fill:#0ca147;fill-opacity:1;stroke:#000000;stroke-width:0;stroke-linecap:butt;stroke-linejoin:miter;stroke-miterlimit:4;stroke-dasharray:none;stroke-opacity:1"
       d="m 80.105111,203.07983 c 13.851661,-7.68373 24.410539,-16.33048 45.233299,-25.36749 -9.66679,20.65212 -19.42825,46.03317 -5.85007,82.27987 -11.76671,-21.2304 -17.64125,-43.38855 -6.32631,-71.17368 -7.33036,3.18755 -8.61922,2.70102 -33.056919,14.2613 z"
       id="path6450"
       inkscape:connector-curvature="0"
       sodipodi:nodetypes="ccccc" />
  </g>
</svg>
