<?xml version="1.0" encoding="UTF-8" standalone="no"?>
<!-- Created with Inkscape (http://www.inkscape.org/) -->

<svg
   xmlns:dc="http://purl.org/dc/elements/1.1/"
   xmlns:cc="http://creativecommons.org/ns#"
   xmlns:rdf="http://www.w3.org/1999/02/22-rdf-syntax-ns#"
   xmlns:svg="http://www.w3.org/2000/svg"
   xmlns="http://www.w3.org/2000/svg"
   xmlns:sodipodi="http://sodipodi.sourceforge.net/DTD/sodipodi-0.dtd"
   xmlns:inkscape="http://www.inkscape.org/namespaces/inkscape"
   width="300mm"
   height="300mm"
   viewBox="0 0 300 300"
   version="1.1"
   id="svg8"
   inkscape:version="0.92.4 (unknown)"
   sodipodi:docname="psg.svg"
   inkscape:export-filename="/media/luiz/8C6E49DB6E49BF28/PROJETOS/portalsg_design/logov0.png"
   inkscape:export-xdpi="96"
   inkscape:export-ydpi="96">
  <defs
     id="defs2">
    <inkscape:path-effect
       effect="bspline"
       id="path-effect995"
       is_visible="true"
       weight="33.333333"
       steps="2"
       helper_size="0"
       apply_no_weight="true"
       apply_with_weight="true"
       only_selected="false" />
    <inkscape:path-effect
       only_selected="false"
       apply_with_weight="true"
       apply_no_weight="true"
       helper_size="0"
       steps="2"
       weight="33.333333"
       is_visible="true"
       id="path-effect991"
       effect="bspline" />
    <inkscape:path-effect
       effect="bspline"
       id="path-effect987"
       is_visible="true"
       weight="33.333333"
       steps="2"
       helper_size="0"
       apply_no_weight="true"
       apply_with_weight="true"
       only_selected="false" />
    <inkscape:path-effect
       effect="bspline"
       id="path-effect978"
       is_visible="true"
       weight="33.333333"
       steps="2"
       helper_size="0"
       apply_no_weight="true"
       apply_with_weight="true"
       only_selected="false" />
    <inkscape:path-effect
       only_selected="false"
       apply_with_weight="true"
       apply_no_weight="true"
       helper_size="0"
       steps="2"
       weight="33.333333"
       is_visible="true"
       id="path-effect974"
       effect="bspline" />
    <inkscape:path-effect
       effect="bspline"
       id="path-effect970"
       is_visible="true"
       weight="33.333333"
       steps="2"
       helper_size="0"
       apply_no_weight="true"
       apply_with_weight="true"
       only_selected="false" />
    <inkscape:path-effect
       only_selected="false"
       apply_with_weight="true"
       apply_no_weight="true"
       helper_size="0"
       steps="2"
       weight="33.333333"
       is_visible="true"
       id="path-effect951"
       effect="bspline" />
    <inkscape:path-effect
       effect="bspline"
       id="path-effect1208"
       is_visible="true"
       weight="33.333333"
       steps="2"
       helper_size="0"
       apply_no_weight="true"
       apply_with_weight="true"
       only_selected="false" />
    <inkscape:path-effect
       effect="bspline"
       id="path-effect962"
       is_visible="true"
       weight="33.333333"
       steps="2"
       helper_size="0"
       apply_no_weight="true"
       apply_with_weight="true"
       only_selected="false" />
    <inkscape:path-effect
       effect="bspline"
       id="path-effect958"
       is_visible="true"
       weight="33.333333"
       steps="2"
       helper_size="0"
       apply_no_weight="true"
       apply_with_weight="true"
       only_selected="false" />
    <inkscape:path-effect
       only_selected="false"
       apply_with_weight="true"
       apply_no_weight="true"
       helper_size="0"
       steps="2"
       weight="33.333333"
       is_visible="true"
       id="path-effect950"
       effect="bspline" />
    <inkscape:path-effect
       effect="bspline"
       id="path-effect946"
       is_visible="true"
       weight="33.333333"
       steps="2"
       helper_size="0"
       apply_no_weight="true"
       apply_with_weight="true"
       only_selected="false" />
    <clipPath
       clipPathUnits="userSpaceOnUse"
       id="clipPath1210">
      <path
         style="fill:#000080;stroke:#000000;stroke-width:0;stroke-linecap:butt;stroke-linejoin:miter;stroke-miterlimit:4;stroke-dasharray:none;stroke-opacity:1"
         d="m 227.477,280.54887 c -0.003,-1.03301 -0.008,-3.0988 -0.0167,-4.14554 -0.008,-1.04674 -0.0195,-1.07462 -0.20856,-1.14126 -0.18902,-0.0666 -0.55685,-0.17253 -1.0526,-0.38977 -0.49574,-0.21723 -1.11907,-0.5456 -1.60356,-0.85467 -0.48449,-0.30907 -0.82965,-0.59856 -1.21112,-1.0385 -0.38147,-0.43994 -0.79905,-1.03012 -1.08024,-1.61481 -0.28118,-0.58469 -0.42597,-1.16384 -0.55402,-1.6482 -0.12805,-0.48435 -0.23945,-0.87424 -0.40475,-1.29675 -0.1653,-0.42252 -0.38038,-0.86922 -0.5307,-1.26454 -0.15032,-0.39533 -0.23387,-0.73509 -0.28118,-0.96895 -0.0473,-0.23385 -0.0584,-0.36197 0.0999,-0.21471 0.15839,0.14726 0.48752,0.57122 0.89685,0.93599 0.40933,0.36477 0.89927,0.67098 1.43934,1.00226 0.54007,0.33128 1.13037,0.68768 1.60921,0.97721 0.47884,0.28953 0.84638,0.51229 1.21381,0.77673 0.36743,0.26444 0.735,0.57075 1.00223,0.8658 0.26722,0.29505 0.43429,0.57905 0.52911,0.71542 0.0948,0.13638 0.1171,0.12524 0.13359,-0.50333 0.0165,-0.62858 0.0277,-1.89947 0.0291,-2.53276 0.001,-0.63328 -0.001,-0.63598 -0.0791,-0.61931 -0.0778,0.0167 -0.22813,0.0557 -0.41223,0.005 -0.18409,-0.0502 -0.4008,-0.18911 -0.54007,-0.35629 -0.13927,-0.16718 -0.2005,-0.36199 -0.22272,-0.50683 -0.0222,-0.14483 -0.006,-0.2395 -0.18313,-0.45041 -0.17761,-0.21091 -0.55186,-0.54047 -1.09201,-1.1558 -0.54014,-0.61532 -1.24726,-1.51731 -1.73169,-2.23284 -0.48444,-0.71553 -0.74615,-1.24452 -0.95772,-1.7846 -0.21157,-0.54009 -0.37308,-1.09144 -0.46771,-1.60646 -0.0946,-0.51502 -0.12247,-0.99402 -0.1169,-1.21663 0.006,-0.22261 0.0446,-0.18915 0.0919,-0.0752 0.0473,0.11399 0.10298,0.30898 0.24509,0.5319 0.14211,0.22292 0.3702,0.47326 0.70992,0.70994 0.33972,0.23669 0.79072,0.4594 1.23335,0.65426 0.44263,0.19487 0.87705,0.36195 1.20828,0.51226 0.33124,0.15032 0.55961,0.284 0.77949,0.43429 0.21987,0.1503 0.43154,0.31741 0.58184,0.45378 0.15029,0.13638 0.23941,0.24221 0.29237,0.26709 0.053,0.0249 0.0696,-0.0308 0.0724,-0.11945 0.003,-0.0887 -0.008,-0.21189 0.0361,-0.34264 0.0446,-0.13074 0.14499,-0.27021 0.24238,-0.35918 0.0974,-0.089 0.19225,-0.12802 0.23384,-0.15861 0.0416,-0.0306 0.0304,-0.0529 0.0304,-0.21374 0,-0.16084 0.0112,-0.46295 -0.0112,-0.60297 -0.0224,-0.14002 -0.0886,-0.11596 -0.20883,-0.10756 -0.12021,0.008 -0.29746,0.003 -0.4703,-0.0668 -0.17285,-0.0697 -0.33965,-0.20314 -0.46499,-0.36193 -0.12534,-0.15879 -0.20884,-0.34249 -0.24778,-0.50956 -0.0389,-0.16707 -0.0334,-0.3175 4e-5,-0.45939 0.0334,-0.14188 0.0948,-0.27576 0.12834,-0.34542 0.0335,-0.0697 0.0389,-0.0751 -0.0891,-0.15506 -0.12804,-0.08 -0.41224,-0.2482 -0.83275,-0.59073 -0.42051,-0.34254 -0.98829,-0.86579 -1.40314,-1.31406 -0.41486,-0.44826 -0.67655,-0.82132 -0.86865,-1.19441 -0.1921,-0.37309 -0.31462,-0.74621 -0.37305,-1.03576 -0.0584,-0.28956 -0.0529,-0.49567 -0.14187,-0.82938 -0.089,-0.33371 -0.27299,-0.79648 -0.37597,-1.20852 -0.10299,-0.41204 -0.12526,-0.77407 -0.11971,-0.93824 0.006,-0.16417 0.0391,-0.13067 0.20538,0.11472 0.16634,0.24539 0.45723,0.68996 0.71063,0.99905 0.2534,0.30909 0.46496,0.4761 0.77122,0.64315 0.30627,0.16704 0.70724,0.33411 1.0496,0.50112 0.34237,0.16702 0.62644,0.33411 0.86302,0.5039 0.23658,0.16978 0.42595,0.34245 0.53162,0.42507 0.10568,0.0826 0.11738,0.0787 0.0955,-0.0579 -0.0219,-0.13665 -0.0843,-0.41468 -0.0926,-0.83213 -0.008,-0.41745 0.0362,-0.98024 0.15038,-1.56753 0.11413,-0.5873 0.29797,-1.2001 0.55127,-1.85139 0.25329,-0.6513 0.57641,-1.34209 0.79911,-1.80141 0.22271,-0.45932 0.34527,-0.68772 0.40921,-0.77399 0.0639,-0.0863 0.0695,-0.0306 0.12018,0.34949 0.0507,0.38008 0.1442,1.06765 0.27785,1.6914 0.13365,0.62375 0.30621,1.17481 0.44264,1.64536 0.13644,0.47056 0.23663,0.86021 0.32357,1.21372 0.0869,0.3535 0.15807,0.65988 0.18315,1.02746 0.0251,0.36759 0.003,0.79051 -0.006,1.01056 -0.008,0.22005 -0.003,0.23661 0.17716,0.0791 0.18002,-0.1575 0.52748,-0.4829 1.03234,-0.82859 0.50485,-0.34569 1.16005,-0.7066 1.62802,-0.93702 0.46798,-0.23042 0.74718,-0.32949 1.10103,-0.4183 0.35385,-0.0888 0.78351,-0.16765 1.05512,-0.21094 0.27162,-0.0433 0.38589,-0.0511 0.4273,-0.0473 0.0414,0.004 0.01,0.0196 -0.16702,0.19054 -0.17687,0.1709 -0.49257,0.4905 -0.72891,0.778 -0.23633,0.28751 -0.38976,0.53928 -0.52964,0.82295 -0.13988,0.28367 -0.26572,0.59827 -0.38982,0.94494 -0.12409,0.34667 -0.24602,0.72426 -0.38188,1.03344 -0.13585,0.30918 -0.28534,0.54915 -0.48232,0.78359 -0.19698,0.23444 -0.44078,0.4625 -0.78749,0.73043 -0.34671,0.26793 -0.79506,0.5747 -1.07661,0.75389 -0.28155,0.1792 -0.39564,0.23034 -0.43514,0.33685 -0.0395,0.10651 -0.004,0.26747 -0.0297,0.44866 -0.0256,0.18119 -0.11206,0.38173 -0.21051,0.53145 -0.0984,0.14973 -0.20851,0.24801 -0.32874,0.319 -0.12022,0.071 -0.24982,0.1142 -0.39772,0.12605 -0.1479,0.0118 -0.31286,-0.008 -0.435,-0.0295 -0.12215,-0.0217 -0.20078,-0.0453 -0.24024,0.0572 -0.0395,0.10245 -0.0395,0.33032 -0.0493,0.55092 -0.01,0.22059 -0.0295,0.43295 0.006,0.56111 0.0355,0.12815 0.12597,0.17141 0.2105,0.24807 0.0845,0.0767 0.16339,0.18704 0.21065,0.28736 0.0473,0.10032 0.063,0.19087 0.10262,0.23428 0.0396,0.0434 0.10246,0.0395 0.19466,0.0591 0.0922,0.0196 0.2148,0.0631 0.30128,0.13975 0.0865,0.0766 0.13772,0.187 0.16934,0.24818 0.0316,0.0612 0.0433,0.0728 0.12018,0.0412 0.0769,-0.0316 0.21863,-0.10642 0.47563,-0.24877 0.257,-0.14236 0.62495,-0.34982 1.048,-0.54067 0.42305,-0.19085 0.89987,-0.36424 1.38005,-0.54529 0.48019,-0.18106 0.96479,-0.37018 1.30529,-0.53751 0.34049,-0.16733 0.53748,-0.3131 0.71451,-0.48819 0.17702,-0.17509 0.33475,-0.38014 0.41729,-0.46279 0.0825,-0.0827 0.0904,-0.0432 0.0568,0.11293 -0.0336,0.15615 -0.10803,0.42642 -0.19667,0.75344 -0.0887,0.32701 -0.19091,0.70848 -0.33073,1.12798 -0.13983,0.41951 -0.31686,0.87586 -0.56696,1.40169 -0.25011,0.52583 -0.57274,1.11994 -0.887,1.60928 -0.31427,0.48935 -0.62273,0.8769 -0.95662,1.23434 -0.33389,0.35745 -0.68976,0.68203 -1.08364,0.96171 -0.39388,0.27967 -0.8227,0.51178 -1.05314,0.6712 -0.23043,0.15941 -0.26191,0.24596 -0.31713,0.34264 -0.0552,0.0967 -0.13369,0.2026 -0.24209,0.27953 -0.10841,0.0769 -0.24582,0.12405 -0.39566,0.14575 -0.14984,0.0217 -0.31089,0.0177 -0.42883,-7.3e-4 -0.11793,-0.0185 -0.18538,-0.0485 -0.21891,-0.0407 -0.0335,0.008 -0.0296,0.0549 -0.0355,0.33178 -0.006,0.2769 -0.0216,0.77828 -0.0294,1.42422 -0.008,0.64593 -0.008,1.43295 0.002,1.8347 0.01,0.40175 0.0295,0.41745 0.0847,0.43521 0.0552,0.0177 0.14588,0.0375 0.23034,0.0807 0.0845,0.0432 0.16341,0.11033 0.22245,0.1674 0.059,0.0571 0.0984,0.1043 0.13105,0.11499 0.0327,0.0107 0.0543,-0.0109 0.0914,-0.0305 0.0372,-0.0195 0.0889,-0.0355 0.13405,-0.063 0.0451,-0.0275 0.0847,-0.0671 0.12585,-0.15138 0.0411,-0.0842 0.0847,-0.21504 0.20461,-0.44104 0.11989,-0.22599 0.31723,-0.54963 0.63401,-0.90376 0.31678,-0.35413 0.75424,-0.74036 1.17738,-1.02767 0.42314,-0.28731 0.83288,-0.47642 1.16548,-0.61417 0.33259,-0.13775 0.58871,-0.22443 0.80909,-0.29724 0.22038,-0.0728 0.40565,-0.13193 0.71828,-0.19681 0.31262,-0.0649 0.75435,-0.13586 1.15975,-0.17719 0.4054,-0.0413 0.77574,-0.0532 0.99621,-0.063 0.22047,-0.01 0.29141,-0.0177 0.31241,0.0192 0.021,0.0369 -0.005,0.11244 -0.1141,0.35737 -0.10864,0.24494 -0.29687,0.65277 -0.52335,1.08604 -0.22647,0.43327 -0.49007,0.88965 -0.80514,1.31698 -0.31506,0.42734 -0.68097,0.82474 -1.10437,1.17727 -0.42339,0.35253 -0.9034,0.65942 -1.46072,0.95877 -0.55732,0.29935 -1.19081,0.59052 -1.55504,0.75395 -0.36424,0.16342 -0.45865,0.19883 -0.50606,0.26191 -0.0474,0.0631 -0.0474,0.15332 -0.0937,0.24704 -0.0463,0.0937 -0.13455,0.18582 -0.24694,0.25487 -0.11238,0.0691 -0.24587,0.11224 -0.39371,0.12183 -0.14785,0.01 -0.30108,-0.0134 -0.39175,0.0397 -0.0907,0.0531 -0.11426,0.1828 -0.13815,0.27804 -0.0239,0.0952 -0.0469,0.1528 -0.13981,0.23386 -0.0929,0.0811 -0.25344,0.18288 -0.37956,0.23809 -0.12612,0.0552 -0.21645,0.0631 -0.26187,0.10835 -0.0454,0.0453 -0.0454,0.1277 -0.0494,1.26118 -0.004,1.13347 -0.0118,3.30379 -0.0353,4.39648 -0.0235,1.0927 -0.0628,1.10056 -0.16451,0.97491 -0.10165,-0.12566 -0.26276,-0.38085 -0.34393,-0.5094 -0.0812,-0.12855 -0.0812,-0.12842 -0.0839,-1.16143 z"
         id="path1212"
         inkscape:connector-curvature="0"
         inkscape:path-effect="#path-effect1208"
         inkscape:original-d="m 227.47978,281.58188 c -0.005,-2.06602 -0.0109,-4.13181 -0.0167,-6.19731 -0.0109,-0.0281 -0.022,-0.056 -0.0334,-0.0835 -0.36542,-0.11108 -0.73473,-0.21186 -1.10249,-0.31737 -0.62365,-0.32896 -1.24699,-0.65731 -1.87088,-0.98558 -0.34501,-0.28985 -0.69018,-0.57933 -1.03567,-0.86862 -0.41737,-0.59053 -0.83495,-1.18071 -1.25283,-1.77065 -0.14449,-0.5793 -0.28928,-1.15845 -0.43431,-1.73725 -0.11106,-0.38992 -0.22246,-0.77981 -0.33409,-1.1693 -0.21679,-0.45665 -0.43404,-0.90231 -0.65147,-1.35305 -0.0832,-0.33983 -0.16678,-0.67959 -0.25056,-1.01897 -0.0109,-0.12827 -0.022,-0.2564 -0.0334,-0.3842 0.32817,0.42212 0.6573,0.84609 0.98556,1.26953 0.4903,0.30601 0.98025,0.61221 1.46998,0.91873 0.5904,0.35605 1.1807,0.71245 1.77066,1.06908 0.36771,0.22244 0.73526,0.44519 1.10249,0.66818 0.36768,0.30591 0.73525,0.61222 1.10248,0.91874 0.1673,0.28368 0.33435,0.56769 0.50113,0.8519 0.0225,-0.0114 0.0448,-0.0225 0.0668,-0.0334 0.006,-1.24621 0.0225,-2.51706 0.0334,-3.77518 -0.0109,-0.006 -0.0109,-0.0114 -0.0167,-0.0167 -0.15007,0.0387 -0.30041,0.0777 -0.45102,0.11695 -0.21734,-0.13975 -0.43404,-0.27869 -0.65146,-0.41762 -0.061,-0.19521 -0.12224,-0.39002 -0.18375,-0.58465 0.017,-0.0949 0.0337,-0.18957 0.0501,-0.28398 -0.37161,-0.32774 -0.74586,-0.6573 -1.11919,-0.98554 -0.70692,-0.90235 -1.41404,-1.80434 -2.12145,-2.70611 -0.26143,-0.52922 -0.52314,-1.05821 -0.78511,-1.58691 -0.16117,-0.5514 -0.32268,-1.10275 -0.48442,-1.65373 -0.0276,-0.47898 -0.0554,-0.95799 -0.0835,-1.43658 0.0392,0.0331 0.0782,0.0666 0.11693,0.10023 0.0559,0.19451 0.11162,0.3895 0.16704,0.58465 0.22876,0.25053 0.45685,0.50087 0.68488,0.7517 0.4513,0.22247 0.9023,0.44518 1.35305,0.66817 0.43447,0.16674 0.86889,0.33382 1.30294,0.50113 0.22848,0.13333 0.45685,0.26701 0.68488,0.4009 0.21177,0.16672 0.42344,0.33383 0.63476,0.50113 0.0893,0.10552 0.17845,0.21133 0.26727,0.31739 0.017,-0.056 0.0337,-0.11163 0.0501,-0.16705 -0.0108,-0.12206 -0.022,-0.24526 -0.0334,-0.36749 0.10029,-0.1392 0.20071,-0.27867 0.30068,-0.41761 0.0947,-0.0392 0.18958,-0.0782 0.28397,-0.11693 -0.0108,-0.0225 -0.022,-0.0448 -0.0334,-0.0668 0.0114,-0.29951 0.0225,-0.60162 0.0334,-0.90203 -0.0554,0.022 -0.12223,0.0443 -0.18375,0.0668 -0.17884,-0.006 -0.35609,-0.0114 -0.53454,-0.0167 -0.16702,-0.13409 -0.33382,-0.26754 -0.50113,-0.40091 -0.0833,-0.18405 -0.16678,-0.36776 -0.25056,-0.55124 0.006,-0.1505 0.0114,-0.30094 0.0167,-0.45102 0.0614,-0.13365 0.12276,-0.26753 0.18375,-0.4009 0.006,-0.006 0.0114,-0.0114 0.0167,-0.0167 -0.26491,-0.14876 -0.54541,-0.32321 -0.81851,-0.48442 -0.56785,-0.52382 -1.13563,-1.04707 -1.70384,-1.57021 -0.26144,-0.37334 -0.52314,-0.74639 -0.78511,-1.11919 -0.12221,-0.37328 -0.24473,-0.74639 -0.36749,-1.11919 0.006,-0.2062 0.0114,-0.41231 0.0167,-0.61806 -0.18324,-0.46181 -0.36723,-0.92458 -0.55124,-1.38646 -0.022,-0.36209 -0.0443,-0.72412 -0.0668,-1.08579 0.0336,0.0331 0.0671,0.0666 0.10023,0.10023 0.30094,0.45632 0.59048,0.90177 0.88533,1.35305 0.21188,0.16681 0.42344,0.33382 0.63476,0.50113 0.40111,0.16675 0.80208,0.33383 1.20272,0.50113 0.28414,0.16673 0.56821,0.33382 0.85192,0.50113 0.18952,0.1723 0.37889,0.34496 0.56794,0.51784 0.0225,-0.006 0.0337,-0.0114 0.0501,-0.0167 -0.0598,-0.26791 -0.12224,-0.54594 -0.18375,-0.81851 0.0448,-0.56224 0.0893,-1.12503 0.13363,-1.68714 0.18392,-0.61245 0.36776,-1.22525 0.55125,-1.83748 0.32305,-0.69035 0.64616,-1.38115 0.96885,-2.07134 0.12271,-0.22845 0.24526,-0.45685 0.3675,-0.68488 0.006,0.0554 0.0114,0.1111 0.0167,0.16705 0.0953,0.70429 0.18958,1.39176 0.28398,2.08804 0.17293,0.55116 0.34548,1.10222 0.51783,1.65373 0.10052,0.38962 0.20072,0.77927 0.30068,1.16931 0.0727,0.31726 0.14504,0.62336 0.21716,0.93544 -0.022,0.42317 -0.0443,0.84609 -0.0668,1.26953 0.006,0.0165 0.0114,0.0331 0.0167,0.0501 0.35439,-0.3319 0.70185,-0.6573 1.05238,-0.98555 0.65679,-0.36748 1.31434,-0.72412 1.97111,-1.08579 0.27919,-0.0992 0.55837,-0.19831 0.83716,-0.29706 0.42894,-0.0789 0.85859,-0.15776 1.28748,-0.23624 0.11437,-0.008 0.22863,-0.016 0.34254,-0.0236 -0.0311,0.0155 -0.0627,0.0312 -0.0945,0.0473 -0.32187,0.32584 -0.63757,0.64544 -0.95675,0.96856 -0.15342,0.25193 -0.30684,0.50371 -0.46066,0.75596 -0.12588,0.3151 -0.25172,0.62969 -0.37798,0.94494 -0.12191,0.37809 -0.24384,0.75568 -0.36616,1.13392 -0.14948,0.24011 -0.29897,0.48009 -0.44885,0.72052 -0.24416,0.22839 -0.48795,0.45646 -0.73233,0.68508 -0.44908,0.30719 -0.89743,0.61395 -1.34654,0.92132 -0.11399,0.051 -0.22809,0.1021 -0.34254,0.15355 0.0358,0.16162 0.0711,0.32259 0.10631,0.48429 -0.0865,0.20078 -0.17298,0.40133 -0.25986,0.6024 -0.11016,0.0983 -0.22022,0.19659 -0.33073,0.29529 -0.12999,0.0431 -0.25959,0.0863 -0.38979,0.12993 -0.1655,-0.02 -0.33046,-0.0396 -0.49609,-0.0591 -0.0786,-0.0239 -0.15723,-0.0475 -0.23624,-0.0709 2.7e-4,0.22859 2.7e-4,0.45646 0,0.68508 -0.0194,0.2126 -0.0391,0.42496 -0.0591,0.63784 0.0909,0.0431 0.18138,0.0863 0.27167,0.12993 0.0789,0.10984 0.15776,0.22022 0.23624,0.33072 0.016,0.0903 0.0318,0.18085 0.0473,0.27168 0.0634,-0.004 0.12625,-0.008 0.18899,-0.0118 0.12177,0.0429 0.24437,0.0864 0.36616,0.12993 0.0514,0.10984 0.10263,0.22022 0.15355,0.33073 0.016,0.008 0.0239,0.0234 0.0354,0.0354 0.142,-0.0751 0.28374,-0.14988 0.42522,-0.22442 0.37347,-0.20847 0.74047,-0.41761 1.1103,-0.62602 0.47627,-0.17336 0.95308,-0.34675 1.42923,-0.51972 0.48422,-0.18913 0.96883,-0.37824 1.45284,-0.56697 0.197,-0.14584 0.39399,-0.29162 0.59059,-0.43703 0.15752,-0.20469 0.31525,-0.40974 0.47247,-0.61421 0.008,0.0391 0.016,0.0785 0.0236,0.11812 -0.0749,0.27281 -0.14935,0.54307 -0.22442,0.81501 -0.10222,0.38209 -0.20448,0.76356 -0.30711,1.14574 -0.17706,0.45683 -0.35409,0.91318 -0.53153,1.37016 -0.32281,0.59468 -0.64544,1.18879 -0.96856,1.78358 -0.30307,0.38579 -0.61395,0.77142 -0.92132,1.15755 -0.36223,0.32676 -0.71631,0.65331 -1.07487,0.98036 -0.42923,0.23223 -0.85805,0.46434 -1.28748,0.69689 -0.0313,0.0864 -0.0627,0.17298 -0.0945,0.25987 -0.0788,0.10642 -0.15723,0.21236 -0.23624,0.3189 -0.13792,0.0471 -0.27534,0.0942 -0.41341,0.14177 -0.16154,-0.004 -0.32259,-0.008 -0.48428,-0.0119 -0.0747,-0.0318 -0.14148,-0.0633 -0.21261,-0.0945 0.004,0.0471 0.008,0.0942 0.0118,0.14174 -0.0156,0.50628 -0.0312,1.00766 -0.0472,1.5119 2.7e-4,0.78762 2.7e-4,1.57464 0,2.36234 0.0199,0.0156 0.0396,0.0312 0.0591,0.0473 0.0907,0.0193 0.18138,0.0391 0.27167,0.0591 0.0788,0.0665 0.15775,0.13361 0.23624,0.20081 0.0396,0.047 0.079,0.0942 0.11811,0.14174 0.0239,-0.0279 0.0475,-0.0475 0.0709,-0.0709 0.0509,-0.0159 0.10264,-0.0318 0.15356,-0.0473 0.0394,-0.0394 0.079,-0.079 0.11811,-0.11811 0.0433,-0.12933 0.0869,-0.26012 0.12993,-0.38979 0.19665,-0.32234 0.39399,-0.64598 0.59059,-0.96856 0.43688,-0.38574 0.87433,-0.77197 1.31111,-1.15755 0.40947,-0.18913 0.81921,-0.37825 1.22842,-0.56698 0.25598,-0.0868 0.5121,-0.17348 0.76776,-0.25984 0.18509,-0.0593 0.37037,-0.11838 0.55516,-0.1772 0.44048,-0.071 0.8822,-0.142 1.32291,-0.21259 0.37012,-0.0122 0.74047,-0.0238 1.1103,-0.0355 0.0711,-0.008 0.14201,-0.0161 0.21262,-0.0236 -0.0272,0.0821 -0.0549,0.15721 -0.0827,0.23622 -0.18949,0.41087 -0.37772,0.8187 -0.56697,1.22843 -0.26374,0.45681 -0.52733,0.91319 -0.79139,1.37015 -0.36615,0.39767 -0.73206,0.79507 -1.09849,1.193 -0.48041,0.30705 -0.96042,0.61394 -1.44104,0.92131 -0.63403,0.29128 -1.26752,0.58245 -1.90169,0.87408 -0.0943,0.0352 -0.18872,0.0706 -0.28348,0.10631 2.6e-4,0.0906 2.6e-4,0.18084 0,0.27167 -0.0906,0.0985 -0.18085,0.1887 -0.27167,0.28348 -0.13398,0.0432 -0.26747,0.0864 -0.4016,0.12993 -0.16154,-0.0241 -0.31471,-0.0475 -0.47247,-0.0709 -0.0234,0.12986 -0.047,0.25958 -0.0709,0.38979 -0.0274,0.0589 -0.047,0.11784 -0.0709,0.17719 -0.16204,0.10265 -0.32259,0.20447 -0.48428,0.3071 -0.0905,0.008 -0.18085,0.0156 -0.27167,0.0236 2.6e-4,0.0827 2.6e-4,0.1651 0,0.24804 -0.008,2.18401 -0.0155,4.35433 -0.0236,6.5319 -0.0391,0.008 -0.0785,0.0156 -0.11812,0.0236 -0.16336,-0.25942 -0.32448,-0.51461 -0.48711,-0.77152 z" />
    </clipPath>
    <filter
       style="color-interpolation-filters:sRGB"
       inkscape:label="Drop Shadow"
       id="filter1478">
      <feFlood
         flood-opacity="0.498039"
         flood-color="rgb(0,0,0)"
         result="flood"
         id="feFlood1468" />
      <feComposite
         in="flood"
         in2="SourceGraphic"
         operator="in"
         result="composite1"
         id="feComposite1470" />
      <feGaussianBlur
         in="composite1"
         stdDeviation="3.4"
         result="blur"
         id="feGaussianBlur1472" />
      <feOffset
         dx="4.9"
         dy="4.9"
         result="offset"
         id="feOffset1474" />
      <feComposite
         in="SourceGraphic"
         in2="offset"
         operator="over"
         result="composite2"
         id="feComposite1476" />
    </filter>
  </defs>
  <sodipodi:namedview
     id="base"
     pagecolor="#ffffff"
     bordercolor="#666666"
     borderopacity="1.0"
     inkscape:pageopacity="0.0"
     inkscape:pageshadow="2"
     inkscape:zoom="0.25"
     inkscape:cx="154.80672"
     inkscape:cy="626.02734"
     inkscape:document-units="mm"
     inkscape:current-layer="layer1"
     showgrid="false"
     inkscape:snap-global="false"
     inkscape:window-width="1366"
     inkscape:window-height="712"
     inkscape:window-x="0"
     inkscape:window-y="27"
     inkscape:window-maximized="1"
     showguides="true"
     inkscape:guide-bbox="true" />
  <metadata
     id="metadata5">
    <rdf:RDF>
      <cc:Work
         rdf:about="">
        <dc:format>image/svg+xml</dc:format>
        <dc:type
           rdf:resource="http://purl.org/dc/dcmitype/StillImage" />
        <dc:title></dc:title>
      </cc:Work>
    </rdf:RDF>
  </metadata>
  <g
     inkscape:label="Camada 1"
     inkscape:groupmode="layer"
     id="layer1"
     transform="translate(0,3)">
    <g
       id="g954"
       transform="translate(71.848313,-372.21403)"
       style="fill:#008000;fill-opacity:1">
      <path
         inkscape:original-d="m 11.386533,185.02455 c 0.519981,-10.20562 1.039699,-20.41098 1.559152,-30.61607 -0.04698,-2.7e-4 -0.09423,-2.7e-4 -0.141742,0 -0.03141,-0.28534 -0.06273,-0.56723 -0.09449,-0.85045 0.126154,-0.016 0.252249,-0.0318 0.377977,-0.0472 0.01597,-0.44021 0.03176,-0.88221 0.04725,-1.32292 -0.10991,-0.0475 -0.220221,-0.0948 -0.330729,-0.14174 0.0318,-0.33138 0.06326,-0.66172 0.09449,-0.99219 0.173353,-2.6e-4 0.346743,-2.6e-4 0.519718,0 -0.04691,-0.28331 -0.09423,-0.56723 -0.141741,-0.85044 -0.188581,-0.079 -0.377712,-0.15776 -0.566965,-0.23624 2.65e-4,-0.23666 2.65e-4,-0.47274 0,-0.7087 0.06319,-0.016 0.126257,-0.0318 0.188988,-0.0472 1.159933,-0.063 2.331118,-0.15776 3.49628,-0.23624 2.65e-4,-0.016 2.65e-4,-0.0318 0,-0.0472 4.459779,-2.7565 9.071693,-5.60692 13.607143,-8.40998 0.110501,-0.0633 0.22075,-0.12625 0.33073,-0.18898 0.61273,0.0468 1.260184,0.12573 1.889879,0.18898 0.126211,-4.04624 0.252251,-8.09525 0.377978,-12.14248 -0.125719,-0.12625 -0.251719,-0.25225 -0.377978,-0.37798 0.06326,-0.26799 0.126259,-0.53573 0.188989,-0.8032 0.110379,-2.6e-4 0.22075,-2.6e-4 0.330729,0 2.65e-4,-0.36162 2.65e-4,-0.72472 0,-1.08668 -0.157109,-0.0317 -0.314716,-0.0633 -0.472469,-0.0945 -0.07858,-0.22104 -0.157226,-0.44124 -0.236236,-0.66146 0.110432,-0.14191 0.22075,-0.28374 0.330729,-0.42522 1.477611,-0.016 2.961079,-0.0318 4.441219,-0.0472 0.173474,0.0155 0.346745,0.0312 0.519719,0.0472 2.060543,-1.36854 4.158001,-2.74059 6.236607,-4.11049 0.126238,-0.1105 0.252249,-0.22076 0.377976,-0.33073 0.534538,-2.7e-4 1.071197,-2.7e-4 1.606399,0 0.204899,-9.25611 0.409739,-18.5211 0.614212,-27.781252 0.09475,-0.07901 0.157752,-0.157755 0.236233,-0.236235 0.125833,-0.110139 0.252248,-0.22075 0.377976,-0.33073 0.03169,-4.195873 0.06326,-8.410236 0.0945,-12.614954 -0.141468,-0.01601 -0.283218,-0.03176 -0.425225,-0.04725 0.01603,-0.236887 0.03176,-0.472736 0.04725,-0.708708 0.503632,-0.346329 1.0082,-0.724717 1.511903,-1.08668 -0.06269,-0.425233 -0.09423,-0.85071 -0.14174,-1.27567 0.252111,-0.06323 0.504233,-0.126257 0.755952,-0.188987 -0.01545,-1.824892 -0.03123,-3.654036 -0.04725,-5.480656 0.03176,-0.09475 0.06326,-0.189251 0.09449,-0.283482 2.527337,-6.576925 5.071445,-13.197933 7.60677,-19.796503 -0.03123,-0.079 -0.06273,-0.157753 -0.09449,-0.236234 2.65e-4,-0.739182 2.65e-4,-1.480672 0,-2.220611 0.252158,-0.173442 0.504232,-0.346741 0.755952,-0.519718 -0.03119,-1.856409 -0.06273,-3.717028 -0.09449,-5.575146 0.01601,-2.65e-4 0.03176,-2.65e-4 0.04725,0 -1.037191,0.01521 -2.078604,0.03123 -3.118302,0.04725 -0.01548,-0.03177 -0.03124,-0.06326 -0.04725,-0.0945 -0.01543,-0.298489 -0.03123,-0.598725 -0.04725,-0.897691 0.07894,-0.07894 0.157755,-0.157755 0.236235,-0.236236 0.942031,0.01543 1.890147,0.03123 2.834823,0.04725 0.03175,-0.126223 0.06326,-0.252249 0.09449,-0.377976 2.65e-4,-0.581539 2.65e-4,-1.134192 0,-1.700893 0.04749,-0.03175 0.09476,-0.06326 0.14174,-0.09449 0.109797,-0.03156 0.220753,-0.06326 0.330729,-0.0945 0.03167,3.941461 0.06326,7.905739 0.0945,11.859003 -0.04699,-0.01601 -0.06273,-0.03176 -0.0945,-0.04725 -0.236762,0.01553 -0.472204,-2.65e-4 -0.708705,0 -2.191297,6.03836 -4.377959,12.063475 -6.567336,18.09561 -0.235982,0.645478 -0.440706,1.291154 -0.661458,1.937129 0.01603,1.606923 0.03176,3.212531 0.04725,4.819194 -0.04699,-0.03177 -0.09423,-0.06326 -0.14174,-0.09449 -0.15743,0.06281 -0.314716,0.125727 -0.472469,0.188987 0.06339,0.315354 0.126257,0.629697 0.188987,0.944941 -0.0155,0.377957 -0.03123,0.755689 -0.04725,1.13393 -0.567113,0.472548 -1.133663,0.944676 -1.700892,1.41741 -0.01548,0.220331 -0.03123,0.440708 -0.04725,0.661458 0.01603,4.225869 0.03176,8.441203 0.04725,12.662201 -0.172985,0.172988 -0.346213,0.346216 -0.519719,0.519719 -0.09437,5.788448 -0.188722,11.55951 -0.283482,17.33966 -0.04698,3.59067 -0.06273,7.18128 -0.09449,10.77232 -0.314737,0.31474 -0.629695,0.6297 -0.94494,0.94494 -0.441077,0.0628 -0.881679,0.12573 -1.322917,0.18899 -2.127279,1.35506 -4.251968,2.70856 -6.378347,4.06324 -0.141497,0.0785 -0.283218,0.15723 -0.425223,0.23624 -1.388724,-0.0476 -2.771561,-0.0948 -4.157739,-0.14174 -0.03124,0.33052 -0.06273,0.66119 -0.09449,0.99218 -0.1416,0.0943 -0.283218,0.18873 -0.425223,0.28349 2.65e-4,0.15756 2.65e-4,0.31471 0,0.47247 0.06336,0.28369 0.126257,0.5667 0.188987,0.85044 -0.141574,4.41251 -0.283218,8.81918 -0.425223,13.22917 -0.03124,-0.016 -0.06273,-0.0318 -0.09449,-0.0473 -0.426389,-0.0635 -0.850183,-0.12625 -1.27567,-0.18899 -0.251852,0.047 -0.503703,0.0942 -0.755954,0.14175 -4.414768,2.80643 -8.819179,5.60638 -13.229166,8.40997 -0.251737,0.0627 -0.472205,0.12572 -0.708705,0.18899 -0.835538,-0.016 -1.66913,-0.0318 -2.504092,-0.0473 -0.07851,0.33056 -0.157226,0.62969 -0.236235,0.94494 -0.157381,-2.7e-4 -0.314716,-2.7e-4 -0.47247,0 0.01604,0.14171 0.03176,0.28321 0.04725,0.42522 0.09491,0.22058 0.189253,0.44071 0.283483,0.66146 -0.04701,0.40945 -0.09423,0.81868 -0.141741,1.22842 -0.0943,0.0313 -0.188724,0.0627 -0.283483,0.0945 -0.394783,10.429 -0.787186,20.78842 -1.181175,31.18303 2.64e-4,0.047 2.64e-4,0.0942 0,0.14174 -0.14227,-0.0478 -0.283218,-0.0948 -0.425223,-0.14174 z"
         inkscape:path-effect="#path-effect946"
         inkscape:connector-curvature="0"
         id="path944"
         d="m 11.646399,179.92173 c 0.259865,-5.10281 0.779583,-15.30817 1.015944,-20.41071 0.236362,-5.10254 0.189112,-5.10254 0.149506,-5.24519 -0.0396,-0.14266 -0.07093,-0.42455 -0.02357,-0.57405 0.04736,-0.14951 0.173458,-0.16525 0.244165,-0.39321 0.07071,-0.22796 0.08649,-0.66996 0.03934,-0.91389 -0.04716,-0.24394 -0.157476,-0.29121 -0.196874,-0.48056 -0.0394,-0.18935 -0.0079,-0.51969 0.09447,-0.68492 0.102411,-0.16522 0.275801,-0.16522 0.338683,-0.30685 0.06288,-0.14163 0.01556,-0.42555 -0.102408,-0.6065 -0.117971,-0.18095 -0.307086,-0.25975 -0.401645,-0.41748 -0.09456,-0.15773 -0.09456,-0.39381 -0.06294,-0.51969 0.03162,-0.12587 0.0947,-0.14163 0.705482,-0.18861 0.610784,-0.047 1.78302,-0.12618 2.365592,-0.17355 0.582573,-0.0474 0.582573,-0.0632 2.812486,-1.44907 2.229913,-1.38591 6.841826,-4.23634 9.164813,-5.66949 2.322987,-1.43316 2.433216,-1.49614 2.79383,-1.49699 0.360614,-8.4e-4 1.009473,0.064 1.387311,-1.9276 0.377839,-1.99164 0.503879,-6.04065 0.503879,-8.12725 0,-2.0866 -0.126,-2.21261 -0.157463,-2.40962 -0.03146,-0.19702 0.03153,-0.46476 0.118186,-0.59847 0.08665,-0.13371 0.197022,-0.13371 0.252011,-0.31452 0.05499,-0.18081 0.05499,-0.54391 -0.02359,-0.74061 -0.07858,-0.19669 -0.236203,-0.22822 -0.354496,-0.35445 -0.118294,-0.12624 -0.196937,-0.34644 -0.181084,-0.52757 0.01585,-0.18114 0.126168,-0.32297 0.919983,-0.40155 0.793816,-0.0786 2.277285,-0.0943 3.104078,-0.0943 0.826794,1e-5 1.000062,0.0157 2.119235,-0.65702 1.119174,-0.67277 3.211869,-2.05205 4.314281,-2.79227 1.102412,-0.74022 1.228423,-0.85048 1.558545,-0.90547 0.330122,-0.055 0.866781,-0.055 1.236703,-4.68306 0.369922,-4.62806 0.574761,-13.89305 0.720566,-18.566559 0.145806,-4.673513 0.216679,-4.744387 0.318844,-4.838687 0.102165,-0.0943 0.228579,-0.204913 0.307151,-2.357849 0.07857,-2.152937 0.110142,-6.3673 0.05514,-8.47752 -0.055,-2.110219 -0.196751,-2.12597 -0.259841,-2.252309 -0.06309,-0.12634 -0.04737,-0.362189 0.208605,-0.658493 0.255972,-0.296304 0.767995,-0.664321 0.996111,-1.05879 0.228116,-0.39447 0.181033,-0.81822 0.283502,-1.062236 0.102469,-0.244015 0.35459,-0.307045 0.47256,-1.250949 0.117969,-0.943904 0.1022,-2.773048 0.110126,-3.733761 0.0079,-0.960712 0.03943,-1.055214 1.318717,-4.390793 1.279292,-3.335578 3.823402,-9.956586 5.075361,-13.29528 1.25196,-3.338694 1.22046,-3.417447 1.204739,-3.826342 -0.01572,-0.408895 -0.01572,-1.150385 0.110377,-1.607047 0.126099,-0.456663 0.378172,-0.629963 0.488281,-1.644681 0.11011,-1.014718 0.07858,-2.875337 0.07083,-3.804399 -0.0077,-0.929061 0.008,-0.929061 -0.502838,-0.921203 -0.510846,0.0079 -1.552263,0.02364 -2.080016,0.01571 -0.527753,-0.0079 -0.543501,-0.03942 -0.559205,-0.204358 -0.0157,-0.164935 -0.03151,-0.465171 9.4e-5,-0.654132 0.0316,-0.18896 0.110417,-0.267775 0.62067,-0.299165 0.510253,-0.03139 1.458369,-0.01559 1.946493,-0.07085 0.488123,-0.05526 0.519628,-0.181289 0.535338,-0.534899 0.01571,-0.353609 0.01571,-0.906262 0.03947,-1.205456 0.02377,-0.299194 0.07104,-0.330705 0.149428,-0.362045 0.07839,-0.03134 0.189348,-0.06304 0.260015,1.891984 0.07067,1.955027 0.102258,5.919305 0.09601,7.884937 -0.0062,1.965632 -0.02514,1.956186 -0.159326,1.948283 -0.134187,-0.0079 -0.369629,-0.0079 -1.583603,3.01125 -1.213975,3.019152 -3.400635,9.044268 -4.606266,12.385483 -1.20563,3.341215 -1.42446,3.982074 -1.52688,5.108552 -0.10242,1.126477 -0.08668,2.732085 -0.102399,3.519684 -0.01572,0.787599 -0.06296,0.756107 -0.1653,0.771814 -0.10234,0.01571 -0.259627,0.07862 -0.30699,0.26789 -0.04736,0.189269 0.01551,0.503612 0.03915,0.850177 0.02364,0.346565 0.0079,0.724296 -0.283522,1.14971 -0.291426,0.425413 -0.857978,0.897539 -1.149472,1.24405 -0.291494,0.346511 -0.307236,0.566888 -0.307236,2.790207 -10e-7,2.223319 0.01573,6.438653 -0.06289,8.635645 -0.07862,2.196992 -0.251846,2.37022 -0.385915,5.351194 -0.134069,2.980974 -0.228419,8.75204 -0.291416,13.43752 -0.063,4.68548 -0.09449,8.27595 -0.267611,10.22884 -0.173119,1.95289 -0.488078,2.26785 -0.866222,2.45697 -0.378145,0.18913 -0.818745,0.25207 -2.102998,0.96115 -1.284253,0.70909 -3.40894,2.06259 -4.542877,2.77919 -1.133937,0.71659 -1.275655,0.79533 -2.041049,0.81112 -0.765394,0.0158 -2.148233,-0.0313 -2.857054,0.11027 -0.708821,0.14162 -0.740312,0.47229 -0.82685,0.68498 -0.08654,0.21269 -0.228164,0.30711 -0.299186,0.43324 -0.07102,0.12613 -0.07102,0.28328 -0.03949,0.50404 0.03153,0.22076 0.09442,0.50377 0.05502,2.85186 -0.0394,2.34808 -0.181039,6.75475 -0.267606,8.9519 -0.08657,2.19714 -0.118073,2.18137 -0.347091,2.14187 -0.229019,-0.0395 -0.652808,-0.10228 -0.991436,-0.11019 -0.338627,-0.008 -0.590474,0.0393 -2.923983,1.46623 -2.333509,1.4269 -6.737922,4.22685 -9.068254,5.66203 -2.330333,1.43518 -2.551854,1.49425 -3.0879,1.5179 -0.536046,0.0237 -1.369639,0.008 -1.828316,0.16481 -0.458677,0.15691 -0.533691,0.45696 -0.651793,0.61461 -0.118103,0.15765 -0.275438,0.15765 -0.34644,0.22852 -0.071,0.0709 -0.05528,0.21237 -9.4e-5,0.39372 0.05519,0.18135 0.149526,0.40148 0.17318,0.71649 0.02365,0.31502 -0.02356,0.72425 -0.09433,0.94485 -0.07077,0.22059 -0.165171,0.25206 -0.410101,5.48236 -0.24493,5.2303 -0.637333,15.58972 -0.8342,20.81053 -0.196868,5.22081 -0.196868,5.26801 -0.26806,5.26805 -0.07119,4e-5 -0.212144,-0.0469 -0.283088,-0.0706 -0.07094,-0.0236 -0.07096,-0.0237 0.188903,-5.12649 z"
         style="fill:#008000;fill-opacity:1;stroke:#000000;stroke-width:0;stroke-linecap:butt;stroke-linejoin:miter;stroke-miterlimit:4;stroke-dasharray:none;stroke-opacity:1" />
      <path
         transform="matrix(-1,0,0,1,114.6016,0)"
         style="fill:#008000;fill-opacity:1;stroke:#000000;stroke-width:0;stroke-linecap:butt;stroke-linejoin:miter;stroke-miterlimit:4;stroke-dasharray:none;stroke-opacity:1"
         d="m 11.646399,179.92173 c 0.259865,-5.10281 0.779583,-15.30817 1.015944,-20.41071 0.236362,-5.10254 0.189112,-5.10254 0.149506,-5.24519 -0.0396,-0.14266 -0.07093,-0.42455 -0.02357,-0.57405 0.04736,-0.14951 0.173458,-0.16525 0.244165,-0.39321 0.07071,-0.22796 0.08649,-0.66996 0.03934,-0.91389 -0.04716,-0.24394 -0.157476,-0.29121 -0.196874,-0.48056 -0.0394,-0.18935 -0.0079,-0.51969 0.09447,-0.68492 0.102411,-0.16522 0.275801,-0.16522 0.338683,-0.30685 0.06288,-0.14163 0.01556,-0.42555 -0.102408,-0.6065 -0.117971,-0.18095 -0.307086,-0.25975 -0.401645,-0.41748 -0.09456,-0.15773 -0.09456,-0.39381 -0.06294,-0.51969 0.03162,-0.12587 0.0947,-0.14163 0.705482,-0.18861 0.610784,-0.047 1.78302,-0.12618 2.365592,-0.17355 0.582573,-0.0474 0.582573,-0.0632 2.812486,-1.44907 2.229913,-1.38591 6.841826,-4.23634 9.164813,-5.66949 2.322987,-1.43316 2.433216,-1.49614 2.79383,-1.49699 0.360614,-8.4e-4 1.009473,0.064 1.387311,-1.9276 0.377839,-1.99164 0.503879,-6.04065 0.503879,-8.12725 0,-2.0866 -0.126,-2.21261 -0.157463,-2.40962 -0.03146,-0.19702 0.03153,-0.46476 0.118186,-0.59847 0.08665,-0.13371 0.197022,-0.13371 0.252011,-0.31452 0.05499,-0.18081 0.05499,-0.54391 -0.02359,-0.74061 -0.07858,-0.19669 -0.236203,-0.22822 -0.354496,-0.35445 -0.118294,-0.12624 -0.196937,-0.34644 -0.181084,-0.52757 0.01585,-0.18114 0.126168,-0.32297 0.919983,-0.40155 0.793816,-0.0786 2.277285,-0.0943 3.104078,-0.0943 0.826794,1e-5 1.000062,0.0157 2.119235,-0.65702 1.119174,-0.67277 3.211869,-2.05205 4.314281,-2.79227 1.102412,-0.74022 1.228423,-0.85048 1.558545,-0.90547 0.330122,-0.055 0.866781,-0.055 1.236703,-4.68306 0.369922,-4.62806 0.574761,-13.89305 0.720566,-18.566559 0.145806,-4.673513 0.216679,-4.744387 0.318844,-4.838687 0.102165,-0.0943 0.228579,-0.204913 0.307151,-2.357849 0.07857,-2.152937 0.110142,-6.3673 0.05514,-8.47752 -0.055,-2.110219 -0.196751,-2.12597 -0.259841,-2.252309 -0.06309,-0.12634 -0.04737,-0.362189 0.208605,-0.658493 0.255972,-0.296304 0.767995,-0.664321 0.996111,-1.05879 0.228116,-0.39447 0.181033,-0.81822 0.283502,-1.062236 0.102469,-0.244015 0.35459,-0.307045 0.47256,-1.250949 0.117969,-0.943904 0.1022,-2.773048 0.110126,-3.733761 0.0079,-0.960712 0.03943,-1.055214 1.318717,-4.390793 1.279292,-3.335578 3.823402,-9.956586 5.075361,-13.29528 1.25196,-3.338694 1.22046,-3.417447 1.204739,-3.826342 -0.01572,-0.408895 -0.01572,-1.150385 0.110377,-1.607047 0.126099,-0.456663 0.378172,-0.629963 0.488281,-1.644681 0.11011,-1.014718 0.07858,-2.875337 0.07083,-3.804399 -0.0077,-0.929061 0.008,-0.929061 -0.502838,-0.921203 -0.510846,0.0079 -1.552263,0.02364 -2.080016,0.01571 -0.527753,-0.0079 -0.543501,-0.03942 -0.559205,-0.204358 -0.0157,-0.164935 -0.03151,-0.465171 9.4e-5,-0.654132 0.0316,-0.18896 0.110417,-0.267775 0.62067,-0.299165 0.510253,-0.03139 1.458369,-0.01559 1.946493,-0.07085 0.488123,-0.05526 0.519628,-0.181289 0.535338,-0.534899 0.01571,-0.353609 0.01571,-0.906262 0.03947,-1.205456 0.02377,-0.299194 0.07104,-0.330705 0.149428,-0.362045 0.07839,-0.03134 0.189348,-0.06304 0.260015,1.891984 0.07067,1.955027 0.102258,5.919305 0.09601,7.884937 -0.0062,1.965632 -0.02514,1.956186 -0.159326,1.948283 -0.134187,-0.0079 -0.369629,-0.0079 -1.583603,3.01125 -1.213975,3.019152 -3.400635,9.044268 -4.606266,12.385483 -1.20563,3.341215 -1.42446,3.982074 -1.52688,5.108552 -0.10242,1.126477 -0.08668,2.732085 -0.102399,3.519684 -0.01572,0.787599 -0.06296,0.756107 -0.1653,0.771814 -0.10234,0.01571 -0.259627,0.07862 -0.30699,0.26789 -0.04736,0.189269 0.01551,0.503612 0.03915,0.850177 0.02364,0.346565 0.0079,0.724296 -0.283522,1.14971 -0.291426,0.425413 -0.857978,0.897539 -1.149472,1.24405 -0.291494,0.346511 -0.307236,0.566888 -0.307236,2.790207 -10e-7,2.223319 0.01573,6.438653 -0.06289,8.635645 -0.07862,2.196992 -0.251846,2.37022 -0.385915,5.351194 -0.134069,2.980974 -0.228419,8.75204 -0.291416,13.43752 -0.063,4.68548 -0.09449,8.27595 -0.267611,10.22884 -0.173119,1.95289 -0.488078,2.26785 -0.866222,2.45697 -0.378145,0.18913 -0.818745,0.25207 -2.102998,0.96115 -1.284253,0.70909 -3.40894,2.06259 -4.542877,2.77919 -1.133937,0.71659 -1.275655,0.79533 -2.041049,0.81112 -0.765394,0.0158 -2.148233,-0.0313 -2.857054,0.11027 -0.708821,0.14162 -0.740312,0.47229 -0.82685,0.68498 -0.08654,0.21269 -0.228164,0.30711 -0.299186,0.43324 -0.07102,0.12613 -0.07102,0.28328 -0.03949,0.50404 0.03153,0.22076 0.09442,0.50377 0.05502,2.85186 -0.0394,2.34808 -0.181039,6.75475 -0.267606,8.9519 -0.08657,2.19714 -0.118073,2.18137 -0.347091,2.14187 -0.229019,-0.0395 -0.652808,-0.10228 -0.991436,-0.11019 -0.338627,-0.008 -0.590474,0.0393 -2.923983,1.46623 -2.333509,1.4269 -6.737922,4.22685 -9.068254,5.66203 -2.330333,1.43518 -2.551854,1.49425 -3.0879,1.5179 -0.536046,0.0237 -1.369639,0.008 -1.828316,0.16481 -0.458677,0.15691 -0.533691,0.45696 -0.651793,0.61461 -0.118103,0.15765 -0.275438,0.15765 -0.34644,0.22852 -0.071,0.0709 -0.05528,0.21237 -9.4e-5,0.39372 0.05519,0.18135 0.149526,0.40148 0.17318,0.71649 0.02365,0.31502 -0.02356,0.72425 -0.09433,0.94485 -0.07077,0.22059 -0.165171,0.25206 -0.410101,5.48236 -0.24493,5.2303 -0.637333,15.58972 -0.8342,20.81053 -0.196868,5.22081 -0.196868,5.26801 -0.26806,5.26805 -0.07119,4e-5 -0.212144,-0.0469 -0.283088,-0.0706 -0.07094,-0.0236 -0.07096,-0.0237 0.188903,-5.12649 z"
         id="path948"
         inkscape:connector-curvature="0"
         inkscape:path-effect="#path-effect950"
         inkscape:original-d="m 11.386533,185.02455 c 0.519981,-10.20562 1.039699,-20.41098 1.559152,-30.61607 -0.04698,-2.7e-4 -0.09423,-2.7e-4 -0.141742,0 -0.03141,-0.28534 -0.06273,-0.56723 -0.09449,-0.85045 0.126154,-0.016 0.252249,-0.0318 0.377977,-0.0472 0.01597,-0.44021 0.03176,-0.88221 0.04725,-1.32292 -0.10991,-0.0475 -0.220221,-0.0948 -0.330729,-0.14174 0.0318,-0.33138 0.06326,-0.66172 0.09449,-0.99219 0.173353,-2.6e-4 0.346743,-2.6e-4 0.519718,0 -0.04691,-0.28331 -0.09423,-0.56723 -0.141741,-0.85044 -0.188581,-0.079 -0.377712,-0.15776 -0.566965,-0.23624 2.65e-4,-0.23666 2.65e-4,-0.47274 0,-0.7087 0.06319,-0.016 0.126257,-0.0318 0.188988,-0.0472 1.159933,-0.063 2.331118,-0.15776 3.49628,-0.23624 2.65e-4,-0.016 2.65e-4,-0.0318 0,-0.0472 4.459779,-2.7565 9.071693,-5.60692 13.607143,-8.40998 0.110501,-0.0633 0.22075,-0.12625 0.33073,-0.18898 0.61273,0.0468 1.260184,0.12573 1.889879,0.18898 0.126211,-4.04624 0.252251,-8.09525 0.377978,-12.14248 -0.125719,-0.12625 -0.251719,-0.25225 -0.377978,-0.37798 0.06326,-0.26799 0.126259,-0.53573 0.188989,-0.8032 0.110379,-2.6e-4 0.22075,-2.6e-4 0.330729,0 2.65e-4,-0.36162 2.65e-4,-0.72472 0,-1.08668 -0.157109,-0.0317 -0.314716,-0.0633 -0.472469,-0.0945 -0.07858,-0.22104 -0.157226,-0.44124 -0.236236,-0.66146 0.110432,-0.14191 0.22075,-0.28374 0.330729,-0.42522 1.477611,-0.016 2.961079,-0.0318 4.441219,-0.0472 0.173474,0.0155 0.346745,0.0312 0.519719,0.0472 2.060543,-1.36854 4.158001,-2.74059 6.236607,-4.11049 0.126238,-0.1105 0.252249,-0.22076 0.377976,-0.33073 0.534538,-2.7e-4 1.071197,-2.7e-4 1.606399,0 0.204899,-9.25611 0.409739,-18.5211 0.614212,-27.781252 0.09475,-0.07901 0.157752,-0.157755 0.236233,-0.236235 0.125833,-0.110139 0.252248,-0.22075 0.377976,-0.33073 0.03169,-4.195873 0.06326,-8.410236 0.0945,-12.614954 -0.141468,-0.01601 -0.283218,-0.03176 -0.425225,-0.04725 0.01603,-0.236887 0.03176,-0.472736 0.04725,-0.708708 0.503632,-0.346329 1.0082,-0.724717 1.511903,-1.08668 -0.06269,-0.425233 -0.09423,-0.85071 -0.14174,-1.27567 0.252111,-0.06323 0.504233,-0.126257 0.755952,-0.188987 -0.01545,-1.824892 -0.03123,-3.654036 -0.04725,-5.480656 0.03176,-0.09475 0.06326,-0.189251 0.09449,-0.283482 2.527337,-6.576925 5.071445,-13.197933 7.60677,-19.796503 -0.03123,-0.079 -0.06273,-0.157753 -0.09449,-0.236234 2.65e-4,-0.739182 2.65e-4,-1.480672 0,-2.220611 0.252158,-0.173442 0.504232,-0.346741 0.755952,-0.519718 -0.03119,-1.856409 -0.06273,-3.717028 -0.09449,-5.575146 0.01601,-2.65e-4 0.03176,-2.65e-4 0.04725,0 -1.037191,0.01521 -2.078604,0.03123 -3.118302,0.04725 -0.01548,-0.03177 -0.03124,-0.06326 -0.04725,-0.0945 -0.01543,-0.298489 -0.03123,-0.598725 -0.04725,-0.897691 0.07894,-0.07894 0.157755,-0.157755 0.236235,-0.236236 0.942031,0.01543 1.890147,0.03123 2.834823,0.04725 0.03175,-0.126223 0.06326,-0.252249 0.09449,-0.377976 2.65e-4,-0.581539 2.65e-4,-1.134192 0,-1.700893 0.04749,-0.03175 0.09476,-0.06326 0.14174,-0.09449 0.109797,-0.03156 0.220753,-0.06326 0.330729,-0.0945 0.03167,3.941461 0.06326,7.905739 0.0945,11.859003 -0.04699,-0.01601 -0.06273,-0.03176 -0.0945,-0.04725 -0.236762,0.01553 -0.472204,-2.65e-4 -0.708705,0 -2.191297,6.03836 -4.377959,12.063475 -6.567336,18.09561 -0.235982,0.645478 -0.440706,1.291154 -0.661458,1.937129 0.01603,1.606923 0.03176,3.212531 0.04725,4.819194 -0.04699,-0.03177 -0.09423,-0.06326 -0.14174,-0.09449 -0.15743,0.06281 -0.314716,0.125727 -0.472469,0.188987 0.06339,0.315354 0.126257,0.629697 0.188987,0.944941 -0.0155,0.377957 -0.03123,0.755689 -0.04725,1.13393 -0.567113,0.472548 -1.133663,0.944676 -1.700892,1.41741 -0.01548,0.220331 -0.03123,0.440708 -0.04725,0.661458 0.01603,4.225869 0.03176,8.441203 0.04725,12.662201 -0.172985,0.172988 -0.346213,0.346216 -0.519719,0.519719 -0.09437,5.788448 -0.188722,11.55951 -0.283482,17.33966 -0.04698,3.59067 -0.06273,7.18128 -0.09449,10.77232 -0.314737,0.31474 -0.629695,0.6297 -0.94494,0.94494 -0.441077,0.0628 -0.881679,0.12573 -1.322917,0.18899 -2.127279,1.35506 -4.251968,2.70856 -6.378347,4.06324 -0.141497,0.0785 -0.283218,0.15723 -0.425223,0.23624 -1.388724,-0.0476 -2.771561,-0.0948 -4.157739,-0.14174 -0.03124,0.33052 -0.06273,0.66119 -0.09449,0.99218 -0.1416,0.0943 -0.283218,0.18873 -0.425223,0.28349 2.65e-4,0.15756 2.65e-4,0.31471 0,0.47247 0.06336,0.28369 0.126257,0.5667 0.188987,0.85044 -0.141574,4.41251 -0.283218,8.81918 -0.425223,13.22917 -0.03124,-0.016 -0.06273,-0.0318 -0.09449,-0.0473 -0.426389,-0.0635 -0.850183,-0.12625 -1.27567,-0.18899 -0.251852,0.047 -0.503703,0.0942 -0.755954,0.14175 -4.414768,2.80643 -8.819179,5.60638 -13.229166,8.40997 -0.251737,0.0627 -0.472205,0.12572 -0.708705,0.18899 -0.835538,-0.016 -1.66913,-0.0318 -2.504092,-0.0473 -0.07851,0.33056 -0.157226,0.62969 -0.236235,0.94494 -0.157381,-2.7e-4 -0.314716,-2.7e-4 -0.47247,0 0.01604,0.14171 0.03176,0.28321 0.04725,0.42522 0.09491,0.22058 0.189253,0.44071 0.283483,0.66146 -0.04701,0.40945 -0.09423,0.81868 -0.141741,1.22842 -0.0943,0.0313 -0.188724,0.0627 -0.283483,0.0945 -0.394783,10.429 -0.787186,20.78842 -1.181175,31.18303 2.64e-4,0.047 2.64e-4,0.0942 0,0.14174 -0.14227,-0.0478 -0.283218,-0.0948 -0.425223,-0.14174 z" />
    </g>
    <text
       xml:space="preserve"
       style="font-style:normal;font-weight:normal;font-size:10.58333302px;line-height:1.25;font-family:sans-serif;letter-spacing:0px;word-spacing:0px;fill:#000000;fill-opacity:1;stroke:none;stroke-width:0.26458332"
       x="50.648811"
       y="194.19048"
       id="text966"><tspan
         sodipodi:role="line"
         id="tspan964"
         x="50.648811"
         y="203.55424"
         style="stroke-width:0.26458332" /></text>
    <flowRoot
       xml:space="preserve"
       id="flowRoot972"
       style="font-style:normal;font-weight:normal;font-size:40px;line-height:1.25;font-family:sans-serif;letter-spacing:0px;word-spacing:0px;fill:#000000;fill-opacity:1;stroke:none"><flowRegion
         id="flowRegion974"><rect
           id="rect976"
           width="760"
           height="62.857143"
           x="-180"
           y="733.94824" /></flowRegion><flowPara
         id="flowPara978" /></flowRoot>    <g
       id="g1063"
       transform="matrix(0.77443869,0,0,0.77443869,56.86746,82.245079)">
      <ellipse
         ry="177.83603"
         rx="186.86324"
         cy="82.800323"
         cx="124.77074"
         id="path1006"
         style="fill:#ffffff;fill-opacity:1;stroke:#000000;stroke-width:0.31217048;stroke-linecap:round;stroke-linejoin:round;stroke-miterlimit:4;stroke-dasharray:0.31217049, 0.624341;stroke-dashoffset:0;stroke-opacity:1" />
      <path
         id="path1002"
         transform="scale(0.26458333)"
         d="M 440.22852,245.81055 196.37695,610.51953 40.197266,844.10156 A 706.25475,672.13617 0 0 0 344.37695,973.57031 l 100.07813,-0.42383 160.43554,-0.67968 A 706.25475,672.13617 0 0 0 866.75586,869.28125 L 688.30859,608.4375 Z"
         style="fill:#e8e8e9;fill-opacity:1;stroke:#000000;stroke-width:0.74350524;stroke-linecap:round;stroke-linejoin:round;stroke-miterlimit:4;stroke-dasharray:0.7435053, 1.4870106;stroke-dashoffset:0;stroke-opacity:1"
         inkscape:connector-curvature="0" />
      <path
         id="path960"
         transform="scale(0.26458333)"
         d="m 440.39844,252.05664 c -2.54531,0.0888 -5.37004,5.0018 -12.47266,18.67383 -10.33108,19.88658 -29.25839,57.83583 -40.22266,78.12109 -10.96426,20.28527 -13.99117,22.95621 -16.26171,30.70117 -2.27055,7.74497 -3.78496,20.56866 -6.81055,29.91407 -3.02559,9.3454 -7.56514,15.2205 -12.10547,59.55468 -4.54033,44.33419 -9.08161,127.16829 -13.61914,168.54493 -4.53753,41.37663 -9.07897,41.37588 -20.42773,45.64843 -11.34876,4.27255 -29.16051,12.65541 -44.0879,16.47657 -14.92738,3.82115 -26.28402,2.75271 -33.46874,3.82031 -7.18473,1.06759 -9.86217,3.90346 -11.55079,19.8457 -1.68861,15.94225 -1.68892,44.26442 -4.33593,58.41406 -2.64702,14.14965 -7.94199,14.14819 -33.64063,22.77735 -25.69864,8.62915 -71.79753,25.88753 -95.986327,33.98437 -24.188797,8.09684 -26.458587,7.02886 -31.753906,7.5625 -4.048295,0.40797 -9.872233,1.75661 -16.107422,3.32227 A 706.25475,672.13617 0 0 0 471.57422,985.08203 706.25475,672.13617 0 0 0 849.72852,880.40625 c -3.0915,-32.06873 -5.41609,-32.58766 -10.77735,-32.58789 -5.67414,-2.5e-4 -14.75341,0.53368 -40.78125,-7.08789 -26.02784,-7.62157 -69.00225,-23.3997 -92.60547,-37.11133 -23.60321,-13.71163 -27.83371,-25.35579 -32.06445,-37 0.28465,-15.01193 0.57072,-30.02498 -0.55469,-39.25586 -1.12541,-9.23088 -3.66181,-12.68109 -12.92383,-15.40234 -9.26201,-2.72126 -25.25251,-4.71438 -41.98046,-10.26172 -16.72796,-5.54734 -34.19791,-14.65219 -44.89844,-19.30274 -10.70053,-4.65054 -14.65009,-4.85429 -17.00391,-16.9746 -2.35381,-12.12032 -3.11115,-36.15591 -4.24609,-63.13086 -1.13495,-26.97496 -2.6478,-56.8825 -4.91797,-74.24414 -2.27017,-17.36165 -5.29548,-22.16869 -6.80859,-35.25586 -1.51312,-13.08718 -1.51431,-34.45078 -4.54102,-49.94141 -3.02671,-15.49064 -8.79701,-24.65717 -12.7207,-36.36523 -3.92369,-11.70807 -5.43712,-25.06264 -9.97657,-33.875 -4.53944,-8.81237 -12.10503,-13.08663 -20.80664,-27.24219 -8.7016,-14.15556 -18.53687,-38.18953 -27.23828,-56.08399 -8.70141,-17.89446 -16.27626,-29.66029 -20.81054,-34.72851 -1.41697,-1.58382 -2.51687,-2.53842 -3.67383,-2.49805 z"
         style="fill:#aaaac6;fill-opacity:1;stroke:#ffffff;stroke-width:1.87147284;stroke-linecap:butt;stroke-linejoin:miter;stroke-miterlimit:4;stroke-dasharray:1.87147276, 3.74294552;stroke-dashoffset:0;stroke-opacity:1"
         inkscape:connector-curvature="0" />
      <path
         id="path1004"
         transform="scale(0.26458333)"
         d="M 471.57422,-359.18945 A 706.25475,672.13617 0 0 0 76.0625,-243.16406 L 192.36719,-85.480469 436.22852,245.13867 684.31641,-83.591797 824.08398,-268.79102 a 706.25475,672.13617 0 0 0 -352.50976,-90.39843 z"
         style="fill:#e8e8e9;fill-opacity:1;stroke:#000000;stroke-width:0.70791692;stroke-linecap:round;stroke-linejoin:round;stroke-miterlimit:4;stroke-dasharray:0.70791695, 1.4158339;stroke-dashoffset:0;stroke-opacity:1"
         inkscape:connector-curvature="0" />
      <g
         transform="matrix(1.6958217,0,0,2.0108961,198.4928,-74.875836)"
         id="g983">
        <path
           style="fill:none;stroke:#000000;stroke-width:4.26499987;stroke-linecap:round;stroke-linejoin:round;stroke-miterlimit:4;stroke-dasharray:none;stroke-opacity:1"
           d="m -77.508163,32.937707 c -12.472374,-2.494474 -24.944777,-4.988955 -33.943067,0.623735 -8.99829,5.612689 -14.52165,19.331995 -8.73069,27.261213 5.79096,7.929217 22.895737,10.067314 32.616875,16.519494 9.721139,6.45218 12.057981,17.217881 8.222609,25.021151 -3.835371,7.80327 -13.84276,12.64299 -22.305794,11.86205 -8.46304,-0.78093 -15.38152,-7.18279 -22.29997,-13.5846"
           id="path968"
           inkscape:connector-curvature="0"
           inkscape:path-effect="#path-effect970"
           inkscape:original-d="m -77.508163,32.937707 c -12.472342,-2.494632 -24.944747,-4.989113 -37.417737,-7.483546 -5.52355,13.72 -11.04691,27.439305 -16.57071,41.159505 17.10567,2.138054 34.210446,4.276151 51.315754,6.414468 2.337109,10.76616 4.673951,21.531861 7.010836,32.298526 -10.007817,4.83985 -20.015205,9.67957 -30.02288,14.5195 -6.91824,-6.40188 -13.83672,-12.80374 -20.7553,-19.20541"
           sodipodi:nodetypes="ccccccc" />
        <path
           sodipodi:nodetypes="ccccccc"
           inkscape:original-d="m -74.849649,34.931593 c -13.358516,-3.159299 -26.717071,-6.318398 -40.076251,-9.477432 -5.5235,13.719926 -11.04688,27.439279 -16.57071,41.159505 16.21951,0.808741 32.438122,1.617616 48.65724,2.426696 9.205307,14.421623 18.409592,28.84249 27.614322,43.264898 -15.893429,11.31407 -31.786732,22.6281 -47.679862,33.94206 -10.90982,-9.4183 -21.82023,-18.83679 -32.73064,-28.25496"
           inkscape:path-effect="#path-effect974"
           inkscape:connector-curvature="0"
           id="path972"
           d="m -74.849649,34.931593 c -13.358563,-3.1591 -26.717121,-6.318198 -36.158481,-1.03787 -9.44136,5.280327 -14.96474,18.999681 -9.61686,26.264272 5.34788,7.264591 21.566493,8.073466 34.278518,15.68885 12.712026,7.615385 21.916311,22.036251 18.572165,34.904385 -3.344146,12.86813 -19.237448,24.18216 -32.639013,25.13007 -13.40157,0.9479 -24.31198,-8.47059 -35.22223,-17.88894"
           style="fill:none;stroke:#000000;stroke-width:4.26499987;stroke-linecap:round;stroke-linejoin:round;stroke-miterlimit:4;stroke-dasharray:none;stroke-opacity:1"
           transform="matrix(0.8042673,0,0,0.8042673,-17.954886,10.289179)" />
        <path
           transform="matrix(0.8042673,0,0,0.8042673,-9.6394098,11.045131)"
           style="fill:none;stroke:#000000;stroke-width:4.26499987;stroke-linecap:round;stroke-linejoin:round;stroke-miterlimit:4;stroke-dasharray:none;stroke-opacity:1"
           d="m -86.12877,40.571154 c -11.008771,-3.472402 -22.01744,-6.944773 -30.04895,-3.465973 -8.0315,3.478799 -13.08484,13.908331 -7.89357,19.449743 5.19126,5.541412 20.62648,6.193632 33.181849,14.670629 12.555367,8.476997 22.22959,24.777616 18.337135,39.682317 -3.892454,14.90471 -21.352305,28.41191 -36.398684,29.98642 -15.04638,1.57451 -27.68004,-8.78394 -40.3135,-19.14223"
           id="path976"
           inkscape:connector-curvature="0"
           inkscape:path-effect="#path-effect978"
           inkscape:original-d="m -86.12877,40.571154 c -11.008707,-3.472606 -22.01738,-6.944977 -33.0268,-10.417359 -5.05358,10.43022 -10.10692,20.85975 -15.16082,31.290274 15.43637,0.65209 30.87159,1.304309 46.307423,1.956732 9.67528,16.301519 19.349503,32.602138 29.024212,48.904459 -17.460026,13.50729 -34.919876,27.01449 -52.379495,40.52155 -12.63297,-10.35819 -25.26663,-20.71665 -37.90024,-31.07475"
           sodipodi:nodetypes="ccccccc" />
      </g>
      <g
         transform="matrix(1.9974616,0,0,2.2847089,216.64612,-73.519573)"
         id="g1000">
        <path
           sodipodi:nodetypes="ccccccccccc"
           style="fill:none;stroke:#000000;stroke-width:3.36500001;stroke-linecap:round;stroke-linejoin:miter;stroke-miterlimit:4;stroke-dasharray:none;stroke-opacity:1"
           d="m 9.0714284,27.125001 c -8.31516506,2.015797 -16.6306415,4.03167 -22.4264234,8.819387 -5.795782,4.787716 -9.071455,12.34696 -10.961409,22.04862 -1.889955,9.701661 -2.393901,21.544413 -0.25201,31.497979 2.141891,9.953565 6.929477,18.016873 12.616617,22.985953 5.6871399,4.96908 12.27338501,6.84358 19.7242859,6.77286 7.4509011,-0.0707 15.7665341,-2.08662 20.0501071,-7.75623 4.283572,-5.66961 4.535563,-14.993225 4.031582,-21.544737 C 31.350197,83.397322 30.09024,79.617451 25.680715,77.727653 21.271191,75.837855 13.711592,75.837855 8.2938708,75.963842 c -5.4177212,0.125987 -8.69336872,0.37796 -11.9694483,0.629967"
           id="path985"
           inkscape:connector-curvature="0"
           inkscape:path-effect="#path-effect987"
           inkscape:original-d="m 9.0714284,27.125001 c -8.31521143,2.015606 -16.6306876,4.03148 -24.9464284,6.047618 -3.275651,7.55954 -6.551322,15.118784 -9.827381,22.67857 -0.503724,11.843491 -1.007671,23.686243 -1.511904,35.529763 4.788074,8.063415 9.575661,16.126718 14.363095,24.190478 6.5865856,1.8744 13.17282886,3.74891 19.7589457,5.62357 8.3156103,-2.01601 16.6312443,-4.03192 24.9464273,-6.04762 0.252151,-9.32342 0.504142,-18.647031 0.755955,-27.970237 -1.259743,-3.779887 -2.519701,-7.559758 -3.779764,-11.339288 -7.559183,-1.48e-4 -15.118782,-1.48e-4 -22.6785703,0 -3.2756644,0.25184 -6.55131195,0.503813 -9.8273812,0.755954"
           transform="matrix(0.78502886,0,0,0.78502886,-7.0676383,9.8784742)" />
        <path
           transform="matrix(0.78502886,0,0,0.78502886,-10.331583,7.5046964)"
           inkscape:original-d="m 12.775595,25.272918 c -8.932572,2.368385 -17.8650775,4.736948 -26.798512,7.105951 -3.893035,8.35332 -7.78588,16.705929 -11.679464,25.05982 -0.503725,11.314302 -1.007671,22.62791 -1.511904,33.942263 4.082502,9.915538 8.16451,19.830788 12.246428,29.746728 11.0845489,3.19733 22.1684655,6.39468 33.252696,9.59232 8.315772,-5.36749 16.631045,-10.73463 24.946427,-16.10179 -1.247162,-11.9695 -2.494482,-23.938747 -3.741961,-35.907734 -3.905549,-1.045873 -7.811291,-2.091604 -11.717264,-3.137204 -3.678844,-0.35293 -7.357558,-0.705684 -11.036904,-1.058334 -5.480794,0.42825 -10.961034,0.856591 -16.44196429,1.285121"
           inkscape:path-effect="#path-effect991"
           inkscape:connector-curvature="0"
           id="path989"
           d="m 12.775595,25.272918 c -8.9325237,2.368567 -17.8650294,4.73713 -24.278346,10.098173 -6.413317,5.361044 -10.306162,13.713653 -12.504885,23.547771 -2.198722,9.834118 -2.702669,21.147726 -0.913568,31.762743 1.7891,10.615015 5.871109,20.530265 13.454476,27.086925 7.5833663,6.55667 18.6672831,9.75402 28.367319,8.66901 9.700036,-1.08501 18.015313,-6.45214 21.549321,-15.12048 3.534009,-8.66833 2.286688,-20.637578 -0.289758,-27.144927 -2.576446,-6.50735 -6.482188,-7.553081 -10.27458,-8.252355 -3.792393,-0.699274 -7.471107,-1.052027 -12.051164,-1.014242 -4.580057,0.03779 -10.0602965,0.466127 -15.54123729,0.894523"
           style="fill:none;stroke:#000000;stroke-width:3.36500001;stroke-linecap:round;stroke-linejoin:miter;stroke-miterlimit:4;stroke-dasharray:none;stroke-opacity:1"
           sodipodi:nodetypes="ccccccccccc" />
        <path
           sodipodi:nodetypes="ccccccccccc"
           style="fill:none;stroke:#000000;stroke-width:3.36500001;stroke-linecap:round;stroke-linejoin:miter;stroke-miterlimit:4;stroke-dasharray:none;stroke-opacity:1"
           d="m 15.421428,25.272918 c -9.6380773,2.721339 -19.2761121,5.442666 -26.350904,11.112406 -7.074793,5.669739 -11.584949,14.28691 -14.18057,24.517917 -2.595621,10.231008 -3.275934,22.07349 -1.663233,33.394202 1.6127,11.320707 5.518323,22.117877 14.204124,29.953377 8.6858002,7.83551 22.1509512,12.70852 33.791261,11.09434 11.640309,-1.61419 21.45489,-9.71532 25.16529,-20.32392 3.7104,-10.6086 1.316551,-23.724373 -2.803275,-30.716811 -4.119825,-6.992437 -9.965833,-7.861779 -14.90477,-8.340564 -4.938937,-0.478785 -8.970402,-0.566974 -13.021274,-0.440983 -4.050871,0.12599 -8.1200731,0.466141 -12.1899043,0.806344"
           id="path993"
           inkscape:connector-curvature="0"
           inkscape:path-effect="#path-effect995"
           inkscape:original-d="m 15.421428,25.272918 c -9.638127,2.721163 -19.2761618,5.44249 -28.915178,8.164284 -4.51042,8.617913 -9.020576,17.235084 -13.531548,25.85357 -0.680121,11.843491 -1.360433,23.685973 -2.04107,35.529763 3.906107,10.797505 7.811733,21.594665 11.717261,32.392565 13.4658178,4.87305 26.93097,9.74606 40.396446,14.6194 9.815071,-8.10154 19.629655,-16.20266 29.444344,-24.30387 C 50.097986,104.41261 47.704138,91.296832 45.310138,78.181309 39.464321,77.311822 33.618313,76.44248 27.772041,75.573272 23.740417,75.484928 19.708952,75.39674 15.676804,75.308688 11.607195,75.648739 7.5379928,75.98889 3.4681727,76.329226"
           transform="matrix(0.78502886,0,0,0.78502886,-12.616344,3.973702)" />
      </g>
      <path
         inkscape:connector-curvature="0"
         style="fill:#aaaac6;fill-opacity:1;stroke:#ffffff;stroke-width:0.44780937;stroke-linecap:butt;stroke-linejoin:miter;stroke-miterlimit:4;stroke-dasharray:0.44780936, 0.89561873;stroke-dashoffset:0;stroke-opacity:1"
         d="m 116.5215,66.211444 c -0.67364,-0.01921 -1.42124,-1.082075 -3.30102,-4.039841 C 110.48626,57.8694 105.47696,49.659572 102.57515,45.271119 99.673348,40.882664 98.872246,40.304841 98.271325,38.62932 97.670401,36.953796 97.269597,34.179557 96.468844,32.157799 95.668091,30.136043 94.466653,28.865041 93.265009,19.273917 92.063365,9.6827904 90.861469,-8.2372919 89.660566,-17.188591 c -1.200903,-8.951297 -2.402841,-8.951135 -5.406405,-9.875445 -3.003564,-0.924311 -7.717624,-2.737834 -11.668308,-3.564492 -3.950682,-0.826656 -6.956332,-0.595513 -8.857841,-0.826475 -1.901511,-0.230959 -2.610123,-0.844463 -3.057033,-4.293359 -0.446908,-3.448899 -0.44699,-9.576033 -1.147548,-12.637124 -0.70056,-3.061093 -2.101927,-3.060777 -8.903332,-4.927584 -6.801405,-1.866805 -19.001942,-5.600431 -25.403751,-7.352077 -6.40181,-1.751647 -7.002533,-1.520603 -8.403992,-1.636049 -1.071422,-0.08826 -2.612786,-0.38002 -4.262992,-0.71873 a 186.91745,145.40794 0 0 1 112.223116,-29.349159 186.91745,145.40794 0 0 1 100.08236,22.645247 c -0.8182,6.937653 -1.43342,7.049917 -2.85233,7.049967 -1.50172,5.4e-5 -3.90464,-0.115455 -10.79317,1.533373 -6.88854,1.648828 -18.26215,5.062221 -24.50898,8.028554 -6.24683,2.966333 -7.36647,5.485396 -8.48618,8.00447 0.0753,3.247636 0.15105,6.495515 -0.1468,8.492496 -0.29785,1.996981 -0.96914,2.743389 -3.42042,3.332096 -2.45129,0.588709 -6.68334,1.019895 -11.11056,2.21999 -4.42722,1.200095 -9.05082,3.169811 -11.88282,4.175897 -2.83201,1.006084 -3.8773,1.050163 -4.50026,3.672235 -0.62296,2.622074 -0.8234,7.821862 -1.12377,13.6575418 -0.30038,5.8356825 -0.70077,12.3057905 -1.30159,16.061756 -0.60082,3.7559672 -1.4015,4.7959082 -1.80196,7.6271472 -0.40047,2.831242 -0.40078,7.45298 -1.20183,10.804176 -0.80105,3.351199 -2.32822,5.334259 -3.36666,7.867146 -1.03845,2.532889 -1.43899,5.421977 -2.6404,7.328416 -1.20141,1.906442 -3.20372,2.831123 -5.50669,5.893495 -2.30297,3.062371 -4.90597,8.261809 -7.20889,12.133043 -2.30291,3.871234 -4.30767,6.416619 -5.50771,7.513062 -0.37502,0.342639 -0.66612,0.549154 -0.97232,0.540421 z"
         id="path1029" />
    </g>
  </g>
</svg>
