<?xml version="1.0" encoding="UTF-8" standalone="no"?>
<svg
   xmlns:dc="http://purl.org/dc/elements/1.1/"
   xmlns:cc="http://creativecommons.org/ns#"
   xmlns:rdf="http://www.w3.org/1999/02/22-rdf-syntax-ns#"
   xmlns:svg="http://www.w3.org/2000/svg"
   xmlns="http://www.w3.org/2000/svg"
   xmlns:sodipodi="http://sodipodi.sourceforge.net/DTD/sodipodi-0.dtd"
   xmlns:inkscape="http://www.inkscape.org/namespaces/inkscape"
   sodipodi:docname="nova_logo_psg.svg"
   inkscape:version="1.0beta2 (unknown)"
   id="svg8"
   version="1.1"
   viewBox="0 0 210 210"
   height="210mm"
   width="210mm">
  <defs
     id="defs2">
    <inkscape:path-effect
       lpeversion="0"
       effect="bspline"
       id="path-effect995"
       is_visible="true"
       weight="33.333333"
       steps="2"
       helper_size="0"
       apply_no_weight="true"
       apply_with_weight="true"
       only_selected="false" />
    <inkscape:path-effect
       lpeversion="0"
       only_selected="false"
       apply_with_weight="true"
       apply_no_weight="true"
       helper_size="0"
       steps="2"
       weight="33.333333"
       is_visible="true"
       id="path-effect991"
       effect="bspline" />
    <inkscape:path-effect
       lpeversion="0"
       effect="bspline"
       id="path-effect987"
       is_visible="true"
       weight="33.333333"
       steps="2"
       helper_size="0"
       apply_no_weight="true"
       apply_with_weight="true"
       only_selected="false" />
    <inkscape:path-effect
       lpeversion="0"
       effect="bspline"
       id="path-effect978"
       is_visible="true"
       weight="33.333333"
       steps="2"
       helper_size="0"
       apply_no_weight="true"
       apply_with_weight="true"
       only_selected="false" />
    <inkscape:path-effect
       lpeversion="0"
       only_selected="false"
       apply_with_weight="true"
       apply_no_weight="true"
       helper_size="0"
       steps="2"
       weight="33.333333"
       is_visible="true"
       id="path-effect974"
       effect="bspline" />
    <inkscape:path-effect
       lpeversion="0"
       effect="bspline"
       id="path-effect970"
       is_visible="true"
       weight="33.333333"
       steps="2"
       helper_size="0"
       apply_no_weight="true"
       apply_with_weight="true"
       only_selected="false" />
    <inkscape:path-effect
       lpeversion="0"
       only_selected="false"
       apply_with_weight="true"
       apply_no_weight="true"
       helper_size="0"
       steps="2"
       weight="33.333333"
       is_visible="true"
       id="path-effect951"
       effect="bspline" />
    <inkscape:path-effect
       lpeversion="0"
       effect="bspline"
       id="path-effect1208"
       is_visible="true"
       weight="33.333333"
       steps="2"
       helper_size="0"
       apply_no_weight="true"
       apply_with_weight="true"
       only_selected="false" />
    <inkscape:path-effect
       lpeversion="0"
       effect="bspline"
       id="path-effect962"
       is_visible="true"
       weight="33.333333"
       steps="2"
       helper_size="0"
       apply_no_weight="true"
       apply_with_weight="true"
       only_selected="false" />
    <inkscape:path-effect
       lpeversion="0"
       effect="bspline"
       id="path-effect958"
       is_visible="true"
       weight="33.333333"
       steps="2"
       helper_size="0"
       apply_no_weight="true"
       apply_with_weight="true"
       only_selected="false" />
    <inkscape:path-effect
       lpeversion="0"
       only_selected="false"
       apply_with_weight="true"
       apply_no_weight="true"
       helper_size="0"
       steps="2"
       weight="33.333333"
       is_visible="true"
       id="path-effect950"
       effect="bspline" />
    <inkscape:path-effect
       lpeversion="0"
       effect="bspline"
       id="path-effect946"
       is_visible="true"
       weight="33.333333"
       steps="2"
       helper_size="0"
       apply_no_weight="true"
       apply_with_weight="true"
       only_selected="false" />
    <clipPath
       clipPathUnits="userSpaceOnUse"
       id="clipPath1210">
      <path
         style="fill:#000080;stroke:#000000;stroke-width:0;stroke-linecap:butt;stroke-linejoin:miter;stroke-miterlimit:4;stroke-dasharray:none;stroke-opacity:1"
         d="m 227.477,280.54887 c -0.003,-1.03301 -0.008,-3.0988 -0.0167,-4.14554 -0.008,-1.04674 -0.0195,-1.07462 -0.20856,-1.14126 -0.18902,-0.0666 -0.55685,-0.17253 -1.0526,-0.38977 -0.49574,-0.21723 -1.11907,-0.5456 -1.60356,-0.85467 -0.48449,-0.30907 -0.82965,-0.59856 -1.21112,-1.0385 -0.38147,-0.43994 -0.79905,-1.03012 -1.08024,-1.61481 -0.28118,-0.58469 -0.42597,-1.16384 -0.55402,-1.6482 -0.12805,-0.48435 -0.23945,-0.87424 -0.40475,-1.29675 -0.1653,-0.42252 -0.38038,-0.86922 -0.5307,-1.26454 -0.15032,-0.39533 -0.23387,-0.73509 -0.28118,-0.96895 -0.0473,-0.23385 -0.0584,-0.36197 0.0999,-0.21471 0.15839,0.14726 0.48752,0.57122 0.89685,0.93599 0.40933,0.36477 0.89927,0.67098 1.43934,1.00226 0.54007,0.33128 1.13037,0.68768 1.60921,0.97721 0.47884,0.28953 0.84638,0.51229 1.21381,0.77673 0.36743,0.26444 0.735,0.57075 1.00223,0.8658 0.26722,0.29505 0.43429,0.57905 0.52911,0.71542 0.0948,0.13638 0.1171,0.12524 0.13359,-0.50333 0.0165,-0.62858 0.0277,-1.89947 0.0291,-2.53276 0.001,-0.63328 -0.001,-0.63598 -0.0791,-0.61931 -0.0778,0.0167 -0.22813,0.0557 -0.41223,0.005 -0.18409,-0.0502 -0.4008,-0.18911 -0.54007,-0.35629 -0.13927,-0.16718 -0.2005,-0.36199 -0.22272,-0.50683 -0.0222,-0.14483 -0.006,-0.2395 -0.18313,-0.45041 -0.17761,-0.21091 -0.55186,-0.54047 -1.09201,-1.1558 -0.54014,-0.61532 -1.24726,-1.51731 -1.73169,-2.23284 -0.48444,-0.71553 -0.74615,-1.24452 -0.95772,-1.7846 -0.21157,-0.54009 -0.37308,-1.09144 -0.46771,-1.60646 -0.0946,-0.51502 -0.12247,-0.99402 -0.1169,-1.21663 0.006,-0.22261 0.0446,-0.18915 0.0919,-0.0752 0.0473,0.11399 0.10298,0.30898 0.24509,0.5319 0.14211,0.22292 0.3702,0.47326 0.70992,0.70994 0.33972,0.23669 0.79072,0.4594 1.23335,0.65426 0.44263,0.19487 0.87705,0.36195 1.20828,0.51226 0.33124,0.15032 0.55961,0.284 0.77949,0.43429 0.21987,0.1503 0.43154,0.31741 0.58184,0.45378 0.15029,0.13638 0.23941,0.24221 0.29237,0.26709 0.053,0.0249 0.0696,-0.0308 0.0724,-0.11945 0.003,-0.0887 -0.008,-0.21189 0.0361,-0.34264 0.0446,-0.13074 0.14499,-0.27021 0.24238,-0.35918 0.0974,-0.089 0.19225,-0.12802 0.23384,-0.15861 0.0416,-0.0306 0.0304,-0.0529 0.0304,-0.21374 0,-0.16084 0.0112,-0.46295 -0.0112,-0.60297 -0.0224,-0.14002 -0.0886,-0.11596 -0.20883,-0.10756 -0.12021,0.008 -0.29746,0.003 -0.4703,-0.0668 -0.17285,-0.0697 -0.33965,-0.20314 -0.46499,-0.36193 -0.12534,-0.15879 -0.20884,-0.34249 -0.24778,-0.50956 -0.0389,-0.16707 -0.0334,-0.3175 4e-5,-0.45939 0.0334,-0.14188 0.0948,-0.27576 0.12834,-0.34542 0.0335,-0.0697 0.0389,-0.0751 -0.0891,-0.15506 -0.12804,-0.08 -0.41224,-0.2482 -0.83275,-0.59073 -0.42051,-0.34254 -0.98829,-0.86579 -1.40314,-1.31406 -0.41486,-0.44826 -0.67655,-0.82132 -0.86865,-1.19441 -0.1921,-0.37309 -0.31462,-0.74621 -0.37305,-1.03576 -0.0584,-0.28956 -0.0529,-0.49567 -0.14187,-0.82938 -0.089,-0.33371 -0.27299,-0.79648 -0.37597,-1.20852 -0.10299,-0.41204 -0.12526,-0.77407 -0.11971,-0.93824 0.006,-0.16417 0.0391,-0.13067 0.20538,0.11472 0.16634,0.24539 0.45723,0.68996 0.71063,0.99905 0.2534,0.30909 0.46496,0.4761 0.77122,0.64315 0.30627,0.16704 0.70724,0.33411 1.0496,0.50112 0.34237,0.16702 0.62644,0.33411 0.86302,0.5039 0.23658,0.16978 0.42595,0.34245 0.53162,0.42507 0.10568,0.0826 0.11738,0.0787 0.0955,-0.0579 -0.0219,-0.13665 -0.0843,-0.41468 -0.0926,-0.83213 -0.008,-0.41745 0.0362,-0.98024 0.15038,-1.56753 0.11413,-0.5873 0.29797,-1.2001 0.55127,-1.85139 0.25329,-0.6513 0.57641,-1.34209 0.79911,-1.80141 0.22271,-0.45932 0.34527,-0.68772 0.40921,-0.77399 0.0639,-0.0863 0.0695,-0.0306 0.12018,0.34949 0.0507,0.38008 0.1442,1.06765 0.27785,1.6914 0.13365,0.62375 0.30621,1.17481 0.44264,1.64536 0.13644,0.47056 0.23663,0.86021 0.32357,1.21372 0.0869,0.3535 0.15807,0.65988 0.18315,1.02746 0.0251,0.36759 0.003,0.79051 -0.006,1.01056 -0.008,0.22005 -0.003,0.23661 0.17716,0.0791 0.18002,-0.1575 0.52748,-0.4829 1.03234,-0.82859 0.50485,-0.34569 1.16005,-0.7066 1.62802,-0.93702 0.46798,-0.23042 0.74718,-0.32949 1.10103,-0.4183 0.35385,-0.0888 0.78351,-0.16765 1.05512,-0.21094 0.27162,-0.0433 0.38589,-0.0511 0.4273,-0.0473 0.0414,0.004 0.01,0.0196 -0.16702,0.19054 -0.17687,0.1709 -0.49257,0.4905 -0.72891,0.778 -0.23633,0.28751 -0.38976,0.53928 -0.52964,0.82295 -0.13988,0.28367 -0.26572,0.59827 -0.38982,0.94494 -0.12409,0.34667 -0.24602,0.72426 -0.38188,1.03344 -0.13585,0.30918 -0.28534,0.54915 -0.48232,0.78359 -0.19698,0.23444 -0.44078,0.4625 -0.78749,0.73043 -0.34671,0.26793 -0.79506,0.5747 -1.07661,0.75389 -0.28155,0.1792 -0.39564,0.23034 -0.43514,0.33685 -0.0395,0.10651 -0.004,0.26747 -0.0297,0.44866 -0.0256,0.18119 -0.11206,0.38173 -0.21051,0.53145 -0.0984,0.14973 -0.20851,0.24801 -0.32874,0.319 -0.12022,0.071 -0.24982,0.1142 -0.39772,0.12605 -0.1479,0.0118 -0.31286,-0.008 -0.435,-0.0295 -0.12215,-0.0217 -0.20078,-0.0453 -0.24024,0.0572 -0.0395,0.10245 -0.0395,0.33032 -0.0493,0.55092 -0.01,0.22059 -0.0295,0.43295 0.006,0.56111 0.0355,0.12815 0.12597,0.17141 0.2105,0.24807 0.0845,0.0767 0.16339,0.18704 0.21065,0.28736 0.0473,0.10032 0.063,0.19087 0.10262,0.23428 0.0396,0.0434 0.10246,0.0395 0.19466,0.0591 0.0922,0.0196 0.2148,0.0631 0.30128,0.13975 0.0865,0.0766 0.13772,0.187 0.16934,0.24818 0.0316,0.0612 0.0433,0.0728 0.12018,0.0412 0.0769,-0.0316 0.21863,-0.10642 0.47563,-0.24877 0.257,-0.14236 0.62495,-0.34982 1.048,-0.54067 0.42305,-0.19085 0.89987,-0.36424 1.38005,-0.54529 0.48019,-0.18106 0.96479,-0.37018 1.30529,-0.53751 0.34049,-0.16733 0.53748,-0.3131 0.71451,-0.48819 0.17702,-0.17509 0.33475,-0.38014 0.41729,-0.46279 0.0825,-0.0827 0.0904,-0.0432 0.0568,0.11293 -0.0336,0.15615 -0.10803,0.42642 -0.19667,0.75344 -0.0887,0.32701 -0.19091,0.70848 -0.33073,1.12798 -0.13983,0.41951 -0.31686,0.87586 -0.56696,1.40169 -0.25011,0.52583 -0.57274,1.11994 -0.887,1.60928 -0.31427,0.48935 -0.62273,0.8769 -0.95662,1.23434 -0.33389,0.35745 -0.68976,0.68203 -1.08364,0.96171 -0.39388,0.27967 -0.8227,0.51178 -1.05314,0.6712 -0.23043,0.15941 -0.26191,0.24596 -0.31713,0.34264 -0.0552,0.0967 -0.13369,0.2026 -0.24209,0.27953 -0.10841,0.0769 -0.24582,0.12405 -0.39566,0.14575 -0.14984,0.0217 -0.31089,0.0177 -0.42883,-7.3e-4 -0.11793,-0.0185 -0.18538,-0.0485 -0.21891,-0.0407 -0.0335,0.008 -0.0296,0.0549 -0.0355,0.33178 -0.006,0.2769 -0.0216,0.77828 -0.0294,1.42422 -0.008,0.64593 -0.008,1.43295 0.002,1.8347 0.01,0.40175 0.0295,0.41745 0.0847,0.43521 0.0552,0.0177 0.14588,0.0375 0.23034,0.0807 0.0845,0.0432 0.16341,0.11033 0.22245,0.1674 0.059,0.0571 0.0984,0.1043 0.13105,0.11499 0.0327,0.0107 0.0543,-0.0109 0.0914,-0.0305 0.0372,-0.0195 0.0889,-0.0355 0.13405,-0.063 0.0451,-0.0275 0.0847,-0.0671 0.12585,-0.15138 0.0411,-0.0842 0.0847,-0.21504 0.20461,-0.44104 0.11989,-0.22599 0.31723,-0.54963 0.63401,-0.90376 0.31678,-0.35413 0.75424,-0.74036 1.17738,-1.02767 0.42314,-0.28731 0.83288,-0.47642 1.16548,-0.61417 0.33259,-0.13775 0.58871,-0.22443 0.80909,-0.29724 0.22038,-0.0728 0.40565,-0.13193 0.71828,-0.19681 0.31262,-0.0649 0.75435,-0.13586 1.15975,-0.17719 0.4054,-0.0413 0.77574,-0.0532 0.99621,-0.063 0.22047,-0.01 0.29141,-0.0177 0.31241,0.0192 0.021,0.0369 -0.005,0.11244 -0.1141,0.35737 -0.10864,0.24494 -0.29687,0.65277 -0.52335,1.08604 -0.22647,0.43327 -0.49007,0.88965 -0.80514,1.31698 -0.31506,0.42734 -0.68097,0.82474 -1.10437,1.17727 -0.42339,0.35253 -0.9034,0.65942 -1.46072,0.95877 -0.55732,0.29935 -1.19081,0.59052 -1.55504,0.75395 -0.36424,0.16342 -0.45865,0.19883 -0.50606,0.26191 -0.0474,0.0631 -0.0474,0.15332 -0.0937,0.24704 -0.0463,0.0937 -0.13455,0.18582 -0.24694,0.25487 -0.11238,0.0691 -0.24587,0.11224 -0.39371,0.12183 -0.14785,0.01 -0.30108,-0.0134 -0.39175,0.0397 -0.0907,0.0531 -0.11426,0.1828 -0.13815,0.27804 -0.0239,0.0952 -0.0469,0.1528 -0.13981,0.23386 -0.0929,0.0811 -0.25344,0.18288 -0.37956,0.23809 -0.12612,0.0552 -0.21645,0.0631 -0.26187,0.10835 -0.0454,0.0453 -0.0454,0.1277 -0.0494,1.26118 -0.004,1.13347 -0.0118,3.30379 -0.0353,4.39648 -0.0235,1.0927 -0.0628,1.10056 -0.16451,0.97491 -0.10165,-0.12566 -0.26276,-0.38085 -0.34393,-0.5094 -0.0812,-0.12855 -0.0812,-0.12842 -0.0839,-1.16143 z"
         id="path1212"
         inkscape:connector-curvature="0"
         inkscape:path-effect="#path-effect1208"
         inkscape:original-d="m 227.47978,281.58188 c -0.005,-2.06602 -0.0109,-4.13181 -0.0167,-6.19731 -0.0109,-0.0281 -0.022,-0.056 -0.0334,-0.0835 -0.36542,-0.11108 -0.73473,-0.21186 -1.10249,-0.31737 -0.62365,-0.32896 -1.24699,-0.65731 -1.87088,-0.98558 -0.34501,-0.28985 -0.69018,-0.57933 -1.03567,-0.86862 -0.41737,-0.59053 -0.83495,-1.18071 -1.25283,-1.77065 -0.14449,-0.5793 -0.28928,-1.15845 -0.43431,-1.73725 -0.11106,-0.38992 -0.22246,-0.77981 -0.33409,-1.1693 -0.21679,-0.45665 -0.43404,-0.90231 -0.65147,-1.35305 -0.0832,-0.33983 -0.16678,-0.67959 -0.25056,-1.01897 -0.0109,-0.12827 -0.022,-0.2564 -0.0334,-0.3842 0.32817,0.42212 0.6573,0.84609 0.98556,1.26953 0.4903,0.30601 0.98025,0.61221 1.46998,0.91873 0.5904,0.35605 1.1807,0.71245 1.77066,1.06908 0.36771,0.22244 0.73526,0.44519 1.10249,0.66818 0.36768,0.30591 0.73525,0.61222 1.10248,0.91874 0.1673,0.28368 0.33435,0.56769 0.50113,0.8519 0.0225,-0.0114 0.0448,-0.0225 0.0668,-0.0334 0.006,-1.24621 0.0225,-2.51706 0.0334,-3.77518 -0.0109,-0.006 -0.0109,-0.0114 -0.0167,-0.0167 -0.15007,0.0387 -0.30041,0.0777 -0.45102,0.11695 -0.21734,-0.13975 -0.43404,-0.27869 -0.65146,-0.41762 -0.061,-0.19521 -0.12224,-0.39002 -0.18375,-0.58465 0.017,-0.0949 0.0337,-0.18957 0.0501,-0.28398 -0.37161,-0.32774 -0.74586,-0.6573 -1.11919,-0.98554 -0.70692,-0.90235 -1.41404,-1.80434 -2.12145,-2.70611 -0.26143,-0.52922 -0.52314,-1.05821 -0.78511,-1.58691 -0.16117,-0.5514 -0.32268,-1.10275 -0.48442,-1.65373 -0.0276,-0.47898 -0.0554,-0.95799 -0.0835,-1.43658 0.0392,0.0331 0.0782,0.0666 0.11693,0.10023 0.0559,0.19451 0.11162,0.3895 0.16704,0.58465 0.22876,0.25053 0.45685,0.50087 0.68488,0.7517 0.4513,0.22247 0.9023,0.44518 1.35305,0.66817 0.43447,0.16674 0.86889,0.33382 1.30294,0.50113 0.22848,0.13333 0.45685,0.26701 0.68488,0.4009 0.21177,0.16672 0.42344,0.33383 0.63476,0.50113 0.0893,0.10552 0.17845,0.21133 0.26727,0.31739 0.017,-0.056 0.0337,-0.11163 0.0501,-0.16705 -0.0108,-0.12206 -0.022,-0.24526 -0.0334,-0.36749 0.10029,-0.1392 0.20071,-0.27867 0.30068,-0.41761 0.0947,-0.0392 0.18958,-0.0782 0.28397,-0.11693 -0.0108,-0.0225 -0.022,-0.0448 -0.0334,-0.0668 0.0114,-0.29951 0.0225,-0.60162 0.0334,-0.90203 -0.0554,0.022 -0.12223,0.0443 -0.18375,0.0668 -0.17884,-0.006 -0.35609,-0.0114 -0.53454,-0.0167 -0.16702,-0.13409 -0.33382,-0.26754 -0.50113,-0.40091 -0.0833,-0.18405 -0.16678,-0.36776 -0.25056,-0.55124 0.006,-0.1505 0.0114,-0.30094 0.0167,-0.45102 0.0614,-0.13365 0.12276,-0.26753 0.18375,-0.4009 0.006,-0.006 0.0114,-0.0114 0.0167,-0.0167 -0.26491,-0.14876 -0.54541,-0.32321 -0.81851,-0.48442 -0.56785,-0.52382 -1.13563,-1.04707 -1.70384,-1.57021 -0.26144,-0.37334 -0.52314,-0.74639 -0.78511,-1.11919 -0.12221,-0.37328 -0.24473,-0.74639 -0.36749,-1.11919 0.006,-0.2062 0.0114,-0.41231 0.0167,-0.61806 -0.18324,-0.46181 -0.36723,-0.92458 -0.55124,-1.38646 -0.022,-0.36209 -0.0443,-0.72412 -0.0668,-1.08579 0.0336,0.0331 0.0671,0.0666 0.10023,0.10023 0.30094,0.45632 0.59048,0.90177 0.88533,1.35305 0.21188,0.16681 0.42344,0.33382 0.63476,0.50113 0.40111,0.16675 0.80208,0.33383 1.20272,0.50113 0.28414,0.16673 0.56821,0.33382 0.85192,0.50113 0.18952,0.1723 0.37889,0.34496 0.56794,0.51784 0.0225,-0.006 0.0337,-0.0114 0.0501,-0.0167 -0.0598,-0.26791 -0.12224,-0.54594 -0.18375,-0.81851 0.0448,-0.56224 0.0893,-1.12503 0.13363,-1.68714 0.18392,-0.61245 0.36776,-1.22525 0.55125,-1.83748 0.32305,-0.69035 0.64616,-1.38115 0.96885,-2.07134 0.12271,-0.22845 0.24526,-0.45685 0.3675,-0.68488 0.006,0.0554 0.0114,0.1111 0.0167,0.16705 0.0953,0.70429 0.18958,1.39176 0.28398,2.08804 0.17293,0.55116 0.34548,1.10222 0.51783,1.65373 0.10052,0.38962 0.20072,0.77927 0.30068,1.16931 0.0727,0.31726 0.14504,0.62336 0.21716,0.93544 -0.022,0.42317 -0.0443,0.84609 -0.0668,1.26953 0.006,0.0165 0.0114,0.0331 0.0167,0.0501 0.35439,-0.3319 0.70185,-0.6573 1.05238,-0.98555 0.65679,-0.36748 1.31434,-0.72412 1.97111,-1.08579 0.27919,-0.0992 0.55837,-0.19831 0.83716,-0.29706 0.42894,-0.0789 0.85859,-0.15776 1.28748,-0.23624 0.11437,-0.008 0.22863,-0.016 0.34254,-0.0236 -0.0311,0.0155 -0.0627,0.0312 -0.0945,0.0473 -0.32187,0.32584 -0.63757,0.64544 -0.95675,0.96856 -0.15342,0.25193 -0.30684,0.50371 -0.46066,0.75596 -0.12588,0.3151 -0.25172,0.62969 -0.37798,0.94494 -0.12191,0.37809 -0.24384,0.75568 -0.36616,1.13392 -0.14948,0.24011 -0.29897,0.48009 -0.44885,0.72052 -0.24416,0.22839 -0.48795,0.45646 -0.73233,0.68508 -0.44908,0.30719 -0.89743,0.61395 -1.34654,0.92132 -0.11399,0.051 -0.22809,0.1021 -0.34254,0.15355 0.0358,0.16162 0.0711,0.32259 0.10631,0.48429 -0.0865,0.20078 -0.17298,0.40133 -0.25986,0.6024 -0.11016,0.0983 -0.22022,0.19659 -0.33073,0.29529 -0.12999,0.0431 -0.25959,0.0863 -0.38979,0.12993 -0.1655,-0.02 -0.33046,-0.0396 -0.49609,-0.0591 -0.0786,-0.0239 -0.15723,-0.0475 -0.23624,-0.0709 2.7e-4,0.22859 2.7e-4,0.45646 0,0.68508 -0.0194,0.2126 -0.0391,0.42496 -0.0591,0.63784 0.0909,0.0431 0.18138,0.0863 0.27167,0.12993 0.0789,0.10984 0.15776,0.22022 0.23624,0.33072 0.016,0.0903 0.0318,0.18085 0.0473,0.27168 0.0634,-0.004 0.12625,-0.008 0.18899,-0.0118 0.12177,0.0429 0.24437,0.0864 0.36616,0.12993 0.0514,0.10984 0.10263,0.22022 0.15355,0.33073 0.016,0.008 0.0239,0.0234 0.0354,0.0354 0.142,-0.0751 0.28374,-0.14988 0.42522,-0.22442 0.37347,-0.20847 0.74047,-0.41761 1.1103,-0.62602 0.47627,-0.17336 0.95308,-0.34675 1.42923,-0.51972 0.48422,-0.18913 0.96883,-0.37824 1.45284,-0.56697 0.197,-0.14584 0.39399,-0.29162 0.59059,-0.43703 0.15752,-0.20469 0.31525,-0.40974 0.47247,-0.61421 0.008,0.0391 0.016,0.0785 0.0236,0.11812 -0.0749,0.27281 -0.14935,0.54307 -0.22442,0.81501 -0.10222,0.38209 -0.20448,0.76356 -0.30711,1.14574 -0.17706,0.45683 -0.35409,0.91318 -0.53153,1.37016 -0.32281,0.59468 -0.64544,1.18879 -0.96856,1.78358 -0.30307,0.38579 -0.61395,0.77142 -0.92132,1.15755 -0.36223,0.32676 -0.71631,0.65331 -1.07487,0.98036 -0.42923,0.23223 -0.85805,0.46434 -1.28748,0.69689 -0.0313,0.0864 -0.0627,0.17298 -0.0945,0.25987 -0.0788,0.10642 -0.15723,0.21236 -0.23624,0.3189 -0.13792,0.0471 -0.27534,0.0942 -0.41341,0.14177 -0.16154,-0.004 -0.32259,-0.008 -0.48428,-0.0119 -0.0747,-0.0318 -0.14148,-0.0633 -0.21261,-0.0945 0.004,0.0471 0.008,0.0942 0.0118,0.14174 -0.0156,0.50628 -0.0312,1.00766 -0.0472,1.5119 2.7e-4,0.78762 2.7e-4,1.57464 0,2.36234 0.0199,0.0156 0.0396,0.0312 0.0591,0.0473 0.0907,0.0193 0.18138,0.0391 0.27167,0.0591 0.0788,0.0665 0.15775,0.13361 0.23624,0.20081 0.0396,0.047 0.079,0.0942 0.11811,0.14174 0.0239,-0.0279 0.0475,-0.0475 0.0709,-0.0709 0.0509,-0.0159 0.10264,-0.0318 0.15356,-0.0473 0.0394,-0.0394 0.079,-0.079 0.11811,-0.11811 0.0433,-0.12933 0.0869,-0.26012 0.12993,-0.38979 0.19665,-0.32234 0.39399,-0.64598 0.59059,-0.96856 0.43688,-0.38574 0.87433,-0.77197 1.31111,-1.15755 0.40947,-0.18913 0.81921,-0.37825 1.22842,-0.56698 0.25598,-0.0868 0.5121,-0.17348 0.76776,-0.25984 0.18509,-0.0593 0.37037,-0.11838 0.55516,-0.1772 0.44048,-0.071 0.8822,-0.142 1.32291,-0.21259 0.37012,-0.0122 0.74047,-0.0238 1.1103,-0.0355 0.0711,-0.008 0.14201,-0.0161 0.21262,-0.0236 -0.0272,0.0821 -0.0549,0.15721 -0.0827,0.23622 -0.18949,0.41087 -0.37772,0.8187 -0.56697,1.22843 -0.26374,0.45681 -0.52733,0.91319 -0.79139,1.37015 -0.36615,0.39767 -0.73206,0.79507 -1.09849,1.193 -0.48041,0.30705 -0.96042,0.61394 -1.44104,0.92131 -0.63403,0.29128 -1.26752,0.58245 -1.90169,0.87408 -0.0943,0.0352 -0.18872,0.0706 -0.28348,0.10631 2.6e-4,0.0906 2.6e-4,0.18084 0,0.27167 -0.0906,0.0985 -0.18085,0.1887 -0.27167,0.28348 -0.13398,0.0432 -0.26747,0.0864 -0.4016,0.12993 -0.16154,-0.0241 -0.31471,-0.0475 -0.47247,-0.0709 -0.0234,0.12986 -0.047,0.25958 -0.0709,0.38979 -0.0274,0.0589 -0.047,0.11784 -0.0709,0.17719 -0.16204,0.10265 -0.32259,0.20447 -0.48428,0.3071 -0.0905,0.008 -0.18085,0.0156 -0.27167,0.0236 2.6e-4,0.0827 2.6e-4,0.1651 0,0.24804 -0.008,2.18401 -0.0155,4.35433 -0.0236,6.5319 -0.0391,0.008 -0.0785,0.0156 -0.11812,0.0236 -0.16336,-0.25942 -0.32448,-0.51461 -0.48711,-0.77152 z" />
    </clipPath>
    <filter
       style="color-interpolation-filters:sRGB"
       inkscape:label="Drop Shadow"
       id="filter1478">
      <feFlood
         flood-opacity="0.498039"
         flood-color="rgb(0,0,0)"
         result="flood"
         id="feFlood1468" />
      <feComposite
         in="flood"
         in2="SourceGraphic"
         operator="in"
         result="composite1"
         id="feComposite1470" />
      <feGaussianBlur
         in="composite1"
         stdDeviation="3.4"
         result="blur"
         id="feGaussianBlur1472" />
      <feOffset
         dx="4.9"
         dy="4.9"
         result="offset"
         id="feOffset1474" />
      <feComposite
         in="SourceGraphic"
         in2="offset"
         operator="over"
         result="composite2"
         id="feComposite1476" />
    </filter>
  </defs>
  <sodipodi:namedview
     inkscape:window-maximized="1"
     inkscape:window-y="0"
     inkscape:window-x="0"
     inkscape:window-height="742"
     inkscape:window-width="1366"
     inkscape:snap-global="false"
     inkscape:guide-bbox="true"
     showguides="true"
     showgrid="false"
     inkscape:document-rotation="0"
     inkscape:current-layer="layer1"
     inkscape:document-units="mm"
     inkscape:cy="482.78972"
     inkscape:cx="-617.07419"
     inkscape:zoom="0.12374369"
     inkscape:pageshadow="2"
     inkscape:pageopacity="0.0"
     borderopacity="1.0"
     bordercolor="#666666"
     pagecolor="#ffffff"
     id="base">
    <sodipodi:guide
       id="guide1016"
       orientation="1,0"
       position="112.98956,128.23362" />
  </sodipodi:namedview>
  <metadata
     id="metadata5">
    <rdf:RDF>
      <cc:Work
         rdf:about="">
        <dc:format>image/svg+xml</dc:format>
        <dc:type
           rdf:resource="http://purl.org/dc/dcmitype/StillImage" />
        <dc:title></dc:title>
      </cc:Work>
    </rdf:RDF>
  </metadata>
  <g
     id="layer1"
     inkscape:groupmode="layer"
     inkscape:label="Camada 1">
    <circle
       style="fill:#ffffff;fill-opacity:1;stroke:#2c3d63;stroke-width:0;stroke-linejoin:round;stroke-miterlimit:4;stroke-dasharray:none;stroke-opacity:1"
       id="circle1178"
       cx="147.82835"
       cy="-4.424747"
       transform="rotate(46.393226)"
       r="99.483505" />
    <path
       inkscape:connector-curvature="0"
       d="m 133.12704,8.5171266 c 0.2827,0.495232 0.62305,1.141643 1.14509,2.2613094 1.41901,3.043331 4.72357,10.397391 6.22853,13.633168 1.50494,3.235763 1.54832,2.424537 0.0942,3.895491 -1.11573,1.543699 -4.23544,4.516173 -5.60995,6.13219 -0.70867,0.833205 -1.10131,0.889941 -1.24462,0.857217 0.0485,0.03241 0.11391,0.09333 0.21617,0.238656 0.54964,0.781888 2.26293,3.194865 3.25124,4.96568 0.98834,1.770805 1.80153,4.232999 2.42185,5.704111 0.62037,1.471123 1.03301,1.903929 -2.5203,6.112929 -3.55327,4.209 -11.0788,12.20293 -14.91525,16.68214 -3.83647,4.479245 -6.4519,7.133436 -7.0729,8.274714 -0.62096,1.14118 -0.36171,1.647024 -0.36171,1.647024 -0.53616,0.923248 0.0597,1.501386 -0.88934,4.39741 -0.949,2.896122 -2.8684,8.163705 -3.83663,10.963029 -0.20875,0.603448 -0.36748,1.076048 -0.488,1.465096 l 0.009,-0.0083 c 0.40542,-0.08979 0.89903,-0.212826 1.52823,-0.374573 2.91898,-0.750844 8.41245,-2.263849 11.43177,-2.985838 3.01933,-0.722051 3.61453,-0.05037 4.57937,-0.523315 0,0 0.52217,0.315453 1.71444,-0.225809 1.19224,-0.541262 3.97736,-3.017114 8.67068,-6.595585 4.6933,-3.578466 13.0762,-10.669955 17.48584,-13.97883 4.40971,-3.308838 4.85453,-2.84131 6.37727,-2.062262 1.52283,0.778928 4.07363,1.848423 5.90424,3.037204 1.83064,1.188792 4.32225,3.190784 5.12942,3.833431 0.149,0.120491 0.21281,0.192907 0.24615,0.246136 -0.0326,-0.152083 0.0302,-0.55527 0.90324,-1.21573 1.69317,-1.281055 4.8121,-4.251957 6.42757,-5.270698 1.54327,-1.376948 0.70043,-1.405652 4.04852,0.453761 3.34805,1.859424 10.95833,5.964673 14.10726,7.717153 2.77191,1.542627 3.19809,1.98228 3.64934,2.404717 A 99.483502,99.483502 0 0 0 177.19762,35.374657 99.483502,99.483502 0 0 0 133.12716,8.5171506 Z m 39.49432,67.5921674 c 0.011,0.0441 0.0244,0.06591 0.0289,0.0653 0.006,1.34e-4 -0.002,-0.02279 -0.0289,-0.0653 z"
       style="fill:#aaaac6;fill-opacity:1;stroke:#2c3d63;stroke-width:0;stroke-linejoin:round;stroke-miterlimit:4;stroke-dasharray:none;stroke-opacity:1"
       id="circle1174" />
    <path
       inkscape:connector-curvature="0"
       d="M 78.447783,8.1596866 A 99.483502,99.483502 0 0 0 36.547675,31.954295 99.483502,99.483502 0 0 0 10.823503,72.410718 c 0.189931,-0.0915 0.295755,-0.149986 0.514761,-0.252568 3.038999,-1.423574 10.381696,-4.739014 13.612824,-6.248844 3.23114,-1.509842 2.423338,-1.551301 3.885865,-0.105993 1.5361,1.107762 4.490492,4.209121 6.097943,5.574618 0.828772,0.704026 0.883878,1.095116 0.850805,1.238219 0.03264,-0.04824 0.09335,-0.113912 0.238649,-0.216189 0.781316,-0.550251 3.192635,-2.265001 4.961405,-3.255512 1.768743,-0.990489 4.226742,-1.808744 5.695554,-2.431472 1.468809,-0.622776 1.901542,-1.034249 6.088319,2.495689 4.18673,3.5299 12.135801,11.008582 16.591168,14.819986 4.455391,3.811445 7.094608,6.410103 8.230831,7.025814 1.136209,0.615733 1.640603,0.356365 1.640603,0.356365 0.91907,0.531782 1.49839,-0.06424 4.383498,0.873286 2.885203,0.937547 8.131574,2.83574 10.920227,3.792747 0.60113,0.206308 1.07214,0.362705 1.45974,0.48159 l -0.008,-0.0083 c -0.0883,-0.403928 -0.20869,-0.896093 -0.36815,-1.52288 -0.74014,-2.907749 -2.23304,-8.380034 -2.94409,-11.387898 -0.711066,-3.007879 -0.0396,-3.602878 -0.508356,-4.563297 0,0 0.315756,-0.522109 -0.220449,-1.709086 C 91.410053,76.179961 88.950293,73.411652 85.395672,68.743348 81.84104,64.07507 74.793352,55.739037 71.506736,51.352749 c -3.286592,-4.386325 -2.818991,-4.832314 -2.037639,-6.352645 0.781218,-1.520402 1.854928,-4.06615 3.045756,-5.894617 1.190851,-1.828455 3.194499,-4.318563 3.837706,-5.125135 0.120492,-0.148987 0.193127,-0.212802 0.246148,-0.246148 -0.151764,0.03302 -0.553272,-0.02742 -1.209321,-0.895751 -1.272466,-1.684171 -4.226397,-4.785859 -5.23751,-6.393324 -1.368567,-1.534464 -1.399597,-0.693524 0.464456,-4.036755 1.864067,-3.34317 5.980658,-10.942537 7.737488,-14.0869164 0.0385,-0.06884 0.05701,-0.09564 0.09418,-0.161596 z M 76.663772,33.707275 c 1.47e-4,-0.006 -0.02193,7.8e-4 -0.06421,0.02778 0.04386,-0.0097 0.06481,-0.02327 0.06421,-0.02778 z"
       style="fill:#aaaac6;fill-opacity:1;stroke:#2c3d63;stroke-width:0;stroke-linejoin:round;stroke-miterlimit:4;stroke-dasharray:none;stroke-opacity:1"
       id="circle1170" />
    <path
       inkscape:connector-curvature="0"
       d="m 108.27613,108.96307 c 0.10001,0.39294 0.23413,0.87068 0.41097,1.48116 0.82031,2.83186 2.46038,8.16517 3.25658,11.09252 0.79616,2.9273 0.17374,3.47605 0.66032,4.41989 0,0 -0.28368,0.49183 0.2761,1.65664 0.55975,1.16483 3.02665,3.92719 6.61699,8.56261 3.59029,4.63538 10.67377,12.93877 13.99596,17.29213 3.32222,4.35342 2.88948,4.76497 2.19603,6.20177 -0.6934,1.4368 -1.62908,3.85184 -2.70438,5.57033 -1.07531,1.71854 -2.9066,4.04511 -3.49417,4.79874 -0.10929,0.1402 -0.17706,0.19775 -0.22688,0.22795 0.14456,-0.0261 0.53249,0.0477 1.1954,0.90967 1.28574,1.67193 4.23998,4.77306 5.27176,6.36121 1.37256,1.53106 1.37082,0.7223 -0.2943,3.87624 -1.66512,3.1539 -5.33422,10.32663 -6.90381,13.29283 -1.56959,2.96617 -1.88234,3.07092 -2.33836,3.60227 -0.34866,0.40618 -0.782,1.06372 -1.23393,1.77865 7.73993,-1.07618 15.30706,-3.12961 22.53073,-6.07013 a 99.483502,99.483502 0 0 0 26.28496,-17.99311 99.483502,99.483502 0 0 0 19.95691,-26.73336 c 0.004,-0.007 0.006,-0.0136 0.009,-0.0203 3.40276,-7.08542 6.00747,-14.48658 7.72678,-22.05556 -0.78435,0.46253 -1.5066,0.9056 -1.96059,1.2639 -0.59382,0.46867 -0.73042,0.79318 -3.95649,2.39508 -3.22606,1.60189 -11.01666,5.34361 -14.44651,7.04292 -3.42987,1.69934 -2.58882,1.7091 -4.05495,0.26756 -1.55642,-1.08806 -4.51079,-4.18863 -6.13112,-5.54146 -0.8354,-0.69749 -0.87622,-1.1011 -0.83583,-1.25104 -0.0361,0.0514 -0.10324,0.12037 -0.25792,0.23331 -0.83688,0.60322 -3.42074,2.48349 -5.30492,3.58405 -1.88417,1.10052 -4.48039,2.04938 -6.03695,2.75574 -1.55654,0.7065 -2.02426,1.15222 -6.24564,-2.34372 -4.2213,-3.49596 -12.20394,-10.94094 -16.6939,-14.71832 -4.48997,-3.77739 -7.13661,-6.3683 -8.29611,-6.96159 -1.15952,-0.5933 -1.69518,-0.30393 -1.69518,-0.30393 -0.93654,-0.51495 -1.56465,0.12771 -4.53441,-0.72881 -2.96973,-0.85643 -8.36223,-2.61463 -11.23058,-3.49524 -0.61829,-0.18991 -1.10339,-0.33305 -1.50254,-0.44092 z m 61.83776,22.36485 c 0.006,1.5e-4 -0.002,0.0223 -0.0311,0.0631 0.0124,-0.0433 0.0265,-0.0639 0.0311,-0.0631 z m -40.85024,38.93783 c -0.0418,0.008 -0.0617,0.0207 -0.061,0.0246 0.001,0.004 0.0211,5.3e-4 0.061,-0.0246 z"
       style="fill:#aaaac6;fill-opacity:1;stroke:#2c3d63;stroke-width:0;stroke-linejoin:round;stroke-miterlimit:4;stroke-dasharray:none;stroke-opacity:1"
       id="circle1166" />
    <path
       inkscape:connector-curvature="0"
       d="m 95.633975,108.9984 c -0.3929,0.1 -0.87176,0.2341 -1.48221,0.41094 -2.831908,0.8203 -8.164117,2.46041 -11.091462,3.2566 -2.927301,0.79615 -3.477126,0.17375 -4.420964,0.6603 0,0 -0.490773,-0.28369 -1.655577,0.27612 -1.164828,0.55973 -3.92718,3.02665 -8.562601,6.61698 -4.635385,3.59032 -12.938754,10.67375 -17.292136,13.99595 -4.353427,3.32223 -4.76603,2.8895 -6.202827,2.19604 -1.436801,-0.69339 -3.851847,-1.62906 -5.570343,-2.70438 -1.718531,-1.07531 -4.044026,-2.9066 -4.797666,-3.49416 -0.140163,-0.10941 -0.197701,-0.17706 -0.227947,-0.22689 0.02607,0.14455 -0.04765,0.53252 -0.909665,1.19541 -1.671933,1.28574 -4.774147,4.23997 -6.362283,5.27176 -1.531092,1.37251 -0.721246,1.37081 -3.875159,-0.29431 -3.153912,-1.66512 -10.327715,-5.3342 -13.2939076,-6.90379 -0.472268,-0.2499 -0.767207,-0.42137 -1.107652,-0.61323 a 99.483502,99.483502 0 0 0 24.3457736,43.96236 99.483502,99.483502 0 0 0 41.967518,26.21647 c -0.323523,-0.52876 -0.728794,-1.24852 -1.37305,-2.54599 -1.601898,-3.22605 -5.343589,-11.01666 -7.042916,-14.44649 -1.699337,-3.4299 -1.709096,-2.58883 -0.267553,-4.05495 1.088062,-1.55641 4.189689,-4.5108 5.542516,-6.13112 0.697483,-0.83541 1.101085,-0.87619 1.251048,-0.83583 -0.05141,-0.0361 -0.121344,-0.10324 -0.234367,-0.25792 -0.603235,-0.83688 -2.482445,-3.42073 -3.582995,-5.30493 -1.100538,-1.88416 -2.049359,-4.48037 -2.755748,-6.03696 -0.706512,-1.55653 -1.152219,-2.02422 2.343715,-6.24562 3.495971,-4.22131 10.939905,-12.20502 14.717267,-16.69497 3.777396,-4.48998 6.369349,-7.13553 6.96267,-8.29506 0.593301,-1.15952 0.30393,-1.69518 0.30393,-1.69518 0.51494,-0.93652 -0.127729,-1.56465 0.728799,-4.53439 0.856452,-2.96976 2.613552,-8.36224 3.494182,-11.23058 0.18989,-0.61831 0.33412,-1.10339 0.44198,-1.50255 z m -22.427991,61.80672 c 0.04337,0.0124 0.06286,0.0265 0.06213,0.0311 -1.35e-4,0.006 -0.0212,-0.002 -0.06213,-0.0311 z"
       style="fill:#aaaac6;fill-opacity:1;stroke:#2c3d63;stroke-width:0;stroke-linejoin:round;stroke-miterlimit:4;stroke-dasharray:none;stroke-opacity:1"
       id="path833-8" />
    <text
       id="text966"
       y="323.12775"
       x="282.56879"
       style="font-style:normal;font-weight:normal;font-size:10.5833px;line-height:1.25;font-family:sans-serif;letter-spacing:0px;word-spacing:0px;fill:#000000;fill-opacity:1;stroke:none;stroke-width:0.264583"
       xml:space="preserve" />
    <flowRoot
       transform="translate(231.91997,128.93727)"
       style="font-style:normal;font-weight:normal;font-size:40px;line-height:1.25;font-family:sans-serif;letter-spacing:0px;word-spacing:0px;fill:#000000;fill-opacity:1;stroke:none"
       id="flowRoot972"
       xml:space="preserve"><flowRegion
         id="flowRegion974"><rect
           y="733.94824"
           x="-180"
           height="62.857143"
           width="760"
           id="rect976" /></flowRegion><flowPara
         id="flowPara978" /></flowRoot>
    <ellipse
       ry="137.7231"
       rx="144.71413"
       cy="235.79156"
       cx="397.83145"
       id="path1006"
       style="fill:#ffffff;fill-opacity:1;stroke:#000000;stroke-width:0.241757;stroke-linecap:round;stroke-linejoin:round;stroke-miterlimit:4;stroke-dasharray:0.241757, 0.483514;stroke-dashoffset:0;stroke-opacity:1" />
    <text
       id="text1033"
       y="133.85071"
       x="31.291887"
       style="font-style:normal;font-weight:normal;font-size:102.282px;line-height:1.25;font-family:sans-serif;letter-spacing:0px;word-spacing:0px;fill:#000000;fill-opacity:1;stroke:none;stroke-width:2.55706"
       xml:space="preserve"><tspan
         style="font-style:normal;font-variant:normal;font-weight:bold;font-stretch:normal;font-family:'Noto Sans CJK HK';-inkscape-font-specification:'Noto Sans CJK HK Bold';stroke-width:2.55706"
         y="133.85071"
         x="31.291887"
         id="tspan1031"
         sodipodi:role="line">S</tspan><tspan
         id="tspan1035"
         style="stroke-width:2.55706"
         y="261.70322"
         x="31.291887"
         sodipodi:role="line" /></text>
    <text
       xml:space="preserve"
       style="font-style:normal;font-weight:normal;font-size:99.5176px;line-height:1.25;font-family:sans-serif;letter-spacing:0px;word-spacing:0px;fill:#000000;fill-opacity:1;stroke:none;stroke-width:2.48795"
       x="109.27325"
       y="131.40324"
       id="text1033-8"><tspan
         sodipodi:role="line"
         id="tspan1031-6"
         x="109.27325"
         y="131.40324"
         style="font-style:normal;font-variant:normal;font-weight:bold;font-stretch:normal;font-family:'Noto Sans CJK HK';-inkscape-font-specification:'Noto Sans CJK HK Bold';stroke-width:2.48795">G</tspan><tspan
         id="tspan1058"
         sodipodi:role="line"
         x="109.27325"
         y="267.76569"
         style="font-style:normal;font-variant:normal;font-weight:bold;font-stretch:normal;font-family:'Noto Sans CJK HK';-inkscape-font-specification:'Noto Sans CJK HK Bold';stroke-width:2.48795" /><tspan
         sodipodi:role="line"
         x="109.27325"
         y="392.16269"
         style="stroke-width:2.48795"
         id="tspan1035-8" /></text>
  </g>
</svg>
