<?xml version="1.0" encoding="UTF-8" standalone="no"?>
<!-- Created with Inkscape (http://www.inkscape.org/) -->

<svg
   xmlns:dc="http://purl.org/dc/elements/1.1/"
   xmlns:cc="http://creativecommons.org/ns#"
   xmlns:rdf="http://www.w3.org/1999/02/22-rdf-syntax-ns#"
   xmlns:svg="http://www.w3.org/2000/svg"
   xmlns="http://www.w3.org/2000/svg"
   xmlns:sodipodi="http://sodipodi.sourceforge.net/DTD/sodipodi-0.dtd"
   xmlns:inkscape="http://www.inkscape.org/namespaces/inkscape"
   width="300mm"
   height="300mm"
   viewBox="0 0 300 300"
   version="1.1"
   id="svg8"
   inkscape:version="0.92.4 (unknown)"
   sodipodi:docname="sbl.svg">
  <defs
     id="defs2" />
  <sodipodi:namedview
     id="base"
     pagecolor="#ffffff"
     bordercolor="#666666"
     borderopacity="1.0"
     inkscape:pageopacity="0.0"
     inkscape:pageshadow="2"
     inkscape:zoom="0.24748737"
     inkscape:cx="787.82087"
     inkscape:cy="327.80397"
     inkscape:document-units="mm"
     inkscape:current-layer="layer1"
     showgrid="false"
     inkscape:window-width="1366"
     inkscape:window-height="712"
     inkscape:window-x="0"
     inkscape:window-y="27"
     inkscape:window-maximized="1" />
  <metadata
     id="metadata5">
    <rdf:RDF>
      <cc:Work
         rdf:about="">
        <dc:format>image/svg+xml</dc:format>
        <dc:type
           rdf:resource="http://purl.org/dc/dcmitype/StillImage" />
        <dc:title></dc:title>
      </cc:Work>
    </rdf:RDF>
  </metadata>
  <g
     inkscape:label="Camada 1"
     inkscape:groupmode="layer"
     id="layer1"
     transform="translate(0,3)">
    <path
       style="fill:#b3acac;fill-opacity:1;stroke-width:0.21222016"
       d="m -39.650284,138.49346 c 0,-171.00552 0.03409,-191.210365 0.322816,-191.210365 0.288629,0 0.310912,9.69516 0.210299,91.519941 -0.136105,110.650444 -0.136105,89.501884 0,199.274724 l 0.113045,91.20163 89.286892,0.0251 c 49.107821,0.0125 90.528412,0.0925 92.045772,0.17621 1.51739,0.0837 -38.8071,0.1682 -89.60997,0.18799 l -92.368829,0.0358 z M 160.57947,329.47988 c 4.46976,-0.24641 182.40322,-0.23488 182.40322,0.0125 0,0.14112 -30.97786,0.20027 -92.58103,0.1762 -50.91958,-0.02 -91.33958,-0.10454 -89.82219,-0.18799 z M 28.101468,252.56179 c 0.0023,-0.46688 0.04586,-0.63291 0.09651,-0.36889 0.05089,0.26399 0.04887,0.64598 -0.005,0.84886 -0.05314,0.20304 -0.09475,-0.0125 -0.09224,-0.47997 z m 254.239792,0 c 0.002,-0.46688 0.0459,-0.63291 0.0965,-0.36889 0.0509,0.26399 0.0489,0.64598 -0.005,0.84886 -0.0531,0.20304 -0.0948,-0.0125 -0.0922,-0.47997 z M 28.320865,249.80295 c 0.0017,-0.58364 0.04286,-0.79718 0.09148,-0.4746 0.04887,0.32258 0.04737,0.80009 -0.0024,1.0611 -0.05038,0.26102 -0.09024,-0.002 -0.08873,-0.5865 z m 253.815345,0 c 0.002,-0.58364 0.0429,-0.79718 0.0915,-0.4746 0.0489,0.32258 0.0474,0.80009 -0.002,1.0611 -0.0504,0.26102 -0.0903,-0.002 -0.0888,-0.5865 z m -0.24214,-1.80388 c -0.0657,-1.47924 -0.91206,-6.7751 -1.73307,-10.84322 -3.66656,-18.16745 -11.89062,-35.49377 -24.04267,-50.65275 -1.05494,-1.31599 -1.98068,-2.31872 -2.05721,-2.22831 -0.0765,0.0905 -0.93255,1.54906 -1.90228,3.24152 -3.34789,5.843 -7.90303,12.29743 -12.43107,17.61427 -2.87137,3.37157 -10.03788,10.47514 -13.35992,13.24258 -14.81012,12.33769 -30.87499,20.34915 -49.34122,24.60636 -14.01936,3.23201 -29.47684,3.76909 -43.93363,1.52646 -32.55087,-5.04946 -61.651421,-23.83757 -79.689343,-51.44965 l -1.857018,-2.84267 -0.402499,0.50826 c -0.968151,1.22255 -6.183052,9.19765 -7.34027,11.22536 -7.819368,13.70158 -12.671874,27.80567 -14.788971,42.98507 -0.275944,1.97849 -0.510857,3.28869 -0.522036,2.91153 -0.03308,-1.11358 0.994719,-8.2926 1.683516,-11.75982 3.114472,-15.67736 9.608609,-31.05166 18.632645,-44.11112 0.766198,-1.10884 1.722067,-2.49358 2.12414,-3.07719 0.402048,-0.58361 1.525779,-2.07623 2.497138,-3.31692 l 1.76613,-2.2558 -1.041741,-2.35658 c -4.002263,-9.05373 -6.8251,-19.56342 -8.07669,-30.07014 -0.580839,-4.87599 -0.794822,-14.66167 -0.429695,-19.65058 1.009933,-13.79923 4.366513,-26.41842 10.29322,-38.697952 15.318123,-31.737453 45.607124,-53.933412 80.338844,-58.872817 9.44075,-1.342626 19.46008,-1.416168 28.86195,-0.211809 32.01279,4.10065 60.53798,22.798146 77.35174,50.701986 2.28248,3.78796 6.04905,11.40314 7.61009,15.385964 3.9857,10.168938 6.32731,20.406868 7.15535,31.284138 0.3281,4.30973 0.14688,15.47672 -0.3137,19.33038 -1.10262,9.22558 -2.82552,16.61552 -5.78017,24.79226 l -0.94505,2.6153 1.38247,1.46545 c 1.70184,1.80405 5.61493,6.69651 8.35551,10.44668 10.24215,14.01532 17.58658,31.07892 20.7094,48.11499 0.6742,3.67806 1.45841,9.83829 1.346,10.57326 -0.0725,0.47364 -0.0925,0.44459 -0.11986,-0.17445 z M 161.74666,222.01522 c 11.28198,-1.42658 20.82489,-4.24515 30.45769,-8.99591 16.32561,-8.05158 29.49109,-20.12731 38.89178,-35.67253 1.74705,-2.889 5.35204,-9.77198 5.35204,-10.21861 0,-0.37385 -9.4772,-7.13172 -9.69542,-6.91345 -0.0612,0.0609 -0.66029,1.33452 -1.33161,2.82999 -7.38736,16.45581 -20.92972,30.63231 -37.14694,38.88629 -15.1853,7.72881 -32.05136,10.49704 -49.12899,8.06351 -14.48171,-2.06361 -28.6854,-8.40802 -40.318341,-18.00916 -2.54374,-2.09948 -7.142395,-6.61193 -9.428855,-9.25216 -4.298568,-4.96367 -7.895874,-10.27169 -10.961071,-16.1736 -0.560739,-1.0797 -1.077103,-1.96305 -1.147517,-1.96305 -0.195507,0 -6.523842,5.09909 -7.950007,6.4059 l -1.258683,1.15334 1.552502,2.74614 c 12.561513,22.21965 33.689512,38.4972 58.052102,44.72491 5.10205,1.30424 11.71752,2.40313 16.65929,2.76728 2.81293,0.20728 14.83661,-0.0543 17.40203,-0.37889 z m -4.63524,-46.50925 c 13.38529,-1.72851 25.35372,-9.2081 32.90768,-20.56544 1.53733,-2.31136 3.83732,-6.69735 4.69249,-8.94833 l 0.33584,-0.88399 -1.42358,-0.42954 c -9.3243,-2.81339 -19.15063,-4.59371 -29.43665,-5.33322 -3.82929,-0.27531 -14.00357,-0.27502 -17.82649,6.4e-4 -9.69125,0.69849 -18.7777,2.27839 -27.47043,4.77633 -4.17955,1.20105 -10.17686,3.20473 -10.49557,3.50653 -0.24187,0.22911 1.11591,3.07704 2.72995,5.7264 7.54099,12.3781 20.33486,20.59522 34.6711,22.26817 2.57266,0.30023 8.56274,0.23812 11.31566,-0.11762 z m -88.834401,-5.65698 0.623334,-0.68972 -0.689732,0.62332 c -0.37934,0.34281 -0.689721,0.65318 -0.689721,0.6897 0,0.16392 0.175206,0.02 0.756119,-0.6233 z m 1.790526,-1.53859 c 0.274133,-0.29182 0.450677,-0.53056 0.392321,-0.53056 -0.05843,0 -0.330417,0.23862 -0.604529,0.53056 -0.274134,0.29179 -0.450699,0.53054 -0.392322,0.53054 0.05843,0 0.330386,-0.23862 0.60453,-0.53054 z m 6.384746,-5.22079 c 0.982138,-0.77045 2.239344,-1.71997 2.793794,-2.11 0.554418,-0.39005 1.008017,-0.78385 1.008017,-0.87514 0,-0.0913 -0.337472,-1.50748 -0.749957,-3.14716 -1.735739,-6.89976 -2.340067,-12.56823 -2.156618,-20.22917 0.166686,-6.95758 0.922008,-12.09827 2.704725,-18.40626 7.653372,-27.080402 30.380248,-47.681336 58.137968,-52.699548 5.07945,-0.918301 7.21081,-1.08829 13.47599,-1.074809 6.48901,0.01509 9.00823,0.250156 14.53707,1.362434 6.50421,1.308582 11.86412,3.156157 18.14709,6.255286 10.73612,5.295735 19.6239,12.708475 26.78789,22.342125 8.09649,10.887522 13.04324,23.897432 14.28247,37.562702 0.33843,3.73169 0.16118,12.88762 -0.31558,16.29163 -0.19601,1.40065 -0.58848,3.68919 -0.87189,5.08566 -0.48552,2.39212 -0.49393,2.55096 -0.14538,2.74498 0.65714,0.36586 6.26384,4.19717 7.90371,5.40103 0.8754,0.64261 1.48413,1.03211 1.35271,0.86552 -0.18198,-0.2306 -0.0662,-0.98608 0.48508,-3.16785 2.93094,-11.59741 3.32082,-24.27159 1.11305,-36.18354 C 231.53109,104.70137 221.93925,87.730818 207.9046,75.270311 187.5849,57.229691 160.32319,50.029818 133.62752,55.653609 116.87759,59.182205 100.94918,68.24858 89.277804,80.897188 c -8.510907,9.22357 -14.72218,19.770872 -18.546226,31.493202 -5.479344,16.79642 -5.522407,35.50747 -0.120069,52.21816 0.642446,1.98733 0.716248,2.40251 0.47917,2.69631 -0.154149,0.19099 0.587458,-0.36413 1.647924,-1.23357 1.060445,-0.86947 2.731678,-2.21124 3.713837,-2.98168 z m 157.873689,0.1534 c 0,-0.0442 -0.16718,-0.21105 -0.3714,-0.3714 -0.33659,-0.26395 -0.34409,-0.25647 -0.0802,0.0802 0.27725,0.35349 0.45153,0.46593 0.45153,0.29125 z M 122.1436,141.15369 c 6.74617,-1.72123 13.26256,-2.85855 20.9277,-3.65252 4.47966,-0.464 18.74185,-0.53038 23.23811,-0.10805 7.91756,0.74355 16.94726,2.32603 23.34421,4.09113 1.75082,0.48311 3.38525,0.92374 3.63209,0.97917 0.42615,0.0957 0.45619,-0.005 0.59503,-1.98757 0.0804,-1.14862 0.0424,-3.37764 -0.0845,-4.95336 -0.93631,-11.62923 -6.30226,-22.04573 -15.17813,-29.46413 -13.93001,-11.642622 -34.08588,-13.060672 -49.49404,-3.48208 -13.38124,8.31854 -21.02285,23.18458 -19.98521,38.87948 0.10379,1.57084 0.23936,3.01558 0.3013,3.21052 0.0983,0.30933 0.68265,0.16744 4.59205,-1.11571 2.46376,-0.80858 6.11384,-1.88713 8.11133,-2.39679 z"
       id="path978"
       inkscape:connector-curvature="0" />
  </g>
</svg>
