<?xml version="1.0" encoding="UTF-8" standalone="no"?>
<!-- Created with Inkscape (http://www.inkscape.org/) -->

<svg
   xmlns:dc="http://purl.org/dc/elements/1.1/"
   xmlns:cc="http://creativecommons.org/ns#"
   xmlns:rdf="http://www.w3.org/1999/02/22-rdf-syntax-ns#"
   xmlns:svg="http://www.w3.org/2000/svg"
   xmlns="http://www.w3.org/2000/svg"
   xmlns:sodipodi="http://sodipodi.sourceforge.net/DTD/sodipodi-0.dtd"
   xmlns:inkscape="http://www.inkscape.org/namespaces/inkscape"
   width="210mm"
   height="297mm"
   viewBox="0 0 210 297"
   version="1.1"
   id="svg8"
   inkscape:version="0.92.4 (unknown)"
   sodipodi:docname="sbl.svg">
  <defs
     id="defs2" />
  <sodipodi:namedview
     id="base"
     pagecolor="#ffffff"
     bordercolor="#666666"
     borderopacity="1.0"
     inkscape:pageopacity="0.0"
     inkscape:pageshadow="2"
     inkscape:zoom="0.35"
     inkscape:cx="-247.14286"
     inkscape:cy="548.57143"
     inkscape:document-units="mm"
     inkscape:current-layer="layer1"
     showgrid="false"
     inkscape:window-width="1366"
     inkscape:window-height="712"
     inkscape:window-x="0"
     inkscape:window-y="27"
     inkscape:window-maximized="1" />
  <metadata
     id="metadata5">
    <rdf:RDF>
      <cc:Work
         rdf:about="">
        <dc:format>image/svg+xml</dc:format>
        <dc:type
           rdf:resource="http://purl.org/dc/dcmitype/StillImage" />
        <dc:title></dc:title>
      </cc:Work>
    </rdf:RDF>
  </metadata>
  <g
     inkscape:label="Camada 1"
     inkscape:groupmode="layer"
     id="layer1">
    <path
       style="fill:#b3acac;stroke-width:0.08466667;fill-opacity:1"
       d="m 4.181919,151.85714 c 0,-68.22381 0.0136,-76.28467 0.12879,-76.28467 0.11515,0 0.12404,3.86795 0.0839,36.5125 -0.0543,44.14474 -0.0543,35.70738 0,79.502 l 0.0451,36.38551 35.62161,0.01 c 19.59189,0.005 36.11692,0.0369 36.72228,0.0703 0.60537,0.0334 -15.48236,0.0671 -35.7505,0.075 l -36.85117,0.0143 z m 79.88301,76.19532 c 1.78324,-0.0983 72.771001,-0.0937 72.771001,0.005 0,0.0563 -12.35883,0.0799 -36.93583,0.0703 -20.314711,-0.008 -36.440541,-0.0417 -35.835171,-0.075 z m -52.85299,-30.68699 c 9.4e-4,-0.18626 0.0183,-0.2525 0.0385,-0.14717 0.0203,0.10532 0.0195,0.25772 -0.002,0.33866 -0.0212,0.081 -0.0378,-0.005 -0.0368,-0.19149 z m 101.430681,0 c 9.3e-4,-0.18626 0.0183,-0.2525 0.0385,-0.14717 0.0203,0.10532 0.0195,0.25772 -0.002,0.33866 -0.0212,0.081 -0.0378,-0.005 -0.0368,-0.19149 z M 31.299469,196.26481 c 6.8e-4,-0.23284 0.0171,-0.31804 0.0365,-0.18934 0.0195,0.1287 0.0189,0.3192 -10e-4,0.42333 -0.0201,0.10414 -0.036,-10e-4 -0.0354,-0.23399 z m 101.261341,0 c 8.5e-4,-0.23284 0.0171,-0.31804 0.0365,-0.18934 0.0195,0.1287 0.0189,0.3192 -0.001,0.42333 -0.0201,0.10414 -0.036,-10e-4 -0.0354,-0.23399 z m -0.0966,-0.71967 c -0.0262,-0.59015 -0.36387,-2.70297 -0.69142,-4.32597 -1.4628,-7.24803 -4.74384,-14.16048 -9.59199,-20.20826 -0.42087,-0.52502 -0.7902,-0.92507 -0.82073,-0.889 -0.0305,0.0361 -0.37205,0.61801 -0.75893,1.29323 -1.33566,2.3311 -3.15297,4.90614 -4.95946,7.02733 -1.14555,1.34511 -4.00468,4.17913 -5.33003,5.28322 -5.9086,4.9222 -12.317781,8.11843 -19.685011,9.81687 -5.59312,1.28943 -11.75999,1.5037 -17.52762,0.60899 -12.98639,-2.01451 -24.59625,-9.51016 -31.7926,-20.52618 l -0.74087,-1.13411 -0.16058,0.20278 c -0.38625,0.48774 -2.46677,3.66946 -2.92845,4.47843 -3.11959,5.46634 -5.05553,11.09326 -5.90016,17.14919 -0.11009,0.78933 -0.20381,1.31204 -0.20827,1.16157 -0.0132,-0.44427 0.39685,-3.30839 0.67165,-4.69166 1.24254,-6.25459 3.83342,-12.38827 7.43362,-17.59843 0.30568,-0.44238 0.68703,-0.99483 0.84744,-1.22767 0.1604,-0.23283 0.60872,-0.82832 0.99625,-1.3233 l 0.70461,-0.89997 -0.41561,-0.94017 c -1.59673,-3.61205 -2.72292,-7.80496 -3.22225,-11.99669 -0.23173,-1.94531 -0.3171,-5.84937 -0.17143,-7.83973 0.40292,-5.5053 1.74205,-10.53981 4.10655,-15.43881 6.11127,-12.66187 18.19527,-21.5171 32.05172,-23.48771 3.76645,-0.53565 7.76373,-0.56499 11.51467,-0.0845 12.77172,1.63598 24.152041,9.09547 30.860001,20.2279 0.91061,1.51123 2.41331,4.54936 3.0361,6.13833 1.59012,4.05697 2.52432,8.14146 2.85467,12.48102 0.1309,1.7194 0.0586,6.17454 -0.12515,7.71199 -0.4399,3.6806 -1.12726,6.62887 -2.30604,9.89104 l -0.37703,1.04339 0.55154,0.58465 c 0.67896,0.71974 2.24012,2.67162 3.33349,4.16777 4.08618,5.59151 7.01629,12.39915 8.26216,19.19581 0.26897,1.46738 0.58184,3.92505 0.53699,4.21827 -0.0289,0.18896 -0.0369,0.17737 -0.0478,-0.0696 z M 84.530589,185.17871 c 4.50102,-0.56914 8.30823,-1.69363 12.1513,-3.58898 6.513211,-3.21223 11.765671,-8.02992 15.516141,-14.2318 0.697,-1.15258 2.13523,-3.89859 2.13523,-4.07678 0,-0.14915 -3.78099,-2.84525 -3.86805,-2.75817 -0.0244,0.0243 -0.26343,0.53242 -0.53126,1.12905 -2.94723,6.56516 -8.35005,12.22096 -14.820021,15.51395 -6.05828,3.08346 -12.78711,4.18786 -19.60034,3.21699 -5.77758,-0.82329 -11.44424,-3.35444 -16.08528,-7.18488 -1.01484,-0.8376 -2.8495,-2.63787 -3.7617,-3.69121 -1.71494,-1.98029 -3.15011,-4.09796 -4.37299,-6.45257 -0.22371,-0.43075 -0.42972,-0.78317 -0.45781,-0.78317 -0.078,0 -2.60273,2.03432 -3.17171,2.55568 l -0.50216,0.46013 0.61938,1.09559 c 5.0115,8.86468 13.44066,15.35872 23.16027,17.84331 2.0355,0.52033 4.67479,0.95874 6.64634,1.10402 1.12224,0.0827 5.91917,-0.0217 6.94266,-0.15116 z m -1.84926,-18.55518 c 5.34015,-0.6896 10.11504,-3.67363 13.12874,-8.20472 0.61333,-0.92213 1.53093,-2.67195 1.8721,-3.57 l 0.13399,-0.35267 -0.56795,-0.17137 c -3.71999,-1.12242 -7.64027,-1.83269 -11.74395,-2.12772 -1.52772,-0.10984 -5.58682,-0.10972 -7.112,2.5e-4 -3.86639,0.27867 -7.49149,0.90898 -10.95951,1.90555 -1.66746,0.47917 -4.06013,1.27855 -4.18728,1.39896 -0.0965,0.0914 0.4452,1.2276 1.08913,2.28458 3.00853,4.93833 8.11273,8.2166 13.83227,8.88404 1.02638,0.11978 3.41616,0.095 4.51446,-0.0469 z m -35.44108,-2.25689 0.24868,-0.27517 -0.27517,0.24868 c -0.15134,0.13677 -0.27517,0.26059 -0.27517,0.27516 0,0.0654 0.0699,0.008 0.30166,-0.24867 z m 0.71434,-0.61383 c 0.10937,-0.11642 0.1798,-0.21167 0.15652,-0.21167 -0.0233,0 -0.13182,0.0952 -0.24118,0.21167 -0.10937,0.11641 -0.17981,0.21166 -0.15652,0.21166 0.0233,0 0.13181,-0.0952 0.24118,-0.21166 z m 2.54724,-2.08287 c 0.39183,-0.30738 0.8934,-0.68619 1.1146,-0.8418 0.22119,-0.15561 0.40216,-0.31272 0.40216,-0.34914 0,-0.0364 -0.13464,-0.60142 -0.2992,-1.25558 -0.69249,-2.75271 -0.93359,-5.01418 -0.8604,-8.07057 0.0665,-2.77577 0.36784,-4.82668 1.07907,-7.3433 3.05336,-10.80391 12.1204,-19.02279 23.19453,-21.02484 2.02648,-0.36636 2.8768,-0.43418 5.37634,-0.4288 2.58883,0.006 3.59389,0.0998 5.79966,0.54355 2.5949,0.52207 4.73327,1.25917 7.2399,2.49559 4.28325,2.11277 7.829091,5.07013 10.687211,8.91354 3.23015,4.34365 5.20369,9.53404 5.69809,14.98589 0.13502,1.48879 0.0643,5.14161 -0.1259,6.49966 -0.0782,0.5588 -0.23478,1.47183 -0.34785,2.02896 -0.1937,0.95435 -0.19706,1.01772 -0.058,1.09513 0.26217,0.14596 2.499,1.67449 3.15324,2.15477 0.34925,0.25638 0.5921,0.41177 0.53967,0.34531 -0.0726,-0.092 -0.0264,-0.3934 0.19353,-1.26384 1.16932,-4.62686 1.32486,-9.68331 0.44406,-14.43566 -1.36098,-7.34325 -5.18771,-14.11377 -10.78693,-19.08497 -8.106681,-7.19743 -18.982921,-10.06987 -29.633341,-7.82622 -6.6825,1.40776 -13.03725,5.02485 -17.69362,10.0711 -3.39548,3.6798 -5.87351,7.88772 -7.39914,12.56442 -2.18602,6.70105 -2.2032,14.16595 -0.0479,20.83279 0.25631,0.79286 0.28575,0.9585 0.19117,1.07571 -0.0615,0.0762 0.23437,-0.14527 0.65745,-0.49214 0.42307,-0.34688 1.08982,-0.88219 1.48166,-1.18956 z m 62.984771,0.0612 c 0,-0.0176 -0.0667,-0.0842 -0.14817,-0.14817 -0.13429,-0.10531 -0.13728,-0.10232 -0.032,0.032 0.11061,0.14103 0.18014,0.18589 0.18014,0.1162 z m -44.755921,-8.81268 c 2.69143,-0.6867 5.29119,-1.14044 8.34925,-1.4572 1.78719,-0.18512 7.47719,-0.2116 9.271,-0.0431 3.15876,0.29664 6.76122,0.92798 9.31333,1.63218 0.6985,0.19274 1.35057,0.36853 1.44905,0.39065 0.17001,0.0382 0.182,-0.002 0.23739,-0.79296 0.0321,-0.45825 0.0169,-1.34753 -0.0337,-1.97618 -0.37355,-4.63955 -2.51433,-8.79529 -6.05542,-11.75491 -5.55747,-4.6449 -13.59879,-5.21064 -19.74598,-1.3892 -5.33854,3.31874 -8.38721,9.24965 -7.97324,15.51123 0.0414,0.6267 0.0955,1.20309 0.12021,1.28086 0.0392,0.12341 0.27235,0.0668 1.83203,-0.44512 0.98293,-0.32259 2.43916,-0.75288 3.23607,-0.95621 z"
       id="path978"
       inkscape:connector-curvature="0" />
  </g>
</svg>
